<?xml version="1.0" encoding="UTF-8" standalone="no"?>
<!DOCTYPE svg PUBLIC "-//W3C//DTD SVG 1.1//EN"
 "http://www.w3.org/Graphics/SVG/1.1/DTD/svg11.dtd">
<!-- Generated by graphviz version 14.0.2 (0)
 -->
<!-- Pages: 1 -->
<svg width="816pt" height="241pt"
 viewBox="0.00 0.00 816.00 241.00" xmlns="http://www.w3.org/2000/svg" xmlns:xlink="http://www.w3.org/1999/xlink">
<g id="graph0" class="graph" transform="scale(1 1) rotate(0) translate(4 236.57)">
<polygon fill="white" stroke="none" points="-4,4 -4,-236.57 812.45,-236.57 812.45,4 -4,4"/>
<!-- &#45;1 -->
<g id="node1" class="node">
<title>&#45;1</title>
<polygon fill="lightgray" stroke="black" points="344.34,-166.46 320.84,-166.46 320.84,-147.96 344.34,-147.96 344.34,-166.46"/>
<text xml:space="preserve" text-anchor="middle" x="332.59" y="-153.91" font-family="Times,serif" font-size="9.00">&#45;1</text>
</g>
<!-- 32 -->
<g id="node18" class="node">
<title>32</title>
<ellipse fill="white" stroke="black" cx="129.59" cy="-82.67" rx="17.68" ry="17.68"/>
<text xml:space="preserve" text-anchor="middle" x="129.59" y="-79.37" font-family="Times,serif" font-size="9.00">32</text>
</g>
<!-- &#45;1&#45;&gt;32 -->
<g id="edge8" class="edge">
<title>&#45;1&#45;&gt;32</title>
<path fill="none" stroke="red" stroke-width="0.26" d="M325.6,-147.76C321.84,-143.73 316.9,-139.19 311.59,-136.35 248.88,-102.72 221.17,-127.96 155.59,-100.35 154.58,-99.92 153.56,-99.45 152.55,-98.96"/>
<polygon fill="red" stroke="red" stroke-width="0.26" points="154.45,-96.02 144.03,-94.14 151.01,-102.11 154.45,-96.02"/>
</g>
<!-- 33 -->
<g id="node19" class="node">
<title>33</title>
<ellipse fill="white" stroke="black" cx="182.59" cy="-82.67" rx="17.68" ry="17.68"/>
<text xml:space="preserve" text-anchor="middle" x="182.59" y="-79.37" font-family="Times,serif" font-size="9.00">33</text>
</g>
<!-- &#45;1&#45;&gt;33 -->
<g id="edge9" class="edge">
<title>&#45;1&#45;&gt;33</title>
<path fill="none" stroke="red" stroke-width="0.23" d="M325.08,-147.6C321.34,-143.74 316.56,-139.37 311.59,-136.35 270.17,-111.13 252.19,-121.58 208.59,-100.35 207.6,-99.87 206.61,-99.35 205.61,-98.82"/>
<polygon fill="red" stroke="red" stroke-width="0.23" points="207.51,-95.88 197.12,-93.82 203.96,-101.91 207.51,-95.88"/>
</g>
<!-- 24 -->
<g id="node21" class="node">
<title>24</title>
<ellipse fill="white" stroke="black" cx="341.59" cy="-82.67" rx="17.68" ry="17.68"/>
<text xml:space="preserve" text-anchor="middle" x="341.59" y="-79.37" font-family="Times,serif" font-size="9.00">24</text>
</g>
<!-- &#45;1&#45;&gt;24 -->
<g id="edge1" class="edge">
<title>&#45;1&#45;&gt;24</title>
<path fill="none" stroke="red" stroke-width="0.13" d="M333.66,-147.6C334.79,-138.48 336.63,-123.61 338.26,-110.51"/>
<polygon fill="red" stroke="red" stroke-width="0.13" points="341.72,-111.07 339.48,-100.72 334.77,-110.21 341.72,-111.07"/>
</g>
<!-- 26 -->
<g id="node22" class="node">
<title>26</title>
<ellipse fill="white" stroke="black" cx="394.59" cy="-82.67" rx="17.68" ry="17.68"/>
<text xml:space="preserve" text-anchor="middle" x="394.59" y="-79.37" font-family="Times,serif" font-size="9.00">26</text>
</g>
<!-- &#45;1&#45;&gt;26 -->
<g id="edge2" class="edge">
<title>&#45;1&#45;&gt;26</title>
<path fill="none" stroke="red" stroke-width="0.28" d="M339.95,-147.6C348.96,-137.06 364.53,-118.84 376.75,-104.55"/>
<polygon fill="red" stroke="red" stroke-width="0.28" points="379.37,-106.86 383.21,-96.99 374.05,-102.32 379.37,-106.86"/>
</g>
<!-- 27 -->
<g id="node23" class="node">
<title>27</title>
<ellipse fill="white" stroke="black" cx="553.59" cy="-82.67" rx="17.68" ry="17.68"/>
<text xml:space="preserve" text-anchor="middle" x="553.59" y="-79.37" font-family="Times,serif" font-size="9.00">27</text>
</g>
<!-- &#45;1&#45;&gt;27 -->
<g id="edge3" class="edge">
<title>&#45;1&#45;&gt;27</title>
<path fill="none" stroke="red" stroke-width="0.25" d="M339.55,-147.7C343.3,-143.67 348.25,-139.13 353.59,-136.35 423.61,-99.83 454.47,-130.16 527.59,-100.35 528.61,-99.93 529.63,-99.48 530.65,-98.99"/>
<polygon fill="red" stroke="red" stroke-width="0.25" points="532.18,-102.14 539.19,-94.2 528.76,-96.04 532.18,-102.14"/>
</g>
<!-- 28 -->
<g id="node24" class="node">
<title>28</title>
<ellipse fill="white" stroke="black" cx="288.59" cy="-82.67" rx="17.68" ry="17.68"/>
<text xml:space="preserve" text-anchor="middle" x="288.59" y="-79.37" font-family="Times,serif" font-size="9.00">28</text>
</g>
<!-- &#45;1&#45;&gt;28 -->
<g id="edge4" class="edge">
<title>&#45;1&#45;&gt;28</title>
<path fill="none" stroke="red" stroke-width="0.24" d="M327.37,-147.6C321.32,-137.63 311.1,-120.78 302.67,-106.88"/>
<polygon fill="red" stroke="red" stroke-width="0.24" points="305.82,-105.32 297.64,-98.59 299.83,-108.95 305.82,-105.32"/>
</g>
<!-- 29 -->
<g id="node25" class="node">
<title>29</title>
<ellipse fill="white" stroke="black" cx="235.59" cy="-82.67" rx="17.68" ry="17.68"/>
<text xml:space="preserve" text-anchor="middle" x="235.59" y="-79.37" font-family="Times,serif" font-size="9.00">29</text>
</g>
<!-- &#45;1&#45;&gt;29 -->
<g id="edge5" class="edge">
<title>&#45;1&#45;&gt;29</title>
<path fill="none" stroke="green" stroke-width="0.32" d="M324.27,-147.79C320.52,-144.13 315.95,-139.89 311.59,-136.35 302.16,-128.7 277.35,-111.7 258.62,-99.07"/>
<polygon fill="green" stroke="green" stroke-width="0.32" points="260.65,-96.22 250.4,-93.55 256.75,-102.03 260.65,-96.22"/>
</g>
<!-- 30 -->
<g id="node26" class="node">
<title>30</title>
<ellipse fill="white" stroke="black" cx="447.59" cy="-82.67" rx="17.68" ry="17.68"/>
<text xml:space="preserve" text-anchor="middle" x="447.59" y="-79.37" font-family="Times,serif" font-size="9.00">30</text>
</g>
<!-- &#45;1&#45;&gt;30 -->
<g id="edge6" class="edge">
<title>&#45;1&#45;&gt;30</title>
<path fill="none" stroke="red" stroke-width="0.11" d="M340.71,-147.53C344.43,-143.83 349.02,-139.62 353.59,-136.35 381.38,-116.42 392.06,-117.59 421.59,-100.35 422.66,-99.72 423.75,-99.08 424.84,-98.42"/>
<polygon fill="red" stroke="red" stroke-width="0.11" points="426.37,-101.59 433,-93.33 422.66,-95.65 426.37,-101.59"/>
</g>
<!-- 31 -->
<g id="node27" class="node">
<title>31</title>
<ellipse fill="white" stroke="black" cx="500.59" cy="-82.67" rx="17.68" ry="17.68"/>
<text xml:space="preserve" text-anchor="middle" x="500.59" y="-79.37" font-family="Times,serif" font-size="9.00">31</text>
</g>
<!-- &#45;1&#45;&gt;31 -->
<g id="edge7" class="edge">
<title>&#45;1&#45;&gt;31</title>
<path fill="none" stroke="red" stroke-width="0.35" d="M340.04,-147.49C343.76,-143.61 348.55,-139.26 353.59,-136.35 402.19,-108.31 423.59,-123.72 474.59,-100.35 475.59,-99.89 476.6,-99.4 477.6,-98.88"/>
<polygon fill="red" stroke="red" stroke-width="0.35" points="479.06,-102.08 485.96,-94.04 475.56,-96.02 479.06,-102.08"/>
</g>
<!-- &#45;2 -->
<g id="node2" class="node">
<title>&#45;2</title>
<polygon fill="lightgray" stroke="black" points="386.34,-166.46 362.84,-166.46 362.84,-147.96 386.34,-147.96 386.34,-166.46"/>
<text xml:space="preserve" text-anchor="middle" x="374.59" y="-153.91" font-family="Times,serif" font-size="9.00">&#45;2</text>
</g>
<!-- &#45;2&#45;&gt;32 -->
<g id="edge17" class="edge">
<title>&#45;2&#45;&gt;32</title>
<path fill="none" stroke="green" stroke-width="0.16" d="M367.66,-147.65C363.91,-143.6 358.96,-139.07 353.59,-136.35 273.79,-95.95 238.81,-133.12 155.59,-100.35 154.57,-99.94 153.54,-99.5 152.52,-99.02"/>
<polygon fill="green" stroke="green" stroke-width="0.16" points="154.28,-95.99 143.84,-94.19 150.88,-102.11 154.28,-95.99"/>
</g>
<!-- &#45;2&#45;&gt;33 -->
<g id="edge18" class="edge">
<title>&#45;2&#45;&gt;33</title>
<path fill="none" stroke="red" stroke-width="0.21" d="M367.58,-147.79C363.82,-143.78 358.87,-139.24 353.59,-136.35 295.33,-104.49 269.57,-126.62 208.59,-100.35 207.58,-99.91 206.57,-99.44 205.55,-98.94"/>
<polygon fill="red" stroke="red" stroke-width="0.21" points="207.4,-95.96 196.97,-94.05 203.93,-102.04 207.4,-95.96"/>
</g>
<!-- &#45;2&#45;&gt;24 -->
<g id="edge10" class="edge">
<title>&#45;2&#45;&gt;24</title>
<path fill="none" stroke="red" stroke-width="0.19" d="M370.68,-147.6C366.31,-138 359.04,-122.02 352.86,-108.45"/>
<polygon fill="red" stroke="red" stroke-width="0.19" points="356.06,-107.02 348.73,-99.37 349.69,-109.92 356.06,-107.02"/>
</g>
<!-- &#45;2&#45;&gt;26 -->
<g id="edge11" class="edge">
<title>&#45;2&#45;&gt;26</title>
<path fill="none" stroke="green" stroke-width="0.12" d="M376.96,-147.6C379.52,-138.33 383.71,-123.12 387.37,-109.87"/>
<polygon fill="green" stroke="green" stroke-width="0.12" points="390.69,-110.98 389.98,-100.41 383.94,-109.12 390.69,-110.98"/>
</g>
<!-- &#45;2&#45;&gt;27 -->
<g id="edge12" class="edge">
<title>&#45;2&#45;&gt;27</title>
<path fill="none" stroke="green" stroke-width="0.29" d="M381.63,-147.84C385.4,-143.84 390.34,-139.3 395.59,-136.35 448.61,-106.56 472.02,-125.05 527.59,-100.35 528.6,-99.9 529.61,-99.42 530.61,-98.91"/>
<polygon fill="green" stroke="green" stroke-width="0.29" points="532.14,-102.07 539.07,-94.06 528.65,-96 532.14,-102.07"/>
</g>
<!-- &#45;2&#45;&gt;28 -->
<g id="edge13" class="edge">
<title>&#45;2&#45;&gt;28</title>
<path fill="none" stroke="green" stroke-width="0.28" d="M365.74,-147.55C362.04,-144.01 357.67,-139.92 353.59,-136.35 339.43,-123.94 322.95,-110.6 310.12,-100.44"/>
<polygon fill="green" stroke="green" stroke-width="0.28" points="312.64,-97.97 302.61,-94.53 308.31,-103.47 312.64,-97.97"/>
</g>
<!-- &#45;2&#45;&gt;29 -->
<g id="edge14" class="edge">
<title>&#45;2&#45;&gt;29</title>
<path fill="none" stroke="red" stroke-width="0.26" d="M367.03,-147.68C363.28,-143.83 358.51,-139.46 353.59,-136.35 316.51,-112.83 300.7,-120.3 261.59,-100.35 260.61,-99.85 259.62,-99.32 258.63,-98.77"/>
<polygon fill="red" stroke="red" stroke-width="0.26" points="260.59,-95.87 250.21,-93.75 257,-101.88 260.59,-95.87"/>
</g>
<!-- &#45;2&#45;&gt;30 -->
<g id="edge15" class="edge">
<title>&#45;2&#45;&gt;30</title>
<path fill="none" stroke="green" stroke-width="0.2" d="M383.25,-147.6C394.25,-136.67 413.55,-117.49 428.16,-102.98"/>
<polygon fill="green" stroke="green" stroke-width="0.2" points="430.45,-105.63 435.08,-96.1 425.52,-100.67 430.45,-105.63"/>
</g>
<!-- &#45;2&#45;&gt;31 -->
<g id="edge16" class="edge">
<title>&#45;2&#45;&gt;31</title>
<path fill="none" stroke="green" stroke-width="0.44" d="M382.23,-147.8C386,-143.98 390.76,-139.6 395.59,-136.35 427.6,-114.8 440.71,-118.81 474.59,-100.35 475.44,-99.89 476.29,-99.41 477.15,-98.92"/>
<polygon fill="green" stroke="green" stroke-width="0.44" points="478.94,-101.92 485.67,-93.74 475.31,-95.94 478.94,-101.92"/>
</g>
<!-- &#45;3 -->
<g id="node3" class="node">
<title>&#45;3</title>
<polygon fill="lightgray" stroke="black" points="428.34,-166.46 404.84,-166.46 404.84,-147.96 428.34,-147.96 428.34,-166.46"/>
<text xml:space="preserve" text-anchor="middle" x="416.59" y="-153.91" font-family="Times,serif" font-size="9.00">&#45;3</text>
</g>
<!-- &#45;3&#45;&gt;32 -->
<g id="edge26" class="edge">
<title>&#45;3&#45;&gt;32</title>
<path fill="none" stroke="red" stroke-width="0.44" d="M409.69,-147.58C405.96,-143.51 401,-138.98 395.59,-136.35 298.62,-89.12 256.55,-138.3 155.59,-100.35 154.69,-100.01 153.79,-99.64 152.89,-99.23"/>
<polygon fill="red" stroke="red" stroke-width="0.44" points="154.63,-96.2 144.18,-94.48 151.28,-102.34 154.63,-96.2"/>
</g>
<!-- &#45;3&#45;&gt;33 -->
<g id="edge27" class="edge">
<title>&#45;3&#45;&gt;33</title>
<path fill="none" stroke="green" stroke-width="0.38" d="M409.64,-147.67C405.9,-143.63 400.95,-139.09 395.59,-136.35 320.28,-97.73 287.18,-131.76 208.59,-100.35 207.57,-99.94 206.55,-99.49 205.53,-99.01"/>
<polygon fill="green" stroke="green" stroke-width="0.38" points="207.58,-96.15 197.15,-94.33 204.17,-102.26 207.58,-96.15"/>
</g>
<!-- &#45;3&#45;&gt;24 -->
<g id="edge19" class="edge">
<title>&#45;3&#45;&gt;24</title>
<path fill="none" stroke="red" stroke-width="0.41" d="M407.69,-147.6C396.33,-136.61 376.33,-117.27 361.3,-102.73"/>
<polygon fill="red" stroke="red" stroke-width="0.41" points="364.03,-100.5 354.41,-96.06 359.16,-105.53 364.03,-100.5"/>
</g>
<!-- &#45;3&#45;&gt;26 -->
<g id="edge20" class="edge">
<title>&#45;3&#45;&gt;26</title>
<path fill="none" stroke="green" stroke-width="0.38" d="M413.98,-147.6C411.18,-138.36 406.59,-123.23 402.58,-110"/>
<polygon fill="green" stroke="green" stroke-width="0.38" points="405.95,-109.06 399.7,-100.51 399.25,-111.09 405.95,-109.06"/>
</g>
<!-- &#45;3&#45;&gt;27 -->
<g id="edge21" class="edge">
<title>&#45;3&#45;&gt;27</title>
<path fill="none" stroke="green" stroke-width="0.39" d="M424.16,-147.7C427.92,-143.85 432.69,-139.48 437.59,-136.35 473.88,-113.13 489.29,-120.07 527.59,-100.35 528.57,-99.84 529.56,-99.31 530.55,-98.77"/>
<polygon fill="green" stroke="green" stroke-width="0.39" points="532.02,-101.96 538.8,-93.82 528.42,-95.96 532.02,-101.96"/>
</g>
<!-- &#45;3&#45;&gt;28 -->
<g id="edge22" class="edge">
<title>&#45;3&#45;&gt;28</title>
<path fill="none" stroke="red" stroke-width="0.22" d="M408.96,-147.78C405.2,-143.96 400.43,-139.57 395.59,-136.35 362.81,-114.5 349.27,-119.04 314.59,-100.35 313.62,-99.83 312.64,-99.28 311.66,-98.72"/>
<polygon fill="red" stroke="red" stroke-width="0.22" points="313.58,-95.79 303.21,-93.59 309.94,-101.77 313.58,-95.79"/>
</g>
<!-- &#45;3&#45;&gt;29 -->
<g id="edge23" class="edge">
<title>&#45;3&#45;&gt;29</title>
<path fill="none" stroke="red" stroke-width="0.17" d="M409.56,-147.84C405.79,-143.83 400.85,-139.29 395.59,-136.35 341.77,-106.24 317.99,-125.29 261.59,-100.35 260.59,-99.9 259.57,-99.42 258.56,-98.91"/>
<polygon fill="red" stroke="red" stroke-width="0.17" points="260.36,-95.91 249.95,-93.97 256.88,-101.98 260.36,-95.91"/>
</g>
<!-- &#45;3&#45;&gt;30 -->
<g id="edge24" class="edge">
<title>&#45;3&#45;&gt;30</title>
<path fill="none" stroke="green" stroke-width="0.17" d="M420.27,-147.6C424.35,-138.06 431.11,-122.22 436.89,-108.7"/>
<polygon fill="green" stroke="green" stroke-width="0.17" points="440.06,-110.19 440.77,-99.62 433.63,-107.44 440.06,-110.19"/>
</g>
<!-- &#45;3&#45;&gt;31 -->
<g id="edge25" class="edge">
<title>&#45;3&#45;&gt;31</title>
<path fill="none" stroke="red" stroke-width="0.36" d="M425.47,-147.58C429.17,-144.05 433.54,-139.95 437.59,-136.35 451.27,-124.18 467.07,-110.97 479.43,-100.82"/>
<polygon fill="red" stroke="red" stroke-width="0.36" points="481.41,-103.72 486.94,-94.68 476.98,-98.3 481.41,-103.72"/>
</g>
<!-- &#45;4 -->
<g id="node4" class="node">
<title>&#45;4</title>
<polygon fill="lightgray" stroke="black" points="424.34,-232.57 400.84,-232.57 400.84,-214.07 424.34,-214.07 424.34,-232.57"/>
<text xml:space="preserve" text-anchor="middle" x="412.59" y="-220.02" font-family="Times,serif" font-size="9.00">&#45;4</text>
</g>
<!-- &#45;4&#45;&gt;32 -->
<g id="edge35" class="edge">
<title>&#45;4&#45;&gt;32</title>
<path fill="none" stroke="red" stroke-width="0.11" d="M400.54,-221.93C336.24,-219.77 35.5,-208.08 8.59,-178.07 -3.79,-164.26 -1.57,-151.86 8.59,-136.35 29.17,-104.94 72.98,-92.16 101.85,-87.02"/>
<polygon fill="red" stroke="red" stroke-width="0.11" points="102.25,-90.5 111.58,-85.48 101.16,-83.59 102.25,-90.5"/>
</g>
<!-- &#45;4&#45;&gt;33 -->
<g id="edge36" class="edge">
<title>&#45;4&#45;&gt;33</title>
<path fill="none" stroke="red" stroke-width="0.38" d="M400.51,-221.89C337.41,-219.52 47.53,-207.11 21.59,-178.07 9.24,-164.24 10.29,-151.05 21.59,-136.35 59.42,-87.1 99.78,-125.41 156.59,-100.35 157.6,-99.9 158.61,-99.42 159.62,-98.92"/>
<polygon fill="red" stroke="red" stroke-width="0.38" points="161.02,-102.15 167.96,-94.14 157.54,-96.07 161.02,-102.15"/>
</g>
<!-- 541 -->
<g id="node20" class="node">
<title>541</title>
<ellipse fill="white" stroke="black" cx="787.59" cy="-157.21" rx="20.86" ry="20.86"/>
<text xml:space="preserve" text-anchor="middle" x="787.59" y="-153.91" font-family="Times,serif" font-size="9.00">541</text>
</g>
<!-- &#45;4&#45;&gt;541 -->
<g id="edge154" class="edge">
<title>&#45;4&#45;&gt;541</title>
<path fill="none" stroke="green" stroke-width="0.31" d="M424.71,-222.4C469.5,-222.37 629.53,-219.23 752.59,-178.07 755.45,-177.11 758.34,-175.91 761.16,-174.58"/>
<polygon fill="green" stroke="green" stroke-width="0.31" points="762.78,-177.69 769.99,-169.93 759.51,-171.5 762.78,-177.69"/>
</g>
<!-- &#45;4&#45;&gt;24 -->
<g id="edge28" class="edge">
<title>&#45;4&#45;&gt;24</title>
<path fill="none" stroke="green" stroke-width="0.24" d="M400.56,-221.46C361.98,-218.43 242.51,-206.84 219.59,-178.07 208.04,-163.56 209.03,-151.59 219.59,-136.35 245.55,-98.89 274.85,-120.76 315.59,-100.35 316.57,-99.85 317.57,-99.33 318.56,-98.79"/>
<polygon fill="green" stroke="green" stroke-width="0.24" points="320.22,-101.88 327.02,-93.76 316.64,-95.86 320.22,-101.88"/>
</g>
<!-- &#45;4&#45;&gt;26 -->
<g id="edge29" class="edge">
<title>&#45;4&#45;&gt;26</title>
<path fill="none" stroke="red" stroke-width="0.27" d="M424.62,-221.46C463.2,-218.43 582.67,-206.84 605.59,-178.07 617.14,-163.56 617.38,-150.66 605.59,-136.35 552.32,-71.71 498.34,-131.52 420.59,-100.35 419.57,-99.94 418.55,-99.49 417.53,-99"/>
<polygon fill="red" stroke="red" stroke-width="0.27" points="419.44,-96.06 409,-94.24 416.03,-102.18 419.44,-96.06"/>
</g>
<!-- &#45;4&#45;&gt;27 -->
<g id="edge30" class="edge">
<title>&#45;4&#45;&gt;27</title>
<path fill="none" stroke="red" stroke-width="0.3" stroke-dasharray="1,5" d="M424.66,-222.1C469.98,-221.02 628.98,-214.65 659.59,-178.07 671.49,-163.85 669.36,-152.11 659.59,-136.35 642.64,-108.99 606.75,-95.39 581.44,-88.95"/>
<polygon fill="red" stroke="red" stroke-width="0.3" points="582.31,-85.56 571.78,-86.72 580.73,-92.38 582.31,-85.56"/>
</g>
<!-- &#45;4&#45;&gt;28 -->
<g id="edge31" class="edge">
<title>&#45;4&#45;&gt;28</title>
<path fill="none" stroke="red" stroke-width="0.73" d="M400.53,-221.78C340.02,-219 71.61,-205.18 47.59,-178.07 35.29,-164.19 35.61,-150.5 47.59,-136.35 110.19,-62.4 172.2,-135.21 262.59,-100.35 263.36,-100.05 264.13,-99.73 264.9,-99.39"/>
<polygon fill="red" stroke="red" stroke-width="0.73" points="266.49,-102.51 273.6,-94.65 263.14,-96.36 266.49,-102.51"/>
</g>
<!-- &#45;4&#45;&gt;29 -->
<g id="edge32" class="edge">
<title>&#45;4&#45;&gt;29</title>
<path fill="none" stroke="green" stroke-width="0.14" d="M400.51,-221.84C338.67,-219.26 59.57,-206.14 34.59,-178.07 22.27,-164.21 22.87,-150.72 34.59,-136.35 84.76,-74.8 136.05,-130.29 209.59,-100.35 210.61,-99.93 211.63,-99.48 212.65,-98.99"/>
<polygon fill="green" stroke="green" stroke-width="0.14" points="214.33,-102.06 221.34,-94.12 210.91,-95.95 214.33,-102.06"/>
</g>
<!-- &#45;4&#45;&gt;30 -->
<g id="edge33" class="edge">
<title>&#45;4&#45;&gt;30</title>
<path fill="none" stroke="green" stroke-width="0.4" stroke-dasharray="1,5" d="M424.57,-221.71C465.41,-219.37 598.11,-209.45 623.59,-178.07 635.28,-163.67 635.07,-150.91 623.59,-136.35 581.14,-82.51 536.66,-127.23 473.59,-100.35 472.58,-99.92 471.56,-99.45 470.55,-98.95"/>
<polygon fill="green" stroke="green" stroke-width="0.4" points="472.64,-96.11 462.22,-94.22 469.19,-102.2 472.64,-96.11"/>
</g>
<!-- &#45;4&#45;&gt;31 -->
<g id="edge34" class="edge">
<title>&#45;4&#45;&gt;31</title>
<path fill="none" stroke="red" stroke-width="0.44" d="M424.67,-221.92C467.86,-220.22 613.56,-212.03 641.59,-178.07 653.39,-163.77 652.57,-151.29 641.59,-136.35 609.88,-93.19 575.12,-123.01 526.59,-100.35 525.72,-99.94 524.84,-99.51 523.96,-99.06"/>
<polygon fill="red" stroke="red" stroke-width="0.44" points="525.76,-96.05 515.35,-94.06 522.25,-102.11 525.76,-96.05"/>
</g>
<!-- &#45;5 -->
<g id="node5" class="node">
<title>&#45;5</title>
<polygon fill="lightgray" stroke="black" points="470.34,-166.46 446.84,-166.46 446.84,-147.96 470.34,-147.96 470.34,-166.46"/>
<text xml:space="preserve" text-anchor="middle" x="458.59" y="-153.91" font-family="Times,serif" font-size="9.00">&#45;5</text>
</g>
<!-- &#45;5&#45;&gt;32 -->
<g id="edge44" class="edge">
<title>&#45;5&#45;&gt;32</title>
<path fill="none" stroke="green" stroke-width="0.22" d="M451.72,-147.53C447.99,-143.45 443.03,-138.92 437.59,-136.35 323.4,-82.27 274.34,-143.51 155.59,-100.35 154.56,-99.97 153.52,-99.55 152.49,-99.09"/>
<polygon fill="green" stroke="green" stroke-width="0.22" points="154.31,-96.09 143.86,-94.38 150.96,-102.24 154.31,-96.09"/>
</g>
<!-- &#45;5&#45;&gt;33 -->
<g id="edge45" class="edge">
<title>&#45;5&#45;&gt;33</title>
<path fill="none" stroke="green" stroke-width="0.21" d="M451.68,-147.6C447.95,-143.53 443,-139 437.59,-136.35 345.12,-90.91 304.9,-136.94 208.59,-100.35 207.56,-99.96 206.53,-99.52 205.51,-99.05"/>
<polygon fill="green" stroke="green" stroke-width="0.21" points="207.33,-96.06 196.88,-94.3 203.95,-102.19 207.33,-96.06"/>
</g>
<!-- &#45;5&#45;&gt;24 -->
<g id="edge37" class="edge">
<title>&#45;5&#45;&gt;24</title>
<path fill="none" stroke="green" stroke-width="0.33" d="M450.49,-147.51C446.77,-143.8 442.18,-139.6 437.59,-136.35 409.04,-116.13 397.9,-117.81 367.59,-100.35 366.64,-99.8 365.67,-99.23 364.7,-98.65"/>
<polygon fill="green" stroke="green" stroke-width="0.33" points="366.79,-95.83 356.44,-93.53 363.1,-101.78 366.79,-95.83"/>
</g>
<!-- &#45;5&#45;&gt;26 -->
<g id="edge38" class="edge">
<title>&#45;5&#45;&gt;26</title>
<path fill="none" stroke="green" stroke-width="0.17" d="M451,-147.6C441.61,-136.96 425.32,-118.5 412.66,-104.15"/>
<polygon fill="green" stroke="green" stroke-width="0.17" points="415.47,-102.05 406.23,-96.86 410.22,-106.68 415.47,-102.05"/>
</g>
<!-- &#45;5&#45;&gt;27 -->
<g id="edge39" class="edge">
<title>&#45;5&#45;&gt;27</title>
<path fill="none" stroke="green" stroke-width="0.18" d="M466.93,-147.81C470.69,-144.16 475.25,-139.92 479.59,-136.35 496.09,-122.78 515.84,-108.83 530.78,-98.69"/>
<polygon fill="green" stroke="green" stroke-width="0.18" points="532.4,-101.83 538.75,-93.35 528.49,-96.02 532.4,-101.83"/>
</g>
<!-- &#45;5&#45;&gt;28 -->
<g id="edge40" class="edge">
<title>&#45;5&#45;&gt;28</title>
<path fill="none" stroke="green" stroke-width="0.34" d="M451.15,-147.48C447.42,-143.59 442.64,-139.24 437.59,-136.35 388.19,-107.99 366.42,-123.96 314.59,-100.35 313.59,-99.89 312.58,-99.4 311.58,-98.89"/>
<polygon fill="green" stroke="green" stroke-width="0.34" points="313.61,-96.02 303.2,-94.04 310.11,-102.08 313.61,-96.02"/>
</g>
<!-- &#45;5&#45;&gt;29 -->
<g id="edge41" class="edge">
<title>&#45;5&#45;&gt;29</title>
<path fill="none" stroke="red" stroke-width="0.18" d="M451.63,-147.7C447.88,-143.66 442.93,-139.13 437.59,-136.35 366.76,-99.5 335.56,-130.41 261.59,-100.35 260.57,-99.93 259.55,-99.48 258.53,-98.99"/>
<polygon fill="red" stroke="red" stroke-width="0.18" points="260.33,-95.99 249.89,-94.15 256.91,-102.09 260.33,-95.99"/>
</g>
<!-- &#45;5&#45;&gt;30 -->
<g id="edge42" class="edge">
<title>&#45;5&#45;&gt;30</title>
<path fill="none" stroke="red" stroke-width="0.38" d="M457.29,-147.6C455.92,-138.57 453.69,-123.91 451.72,-110.9"/>
<polygon fill="red" stroke="red" stroke-width="0.38" points="455.19,-110.46 450.23,-101.09 448.27,-111.5 455.19,-110.46"/>
</g>
<!-- &#45;5&#45;&gt;31 -->
<g id="edge43" class="edge">
<title>&#45;5&#45;&gt;31</title>
<path fill="none" stroke="red" stroke-width="0.36" d="M463.57,-147.6C469.26,-137.78 478.8,-121.31 486.77,-107.54"/>
<polygon fill="red" stroke="red" stroke-width="0.36" points="489.72,-109.43 491.7,-99.02 483.66,-105.92 489.72,-109.43"/>
</g>
<!-- &#45;6 -->
<g id="node6" class="node">
<title>&#45;6</title>
<polygon fill="lightgray" stroke="black" points="512.34,-166.46 488.84,-166.46 488.84,-147.96 512.34,-147.96 512.34,-166.46"/>
<text xml:space="preserve" text-anchor="middle" x="500.59" y="-153.91" font-family="Times,serif" font-size="9.00">&#45;6</text>
</g>
<!-- &#45;6&#45;&gt;32 -->
<g id="edge53" class="edge">
<title>&#45;6&#45;&gt;32</title>
<path fill="none" stroke="green" stroke-width="0.26" stroke-dasharray="1,5" d="M493.73,-147.49C490.01,-143.4 485.05,-138.88 479.59,-136.35 348.14,-75.41 292.16,-148.73 155.59,-100.35 154.55,-99.98 153.52,-99.56 152.49,-99.11"/>
<polygon fill="green" stroke="green" stroke-width="0.26" points="154.36,-96.14 143.9,-94.46 151.02,-102.3 154.36,-96.14"/>
</g>
<!-- &#45;6&#45;&gt;33 -->
<g id="edge54" class="edge">
<title>&#45;6&#45;&gt;33</title>
<path fill="none" stroke="red" stroke-width="0.13" d="M493.71,-147.54C489.98,-143.46 485.03,-138.94 479.59,-136.35 369.91,-84.07 322.68,-142.15 208.59,-100.35 207.56,-99.97 206.52,-99.54 205.5,-99.08"/>
<polygon fill="red" stroke="red" stroke-width="0.13" points="207.19,-96.02 196.74,-94.3 203.84,-102.17 207.19,-96.02"/>
</g>
<!-- &#45;6&#45;&gt;24 -->
<g id="edge46" class="edge">
<title>&#45;6&#45;&gt;24</title>
<path fill="none" stroke="green" stroke-width="0.26" d="M493.11,-147.54C489.38,-143.67 484.6,-139.31 479.59,-136.35 434.59,-109.72 414.88,-122.65 367.59,-100.35 366.6,-99.88 365.59,-99.38 364.59,-98.85"/>
<polygon fill="green" stroke="green" stroke-width="0.26" points="366.53,-95.93 356.13,-93.91 363,-101.97 366.53,-95.93"/>
</g>
<!-- &#45;6&#45;&gt;26 -->
<g id="edge47" class="edge">
<title>&#45;6&#45;&gt;26</title>
<path fill="none" stroke="green" stroke-width="0.18" d="M492.37,-147.66C488.63,-143.99 484.06,-139.76 479.59,-136.35 455.19,-117.69 446.63,-116.64 420.59,-100.35 419.66,-99.76 418.71,-99.17 417.75,-98.56"/>
<polygon fill="green" stroke="green" stroke-width="0.18" points="419.67,-95.64 409.36,-93.22 415.91,-101.54 419.67,-95.64"/>
</g>
<!-- &#45;6&#45;&gt;27 -->
<g id="edge48" class="edge">
<title>&#45;6&#45;&gt;27</title>
<path fill="none" stroke="green" stroke-width="0.21" d="M506.88,-147.6C514.37,-137.34 527.17,-119.82 537.48,-105.71"/>
<polygon fill="green" stroke="green" stroke-width="0.21" points="540.25,-107.86 543.32,-97.73 534.59,-103.74 540.25,-107.86"/>
</g>
<!-- &#45;6&#45;&gt;28 -->
<g id="edge49" class="edge">
<title>&#45;6&#45;&gt;28</title>
<path fill="none" stroke="green" stroke-width="0.13" d="M493.62,-147.73C489.86,-143.7 484.91,-139.16 479.59,-136.35 413.23,-101.28 383.94,-129.06 314.59,-100.35 313.58,-99.93 312.56,-99.47 311.54,-98.98"/>
<polygon fill="green" stroke="green" stroke-width="0.13" points="313.26,-95.93 302.83,-94.07 309.83,-102.03 313.26,-95.93"/>
</g>
<!-- &#45;6&#45;&gt;29 -->
<g id="edge50" class="edge">
<title>&#45;6&#45;&gt;29</title>
<path fill="none" stroke="red" stroke-width="0.14" d="M493.67,-147.61C489.94,-143.55 484.98,-139.02 479.59,-136.35 391.62,-92.7 353.25,-135.58 261.59,-100.35 260.56,-99.95 259.54,-99.51 258.51,-99.04"/>
<polygon fill="red" stroke="red" stroke-width="0.14" points="260.24,-96 249.79,-94.22 256.85,-102.12 260.24,-96"/>
</g>
<!-- &#45;6&#45;&gt;30 -->
<g id="edge51" class="edge">
<title>&#45;6&#45;&gt;30</title>
<path fill="none" stroke="red" stroke-width="0.36" d="M494.3,-147.6C486.81,-137.34 474.01,-119.82 463.7,-105.71"/>
<polygon fill="red" stroke="red" stroke-width="0.36" points="466.72,-103.92 458,-97.91 461.07,-108.05 466.72,-103.92"/>
</g>
<!-- &#45;6&#45;&gt;31 -->
<g id="edge52" class="edge">
<title>&#45;6&#45;&gt;31</title>
<path fill="none" stroke="green" stroke-width="0.21" d="M500.59,-147.6C500.59,-138.54 500.59,-123.81 500.59,-110.77"/>
<polygon fill="green" stroke="green" stroke-width="0.21" points="504.09,-111.13 500.59,-101.13 497.09,-111.13 504.09,-111.13"/>
</g>
<!-- &#45;7 -->
<g id="node7" class="node">
<title>&#45;7</title>
<polygon fill="lightgray" stroke="black" points="554.34,-166.46 530.84,-166.46 530.84,-147.96 554.34,-147.96 554.34,-166.46"/>
<text xml:space="preserve" text-anchor="middle" x="542.59" y="-153.91" font-family="Times,serif" font-size="9.00">&#45;7</text>
</g>
<!-- &#45;7&#45;&gt;32 -->
<g id="edge62" class="edge">
<title>&#45;7&#45;&gt;32</title>
<path fill="none" stroke="green" stroke-width="0.14" d="M535.75,-147.46C532.03,-143.36 527.07,-138.84 521.59,-136.35 372.87,-68.54 310,-153.96 155.59,-100.35 154.55,-99.99 153.51,-99.58 152.48,-99.13"/>
<polygon fill="green" stroke="green" stroke-width="0.14" points="154.19,-96.07 143.73,-94.41 150.87,-102.24 154.19,-96.07"/>
</g>
<!-- &#45;7&#45;&gt;33 -->
<g id="edge63" class="edge">
<title>&#45;7&#45;&gt;33</title>
<path fill="none" stroke="red" stroke-width="0.11" d="M535.73,-147.5C532,-143.41 527.05,-138.89 521.59,-136.35 394.66,-77.21 340.49,-147.36 208.59,-100.35 207.56,-99.98 206.52,-99.56 205.49,-99.11"/>
<polygon fill="red" stroke="red" stroke-width="0.11" points="207.16,-96.03 196.7,-94.34 203.83,-102.19 207.16,-96.03"/>
</g>
<!-- &#45;7&#45;&gt;24 -->
<g id="edge55" class="edge">
<title>&#45;7&#45;&gt;24</title>
<path fill="none" stroke="red" stroke-width="0.61" d="M535.6,-147.76C531.84,-143.74 526.89,-139.2 521.59,-136.35 459.69,-103.05 432.33,-127.72 367.59,-100.35 366.7,-99.97 365.82,-99.57 364.93,-99.14"/>
<polygon fill="red" stroke="red" stroke-width="0.61" points="366.92,-96.25 356.49,-94.39 363.49,-102.35 366.92,-96.25"/>
</g>
<!-- &#45;7&#45;&gt;26 -->
<g id="edge56" class="edge">
<title>&#45;7&#45;&gt;26</title>
<path fill="none" stroke="green" stroke-width="0.24" d="M535.07,-147.61C531.33,-143.75 526.55,-139.39 521.59,-136.35 480.96,-111.44 463.37,-121.35 420.59,-100.35 419.6,-99.86 418.61,-99.35 417.61,-98.81"/>
<polygon fill="green" stroke="green" stroke-width="0.24" points="419.52,-95.88 409.13,-93.81 415.96,-101.9 419.52,-95.88"/>
</g>
<!-- &#45;7&#45;&gt;27 -->
<g id="edge57" class="edge">
<title>&#45;7&#45;&gt;27</title>
<path fill="none" stroke="green" stroke-width="0.32" d="M543.9,-147.6C545.28,-138.48 547.53,-123.61 549.52,-110.51"/>
<polygon fill="green" stroke="green" stroke-width="0.32" points="552.92,-111.41 550.96,-101 546,-110.36 552.92,-111.41"/>
</g>
<!-- &#45;7&#45;&gt;28 -->
<g id="edge58" class="edge">
<title>&#45;7&#45;&gt;28</title>
<path fill="none" stroke="green" stroke-width="0.18" d="M535.66,-147.63C531.92,-143.58 526.97,-139.05 521.59,-136.35 438.12,-94.49 401.61,-134.22 314.59,-100.35 313.57,-99.95 312.54,-99.51 311.52,-99.03"/>
<polygon fill="green" stroke="green" stroke-width="0.18" points="313.3,-96.02 302.86,-94.23 309.91,-102.14 313.3,-96.02"/>
</g>
<!-- &#45;7&#45;&gt;29 -->
<g id="edge59" class="edge">
<title>&#45;7&#45;&gt;29</title>
<path fill="none" stroke="green" stroke-width="0.48" d="M535.7,-147.55C531.97,-143.48 527.02,-138.95 521.59,-136.35 416.42,-85.86 371.02,-140.78 261.59,-100.35 260.69,-100.01 259.78,-99.64 258.88,-99.25"/>
<polygon fill="green" stroke="green" stroke-width="0.48" points="260.67,-96.24 250.22,-94.54 257.33,-102.39 260.67,-96.24"/>
</g>
<!-- &#45;7&#45;&gt;30 -->
<g id="edge60" class="edge">
<title>&#45;7&#45;&gt;30</title>
<path fill="none" stroke="green" stroke-width="0.15" d="M534.25,-147.81C530.49,-144.16 525.93,-139.92 521.59,-136.35 505.09,-122.78 485.34,-108.83 470.4,-98.69"/>
<polygon fill="green" stroke="green" stroke-width="0.15" points="472.66,-96 462.4,-93.33 468.76,-101.81 472.66,-96"/>
</g>
<!-- &#45;7&#45;&gt;31 -->
<g id="edge61" class="edge">
<title>&#45;7&#45;&gt;31</title>
<path fill="none" stroke="red" stroke-width="0.18" d="M537.61,-147.6C531.87,-137.69 522.2,-120.99 514.18,-107.14"/>
<polygon fill="red" stroke="red" stroke-width="0.18" points="517.39,-105.69 509.35,-98.79 511.33,-109.2 517.39,-105.69"/>
</g>
<!-- &#45;8 -->
<g id="node8" class="node">
<title>&#45;8</title>
<polygon fill="lightgray" stroke="black" points="596.34,-166.46 572.84,-166.46 572.84,-147.96 596.34,-147.96 596.34,-166.46"/>
<text xml:space="preserve" text-anchor="middle" x="584.59" y="-153.91" font-family="Times,serif" font-size="9.00">&#45;8</text>
</g>
<!-- &#45;8&#45;&gt;32 -->
<g id="edge71" class="edge">
<title>&#45;8&#45;&gt;32</title>
<path fill="none" stroke="red" stroke-width="0.24" d="M578.12,-147.85C574.37,-143.64 569.27,-138.9 563.59,-136.35 397.58,-61.66 327.85,-159.19 155.59,-100.35 154.39,-99.94 153.19,-99.46 152,-98.93"/>
<polygon fill="red" stroke="red" stroke-width="0.24" points="154.04,-96.06 143.58,-94.34 150.68,-102.2 154.04,-96.06"/>
</g>
<!-- &#45;8&#45;&gt;33 -->
<g id="edge72" class="edge">
<title>&#45;8&#45;&gt;33</title>
<path fill="none" stroke="red" stroke-width="0.15" d="M577.74,-147.47C574.02,-143.37 569.07,-138.85 563.59,-136.35 419.39,-70.34 358.33,-152.59 208.59,-100.35 207.55,-99.98 206.51,-99.57 205.48,-99.12"/>
<polygon fill="red" stroke="red" stroke-width="0.15" points="207.2,-96.07 196.74,-94.41 203.88,-102.23 207.2,-96.07"/>
</g>
<!-- &#45;8&#45;&gt;24 -->
<g id="edge64" class="edge">
<title>&#45;8&#45;&gt;24</title>
<path fill="none" stroke="green" stroke-width="0.17" d="M577.65,-147.65C573.91,-143.61 568.96,-139.07 563.59,-136.35 484.61,-96.27 449.97,-132.87 367.59,-100.35 366.57,-99.94 365.54,-99.5 364.52,-99.02"/>
<polygon fill="green" stroke="green" stroke-width="0.17" points="366.3,-96 355.85,-94.2 362.89,-102.12 366.3,-96"/>
</g>
<!-- &#45;8&#45;&gt;26 -->
<g id="edge65" class="edge">
<title>&#45;8&#45;&gt;26</title>
<path fill="none" stroke="red" stroke-width="0.11" d="M577.58,-147.8C573.81,-143.79 568.87,-139.24 563.59,-136.35 506.14,-104.81 480.74,-126.38 420.59,-100.35 419.46,-99.86 418.31,-99.32 417.18,-98.74"/>
<polygon fill="red" stroke="red" stroke-width="0.11" points="419.27,-95.91 408.85,-93.97 415.79,-101.98 419.27,-95.91"/>
</g>
<!-- &#45;8&#45;&gt;27 -->
<g id="edge66" class="edge">
<title>&#45;8&#45;&gt;27</title>
<path fill="none" stroke="green" stroke-width="0.2" d="M580.91,-147.6C576.83,-138.06 570.07,-122.22 564.29,-108.7"/>
<polygon fill="green" stroke="green" stroke-width="0.2" points="567.58,-107.49 560.43,-99.67 561.14,-110.24 567.58,-107.49"/>
</g>
<!-- &#45;8&#45;&gt;28 -->
<g id="edge67" class="edge">
<title>&#45;8&#45;&gt;28</title>
<path fill="none" stroke="red" stroke-width="0.24" d="M577.7,-147.57C573.96,-143.5 569.01,-138.97 563.59,-136.35 462.93,-87.66 419.36,-139.42 314.59,-100.35 313.56,-99.96 312.53,-99.53 311.5,-99.07"/>
<polygon fill="red" stroke="red" stroke-width="0.24" points="313.36,-96.1 302.91,-94.36 310,-102.23 313.36,-96.1"/>
</g>
<!-- &#45;8&#45;&gt;29 -->
<g id="edge68" class="edge">
<title>&#45;8&#45;&gt;29</title>
<path fill="none" stroke="green" stroke-width="0.23" d="M577.72,-147.51C574,-143.42 569.04,-138.9 563.59,-136.35 441.18,-79.01 388.82,-146 261.59,-100.35 260.56,-99.98 259.52,-99.56 258.49,-99.1"/>
<polygon fill="green" stroke="green" stroke-width="0.23" points="260.33,-96.11 249.87,-94.42 256.98,-102.27 260.33,-96.11"/>
</g>
<!-- &#45;8&#45;&gt;30 -->
<g id="edge69" class="edge">
<title>&#45;8&#45;&gt;30</title>
<path fill="none" stroke="green" stroke-width="0.12" d="M577.02,-147.7C573.27,-143.85 568.49,-139.48 563.59,-136.35 527.3,-113.13 511.89,-120.07 473.59,-100.35 472.49,-99.78 471.38,-99.18 470.26,-98.56"/>
<polygon fill="green" stroke="green" stroke-width="0.12" points="472.4,-95.76 462.03,-93.61 468.8,-101.76 472.4,-95.76"/>
</g>
<!-- &#45;8&#45;&gt;31 -->
<g id="edge70" class="edge">
<title>&#45;8&#45;&gt;31</title>
<path fill="none" stroke="red" stroke-width="0.23" d="M575.71,-147.58C572.01,-144.05 567.64,-139.95 563.59,-136.35 549.91,-124.18 534.11,-110.97 521.76,-100.82"/>
<polygon fill="red" stroke="red" stroke-width="0.23" points="524.05,-98.18 514.09,-94.56 519.62,-103.6 524.05,-98.18"/>
</g>
<!-- &#45;9 -->
<g id="node9" class="node">
<title>&#45;9</title>
<polygon fill="lightgray" stroke="black" points="80.34,-166.46 56.84,-166.46 56.84,-147.96 80.34,-147.96 80.34,-166.46"/>
<text xml:space="preserve" text-anchor="middle" x="68.59" y="-153.91" font-family="Times,serif" font-size="9.00">&#45;9</text>
</g>
<!-- &#45;9&#45;&gt;32 -->
<g id="edge80" class="edge">
<title>&#45;9&#45;&gt;32</title>
<path fill="none" stroke="red" stroke-width="0.3" d="M75.83,-147.6C84.64,-137.12 99.83,-119.06 111.82,-104.8"/>
<polygon fill="red" stroke="red" stroke-width="0.3" points="114.39,-107.18 118.15,-97.28 109.03,-102.68 114.39,-107.18"/>
</g>
<!-- &#45;9&#45;&gt;33 -->
<g id="edge81" class="edge">
<title>&#45;9&#45;&gt;33</title>
<path fill="none" stroke="red" stroke-width="0.42" d="M76.72,-147.55C80.44,-143.85 85.03,-139.64 89.59,-136.35 117,-116.56 127.45,-117.49 156.59,-100.35 157.54,-99.79 158.5,-99.21 159.47,-98.63"/>
<polygon fill="red" stroke="red" stroke-width="0.42" points="160.97,-101.82 167.6,-93.56 157.26,-95.88 160.97,-101.82"/>
</g>
<!-- &#45;9&#45;&gt;24 -->
<g id="edge73" class="edge">
<title>&#45;9&#45;&gt;24</title>
<path fill="none" stroke="green" stroke-width="0.31" d="M75.5,-147.6C79.24,-143.54 84.19,-139.01 89.59,-136.35 180.83,-91.4 220.55,-136.57 315.59,-100.35 316.62,-99.96 317.65,-99.52 318.67,-99.05"/>
<polygon fill="green" stroke="green" stroke-width="0.31" points="320.1,-102.26 327.17,-94.37 316.72,-96.13 320.1,-102.26"/>
</g>
<!-- &#45;9&#45;&gt;26 -->
<g id="edge74" class="edge">
<title>&#45;9&#45;&gt;26</title>
<path fill="none" stroke="red" stroke-width="0.28" d="M75.47,-147.53C79.2,-143.45 84.15,-138.93 89.59,-136.35 202.55,-82.76 251.11,-143.14 368.59,-100.35 369.62,-99.97 370.66,-99.55 371.69,-99.09"/>
<polygon fill="red" stroke="red" stroke-width="0.28" points="373.14,-102.28 380.24,-94.42 369.79,-96.14 373.14,-102.28"/>
</g>
<!-- &#45;9&#45;&gt;27 -->
<g id="edge75" class="edge">
<title>&#45;9&#45;&gt;27</title>
<path fill="none" stroke="red" stroke-width="0.28" d="M75.05,-147.83C78.8,-143.62 83.91,-138.88 89.59,-136.35 267.96,-56.75 342.57,-162.93 527.59,-100.35 528.66,-99.99 529.72,-99.57 530.78,-99.12"/>
<polygon fill="red" stroke="red" stroke-width="0.28" points="532.41,-102.21 539.55,-94.39 529.09,-96.05 532.41,-102.21"/>
</g>
<!-- &#45;9&#45;&gt;28 -->
<g id="edge76" class="edge">
<title>&#45;9&#45;&gt;28</title>
<path fill="none" stroke="red" stroke-width="0.23" d="M75.55,-147.71C79.31,-143.67 84.25,-139.13 89.59,-136.35 159.2,-99.99 189.89,-130.04 262.59,-100.35 263.61,-99.93 264.63,-99.47 265.65,-98.99"/>
<polygon fill="red" stroke="red" stroke-width="0.23" points="267.21,-102.12 274.22,-94.18 263.79,-96.02 267.21,-102.12"/>
</g>
<!-- &#45;9&#45;&gt;29 -->
<g id="edge77" class="edge">
<title>&#45;9&#45;&gt;29</title>
<path fill="none" stroke="red" stroke-width="0.25" d="M76.04,-147.5C79.77,-143.61 84.55,-139.26 89.59,-136.35 137.79,-108.46 159,-123.6 209.59,-100.35 210.59,-99.89 211.6,-99.39 212.6,-98.88"/>
<polygon fill="red" stroke="red" stroke-width="0.25" points="214.19,-102 221.09,-93.96 210.68,-95.94 214.19,-102"/>
</g>
<!-- &#45;9&#45;&gt;30 -->
<g id="edge78" class="edge">
<title>&#45;9&#45;&gt;30</title>
<path fill="none" stroke="green" stroke-width="0.12" d="M75.45,-147.48C79.17,-143.39 84.12,-138.87 89.59,-136.35 224.33,-74.1 281.63,-149.73 421.59,-100.35 422.63,-99.98 423.66,-99.57 424.7,-99.11"/>
<polygon fill="green" stroke="green" stroke-width="0.12" points="426.34,-102.2 433.48,-94.37 423.01,-96.04 426.34,-102.2"/>
</g>
<!-- &#45;9&#45;&gt;31 -->
<g id="edge79" class="edge">
<title>&#45;9&#45;&gt;31</title>
<path fill="none" stroke="green" stroke-width="0.17" d="M75.06,-147.86C78.82,-143.65 83.92,-138.91 89.59,-136.35 246.13,-65.43 312.11,-156.33 474.59,-100.35 475.63,-99.99 476.67,-99.58 477.7,-99.13"/>
<polygon fill="green" stroke="green" stroke-width="0.17" points="479.26,-102.27 486.41,-94.45 475.95,-96.1 479.26,-102.27"/>
</g>
<!-- &#45;10 -->
<g id="node10" class="node">
<title>&#45;10</title>
<polygon fill="lightgray" stroke="black" points="126.59,-166.46 98.59,-166.46 98.59,-147.96 126.59,-147.96 126.59,-166.46"/>
<text xml:space="preserve" text-anchor="middle" x="112.59" y="-153.91" font-family="Times,serif" font-size="9.00">&#45;10</text>
</g>
<!-- &#45;10&#45;&gt;32 -->
<g id="edge89" class="edge">
<title>&#45;10&#45;&gt;32</title>
<path fill="none" stroke="green" stroke-width="0.35" d="M114.61,-147.6C116.76,-138.42 120.27,-123.42 123.36,-110.26"/>
<polygon fill="green" stroke="green" stroke-width="0.35" points="126.71,-111.29 125.59,-100.76 119.9,-109.69 126.71,-111.29"/>
</g>
<!-- &#45;10&#45;&gt;33 -->
<g id="edge90" class="edge">
<title>&#45;10&#45;&gt;33</title>
<path fill="none" stroke="green" stroke-width="0.15" d="M120.9,-147.6C131.38,-136.73 149.74,-117.71 163.71,-103.24"/>
<polygon fill="green" stroke="green" stroke-width="0.15" points="165.96,-105.94 170.39,-96.31 160.93,-101.08 165.96,-105.94"/>
</g>
<!-- &#45;10&#45;&gt;24 -->
<g id="edge82" class="edge">
<title>&#45;10&#45;&gt;24</title>
<path fill="none" stroke="green" stroke-width="0.17" d="M120.35,-147.7C124.49,-143.67 129.9,-139.13 135.59,-136.35 208.88,-100.51 239.94,-130.9 315.59,-100.35 316.61,-99.93 317.63,-99.48 318.65,-99"/>
<polygon fill="green" stroke="green" stroke-width="0.17" points="320.29,-102.09 327.31,-94.15 316.87,-95.98 320.29,-102.09"/>
</g>
<!-- &#45;10&#45;&gt;26 -->
<g id="edge83" class="edge">
<title>&#45;10&#45;&gt;26</title>
<path fill="none" stroke="red" stroke-width="0.22" d="M120.3,-147.59C124.43,-143.53 129.84,-139 135.59,-136.35 230.71,-92.4 270.59,-137.44 368.59,-100.35 369.62,-99.96 370.65,-99.52 371.67,-99.06"/>
<polygon fill="red" stroke="red" stroke-width="0.22" points="373.22,-102.2 380.3,-94.31 369.85,-96.06 373.22,-102.2"/>
</g>
<!-- &#45;10&#45;&gt;27 -->
<g id="edge84" class="edge">
<title>&#45;10&#45;&gt;27</title>
<path fill="none" stroke="red" stroke-width="0.55" d="M119.83,-147.85C123.99,-143.65 129.57,-138.91 135.59,-136.35 296.6,-67.91 362.13,-157.2 527.59,-100.35 528.5,-100.03 529.41,-99.68 530.32,-99.3"/>
<polygon fill="red" stroke="red" stroke-width="0.55" points="531.74,-102.51 538.92,-94.72 528.45,-96.33 531.74,-102.51"/>
</g>
<!-- &#45;10&#45;&gt;28 -->
<g id="edge85" class="edge">
<title>&#45;10&#45;&gt;28</title>
<path fill="none" stroke="green" stroke-width="0.6" d="M120.87,-147.49C124.98,-143.6 130.2,-139.25 135.59,-136.35 187.24,-108.52 209.1,-124.44 262.59,-100.35 263.47,-99.95 264.35,-99.53 265.23,-99.09"/>
<polygon fill="green" stroke="green" stroke-width="0.6" points="266.72,-102.27 273.66,-94.26 263.24,-96.19 266.72,-102.27"/>
</g>
<!-- &#45;10&#45;&gt;29 -->
<g id="edge86" class="edge">
<title>&#45;10&#45;&gt;29</title>
<path fill="none" stroke="red" stroke-width="0.23" d="M121.55,-147.51C125.64,-143.8 130.66,-139.6 135.59,-136.35 166.13,-116.23 177.7,-118.25 209.59,-100.35 210.55,-99.81 211.52,-99.25 212.5,-98.68"/>
<polygon fill="red" stroke="red" stroke-width="0.23" points="214.22,-101.73 220.9,-93.51 210.55,-95.77 214.22,-101.73"/>
</g>
<!-- &#45;10&#45;&gt;30 -->
<g id="edge87" class="edge">
<title>&#45;10&#45;&gt;30</title>
<path fill="none" stroke="green" stroke-width="0.49" d="M120.27,-147.53C124.39,-143.45 129.81,-138.92 135.59,-136.35 252.64,-84.25 301.15,-144.01 421.59,-100.35 422.5,-100.02 423.4,-99.66 424.3,-99.26"/>
<polygon fill="green" stroke="green" stroke-width="0.49" points="425.83,-102.42 432.96,-94.58 422.5,-96.26 425.83,-102.42"/>
</g>
<!-- &#45;10&#45;&gt;31 -->
<g id="edge88" class="edge">
<title>&#45;10&#45;&gt;31</title>
<path fill="none" stroke="green" stroke-width="0.72" d="M120.25,-147.48C124.37,-143.39 129.78,-138.86 135.59,-136.35 274.61,-76.09 331.65,-150.6 474.59,-100.35 475.37,-100.07 476.15,-99.77 476.92,-99.45"/>
<polygon fill="green" stroke="green" stroke-width="0.72" points="478.48,-102.58 485.67,-94.8 475.2,-96.4 478.48,-102.58"/>
</g>
<!-- &#45;11 -->
<g id="node11" class="node">
<title>&#45;11</title>
<polygon fill="lightgray" stroke="black" points="172.59,-166.46 144.59,-166.46 144.59,-147.96 172.59,-147.96 172.59,-166.46"/>
<text xml:space="preserve" text-anchor="middle" x="158.59" y="-153.91" font-family="Times,serif" font-size="9.00">&#45;11</text>
</g>
<!-- &#45;11&#45;&gt;32 -->
<g id="edge98" class="edge">
<title>&#45;11&#45;&gt;32</title>
<path fill="none" stroke="red" stroke-width="0.13" d="M155.15,-147.6C151.36,-138.12 145.09,-122.42 139.7,-108.96"/>
<polygon fill="red" stroke="red" stroke-width="0.13" points="143.02,-107.84 136.06,-99.86 136.52,-110.44 143.02,-107.84"/>
</g>
<!-- &#45;11&#45;&gt;33 -->
<g id="edge99" class="edge">
<title>&#45;11&#45;&gt;33</title>
<path fill="none" stroke="green" stroke-width="0.42" d="M161.44,-147.6C164.49,-138.36 169.5,-123.23 173.88,-110"/>
<polygon fill="green" stroke="green" stroke-width="0.42" points="177.18,-111.16 177,-100.56 170.54,-108.96 177.18,-111.16"/>
</g>
<!-- &#45;11&#45;&gt;24 -->
<g id="edge91" class="edge">
<title>&#45;11&#45;&gt;24</title>
<path fill="none" stroke="green" stroke-width="0.36" d="M168.95,-147.55C174.02,-143.68 180.35,-139.32 186.59,-136.35 240.33,-110.75 261.27,-124.69 315.59,-100.35 316.59,-99.9 317.6,-99.41 318.61,-98.9"/>
<polygon fill="green" stroke="green" stroke-width="0.36" points="320.05,-102.11 326.97,-94.09 316.56,-96.04 320.05,-102.11"/>
</g>
<!-- &#45;11&#45;&gt;26 -->
<g id="edge92" class="edge">
<title>&#45;11&#45;&gt;26</title>
<path fill="none" stroke="green" stroke-width="0.18" d="M173.04,-151.15C185.34,-146.93 203.52,-140.9 219.59,-136.35 285.14,-117.79 305.94,-127.11 368.59,-100.35 369.6,-99.91 370.62,-99.45 371.63,-98.95"/>
<polygon fill="green" stroke="green" stroke-width="0.18" points="373.28,-102.03 380.25,-94.05 369.82,-95.95 373.28,-102.03"/>
</g>
<!-- &#45;11&#45;&gt;27 -->
<g id="edge93" class="edge">
<title>&#45;11&#45;&gt;27</title>
<path fill="none" stroke="red" stroke-width="0.19" d="M172.91,-150.65C185.13,-146.12 203.27,-139.92 219.59,-136.35 354.22,-106.87 397.81,-146.74 527.59,-100.35 528.63,-99.98 529.66,-99.56 530.69,-99.1"/>
<polygon fill="red" stroke="red" stroke-width="0.19" points="532.24,-102.24 539.36,-94.4 528.91,-96.09 532.24,-102.24"/>
</g>
<!-- &#45;11&#45;&gt;28 -->
<g id="edge94" class="edge">
<title>&#45;11&#45;&gt;28</title>
<path fill="none" stroke="red" stroke-width="0.45" d="M169.73,-147.63C174.75,-143.94 180.83,-139.72 186.59,-136.35 218.85,-117.46 229.91,-118.47 262.59,-100.35 263.43,-99.88 264.28,-99.4 265.14,-98.9"/>
<polygon fill="red" stroke="red" stroke-width="0.45" points="266.92,-101.91 273.63,-93.71 263.27,-95.94 266.92,-101.91"/>
</g>
<!-- &#45;11&#45;&gt;29 -->
<g id="edge95" class="edge">
<title>&#45;11&#45;&gt;29</title>
<path fill="none" stroke="green" stroke-width="0.21" d="M167.73,-147.6C179.5,-136.51 200.3,-116.91 215.78,-102.33"/>
<polygon fill="green" stroke="green" stroke-width="0.21" points="217.78,-105.26 222.66,-95.85 212.98,-100.16 217.78,-105.26"/>
</g>
<!-- &#45;11&#45;&gt;30 -->
<g id="edge96" class="edge">
<title>&#45;11&#45;&gt;30</title>
<path fill="none" stroke="green" stroke-width="0.32" d="M172.97,-150.9C185.23,-146.53 203.39,-140.41 219.59,-136.35 308.05,-114.18 336.68,-133.61 421.59,-100.35 422.61,-99.95 423.64,-99.5 424.66,-99.03"/>
<polygon fill="green" stroke="green" stroke-width="0.32" points="426.1,-102.23 433.14,-94.32 422.7,-96.11 426.1,-102.23"/>
</g>
<!-- &#45;11&#45;&gt;31 -->
<g id="edge97" class="edge">
<title>&#45;11&#45;&gt;31</title>
<path fill="none" stroke="green" stroke-width="0.15" d="M172.93,-150.75C185.17,-146.29 203.32,-140.11 219.59,-136.35 331.1,-110.53 367.28,-140.16 474.59,-100.35 475.62,-99.96 476.65,-99.54 477.68,-99.07"/>
<polygon fill="green" stroke="green" stroke-width="0.15" points="479.3,-102.17 486.39,-94.3 475.94,-96.03 479.3,-102.17"/>
</g>
<!-- &#45;12 -->
<g id="node12" class="node">
<title>&#45;12</title>
<polygon fill="lightgray" stroke="black" points="256.59,-166.46 228.59,-166.46 228.59,-147.96 256.59,-147.96 256.59,-166.46"/>
<text xml:space="preserve" text-anchor="middle" x="242.59" y="-153.91" font-family="Times,serif" font-size="9.00">&#45;12</text>
</g>
<!-- &#45;12&#45;&gt;32 -->
<g id="edge107" class="edge">
<title>&#45;12&#45;&gt;32</title>
<path fill="none" stroke="red" stroke-width="0.5" d="M229.18,-147.6C210.48,-135.59 176.27,-113.63 153.23,-98.84"/>
<polygon fill="red" stroke="red" stroke-width="0.5" points="155.35,-96.05 145.05,-93.59 151.57,-101.94 155.35,-96.05"/>
</g>
<!-- &#45;12&#45;&gt;33 -->
<g id="edge108" class="edge">
<title>&#45;12&#45;&gt;33</title>
<path fill="none" stroke="green" stroke-width="0.33" d="M235.47,-147.6C226.81,-137.12 211.87,-119.06 200.07,-104.8"/>
<polygon fill="green" stroke="green" stroke-width="0.33" points="202.95,-102.79 193.88,-97.31 197.55,-107.25 202.95,-102.79"/>
</g>
<!-- &#45;12&#45;&gt;24 -->
<g id="edge100" class="edge">
<title>&#45;12&#45;&gt;24</title>
<path fill="none" stroke="green" stroke-width="0.24" d="M252.25,-147.47C256.29,-143.92 261.09,-139.84 265.59,-136.35 282.88,-122.95 303.3,-108.89 318.61,-98.67"/>
<polygon fill="green" stroke="green" stroke-width="0.24" points="320.27,-101.77 326.68,-93.33 316.41,-95.93 320.27,-101.77"/>
</g>
<!-- &#45;12&#45;&gt;26 -->
<g id="edge101" class="edge">
<title>&#45;12&#45;&gt;26</title>
<path fill="none" stroke="green" stroke-width="0.44" d="M250.95,-147.63C255.07,-143.77 260.29,-139.41 265.59,-136.35 307.57,-112.07 324.99,-121.58 368.59,-100.35 369.46,-99.93 370.33,-99.48 371.2,-99.02"/>
<polygon fill="green" stroke="green" stroke-width="0.44" points="372.93,-102.06 379.79,-93.98 369.39,-96.02 372.93,-102.06"/>
</g>
<!-- &#45;12&#45;&gt;27 -->
<g id="edge102" class="edge">
<title>&#45;12&#45;&gt;27</title>
<path fill="none" stroke="red" stroke-width="0.42" d="M250.28,-147.55C254.41,-143.48 259.82,-138.95 265.59,-136.35 372.7,-87.95 417.32,-141.03 527.59,-100.35 528.49,-100.01 529.4,-99.65 530.3,-99.25"/>
<polygon fill="red" stroke="red" stroke-width="0.42" points="531.92,-102.35 539.04,-94.5 528.58,-96.2 531.92,-102.35"/>
</g>
<!-- &#45;12&#45;&gt;28 -->
<g id="edge103" class="edge">
<title>&#45;12&#45;&gt;28</title>
<path fill="none" stroke="green" stroke-width="0.24" stroke-dasharray="1,5" d="M248.05,-147.6C254.37,-137.63 265.06,-120.78 273.87,-106.88"/>
<polygon fill="green" stroke="green" stroke-width="0.24" points="276.73,-108.91 279.13,-98.59 270.82,-105.16 276.73,-108.91"/>
</g>
<!-- &#45;12&#45;&gt;29 -->
<g id="edge104" class="edge">
<title>&#45;12&#45;&gt;29</title>
<path fill="none" stroke="green" stroke-width="0.11" d="M241.76,-147.6C240.88,-138.48 239.45,-123.61 238.18,-110.51"/>
<polygon fill="green" stroke="green" stroke-width="0.11" points="241.68,-110.3 237.23,-100.69 234.71,-110.98 241.68,-110.3"/>
</g>
<!-- &#45;12&#45;&gt;30 -->
<g id="edge105" class="edge">
<title>&#45;12&#45;&gt;30</title>
<path fill="none" stroke="red" stroke-width="0.29" d="M250.39,-147.77C254.54,-143.75 259.95,-139.21 265.59,-136.35 329.05,-104.15 356.01,-127.96 421.59,-100.35 422.6,-99.92 423.62,-99.45 424.64,-98.96"/>
<polygon fill="red" stroke="red" stroke-width="0.29" points="426.13,-102.13 433.11,-94.16 422.69,-96.04 426.13,-102.13"/>
</g>
<!-- &#45;12&#45;&gt;31 -->
<g id="edge106" class="edge">
<title>&#45;12&#45;&gt;31</title>
<path fill="none" stroke="red" stroke-width="0.25" d="M250.32,-147.64C254.46,-143.58 259.87,-139.05 265.59,-136.35 350.81,-96.08 386.73,-134.47 474.59,-100.35 475.62,-99.95 476.64,-99.51 477.67,-99.03"/>
<polygon fill="red" stroke="red" stroke-width="0.25" points="479.18,-102.19 486.23,-94.29 475.79,-96.07 479.18,-102.19"/>
</g>
<!-- &#45;13 -->
<g id="node13" class="node">
<title>&#45;13</title>
<polygon fill="lightgray" stroke="black" points="302.59,-166.46 274.59,-166.46 274.59,-147.96 302.59,-147.96 302.59,-166.46"/>
<text xml:space="preserve" text-anchor="middle" x="288.59" y="-153.91" font-family="Times,serif" font-size="9.00">&#45;13</text>
</g>
<!-- &#45;13&#45;&gt;32 -->
<g id="edge116" class="edge">
<title>&#45;13&#45;&gt;32</title>
<path fill="none" stroke="red" stroke-width="0.43" d="M280.26,-147.59C276.14,-143.72 270.92,-139.36 265.59,-136.35 220.8,-111.04 202.06,-122.41 155.59,-100.35 154.72,-99.93 153.85,-99.5 152.97,-99.04"/>
<polygon fill="red" stroke="red" stroke-width="0.43" points="154.76,-96.03 144.35,-94.02 151.23,-102.08 154.76,-96.03"/>
</g>
<!-- &#45;13&#45;&gt;33 -->
<g id="edge117" class="edge">
<title>&#45;13&#45;&gt;33</title>
<path fill="none" stroke="red" stroke-width="0.18" d="M279.45,-147.76C275.33,-144.11 270.34,-139.86 265.59,-136.35 241.52,-118.51 233.87,-116.44 208.59,-100.35 207.66,-99.76 206.72,-99.15 205.76,-98.54"/>
<polygon fill="red" stroke="red" stroke-width="0.18" points="207.69,-95.62 197.38,-93.18 203.92,-101.52 207.69,-95.62"/>
</g>
<!-- &#45;13&#45;&gt;24 -->
<g id="edge109" class="edge">
<title>&#45;13&#45;&gt;24</title>
<path fill="none" stroke="green" stroke-width="0.15" d="M294.88,-147.6C302.37,-137.34 315.17,-119.82 325.48,-105.71"/>
<polygon fill="green" stroke="green" stroke-width="0.15" points="328.31,-107.78 331.38,-97.64 322.65,-103.65 328.31,-107.78"/>
</g>
<!-- &#45;13&#45;&gt;26 -->
<g id="edge110" class="edge">
<title>&#45;13&#45;&gt;26</title>
<path fill="none" stroke="green" stroke-width="0.16" d="M297.73,-147.76C301.85,-144.11 306.84,-139.86 311.59,-136.35 335.66,-118.51 343.31,-116.44 368.59,-100.35 369.52,-99.76 370.46,-99.15 371.42,-98.54"/>
<polygon fill="green" stroke="green" stroke-width="0.16" points="373.28,-101.51 379.82,-93.17 369.51,-95.61 373.28,-101.51"/>
</g>
<!-- &#45;13&#45;&gt;27 -->
<g id="edge111" class="edge">
<title>&#45;13&#45;&gt;27</title>
<path fill="none" stroke="green" stroke-width="0.22" d="M296.31,-147.62C300.45,-143.57 305.86,-139.04 311.59,-136.35 399.7,-95.01 436.77,-135.34 527.59,-100.35 528.62,-99.95 529.64,-99.51 530.67,-99.04"/>
<polygon fill="green" stroke="green" stroke-width="0.22" points="532.22,-102.18 539.28,-94.28 528.83,-96.06 532.22,-102.18"/>
</g>
<!-- &#45;13&#45;&gt;28 -->
<g id="edge112" class="edge">
<title>&#45;13&#45;&gt;28</title>
<path fill="none" stroke="red" stroke-width="0.35" d="M288.59,-147.6C288.59,-138.63 288.59,-124.1 288.59,-111.15"/>
<polygon fill="red" stroke="red" stroke-width="0.35" points="292.09,-111.34 288.59,-101.34 285.09,-111.34 292.09,-111.34"/>
</g>
<!-- &#45;13&#45;&gt;29 -->
<g id="edge113" class="edge">
<title>&#45;13&#45;&gt;29</title>
<path fill="none" stroke="green" stroke-width="0.35" d="M282.3,-147.6C274.81,-137.34 262.01,-119.82 251.7,-105.71"/>
<polygon fill="green" stroke="green" stroke-width="0.35" points="254.71,-103.9 245.98,-97.89 249.05,-108.03 254.71,-103.9"/>
</g>
<!-- &#45;13&#45;&gt;30 -->
<g id="edge114" class="edge">
<title>&#45;13&#45;&gt;30</title>
<path fill="none" stroke="red" stroke-width="0.14" d="M296.92,-147.59C301.04,-143.72 306.26,-139.36 311.59,-136.35 356.38,-111.04 375.12,-122.41 421.59,-100.35 422.58,-99.88 423.58,-99.37 424.59,-98.85"/>
<polygon fill="red" stroke="red" stroke-width="0.14" points="426.34,-101.87 433.2,-93.8 422.81,-95.83 426.34,-101.87"/>
</g>
<!-- &#45;13&#45;&gt;31 -->
<g id="edge115" class="edge">
<title>&#45;13&#45;&gt;31</title>
<path fill="none" stroke="green" stroke-width="0.1" d="M296.38,-147.75C300.52,-143.73 305.93,-139.18 311.59,-136.35 377.91,-103.09 406.08,-128.82 474.59,-100.35 475.73,-99.87 476.88,-99.35 478.02,-98.79"/>
<polygon fill="green" stroke="green" stroke-width="0.1" points="479.4,-102.03 486.38,-94.05 475.95,-95.94 479.4,-102.03"/>
</g>
<!-- 0 -->
<g id="node14" class="node">
<title>0</title>
<ellipse fill="lightblue" stroke="black" cx="364.59" cy="-14.5" rx="14.5" ry="14.5"/>
<text xml:space="preserve" text-anchor="middle" x="364.59" y="-11.2" font-family="Times,serif" font-size="9.00">0</text>
</g>
<!-- 1 -->
<g id="node15" class="node">
<title>1</title>
<ellipse fill="lightblue" stroke="black" cx="411.59" cy="-14.5" rx="14.5" ry="14.5"/>
<text xml:space="preserve" text-anchor="middle" x="411.59" y="-11.2" font-family="Times,serif" font-size="9.00">1</text>
</g>
<!-- 2 -->
<g id="node16" class="node">
<title>2</title>
<ellipse fill="lightblue" stroke="black" cx="270.59" cy="-14.5" rx="14.5" ry="14.5"/>
<text xml:space="preserve" text-anchor="middle" x="270.59" y="-11.2" font-family="Times,serif" font-size="9.00">2</text>
</g>
<!-- 3 -->
<g id="node17" class="node">
<title>3</title>
<ellipse fill="lightblue" stroke="black" cx="317.59" cy="-14.5" rx="14.5" ry="14.5"/>
<text xml:space="preserve" text-anchor="middle" x="317.59" y="-11.2" font-family="Times,serif" font-size="9.00">3</text>
</g>
<!-- 32&#45;&gt;0 -->
<g id="edge146" class="edge">
<title>32&#45;&gt;0</title>
<path fill="none" stroke="green" stroke-width="0.21" d="M143.64,-71.3C147.37,-68.93 151.51,-66.63 155.59,-64.99 233.34,-33.82 261.97,-57.89 340.59,-28.99 341.62,-28.61 342.66,-28.19 343.7,-27.74"/>
<polygon fill="green" stroke="green" stroke-width="0.21" points="345.13,-30.94 352.46,-23.29 341.96,-24.7 345.13,-30.94"/>
</g>
<!-- 32&#45;&gt;1 -->
<g id="edge147" class="edge">
<title>32&#45;&gt;1</title>
<path fill="none" stroke="green" stroke-width="0.12" d="M143.6,-71.19C147.33,-68.82 151.48,-66.55 155.59,-64.99 253.17,-28.02 288.98,-63.11 387.59,-28.99 388.63,-28.63 389.68,-28.23 390.72,-27.79"/>
<polygon fill="green" stroke="green" stroke-width="0.12" points="392.25,-30.94 399.62,-23.33 389.11,-24.68 392.25,-30.94"/>
</g>
<!-- 32&#45;&gt;2 -->
<g id="edge148" class="edge">
<title>32&#45;&gt;2</title>
<path fill="none" stroke="red" stroke-width="0.11" d="M143.91,-71.89C147.64,-69.51 151.71,-67.05 155.59,-64.99 186.52,-48.56 224.08,-33.2 247.67,-24.08"/>
<polygon fill="red" stroke="red" stroke-width="0.11" points="248.9,-27.35 257,-20.51 246.41,-20.81 248.9,-27.35"/>
</g>
<!-- 32&#45;&gt;3 -->
<g id="edge149" class="edge">
<title>32&#45;&gt;3</title>
<path fill="none" stroke="green" stroke-width="0.2" d="M143.71,-71.47C147.45,-69.1 151.56,-66.76 155.59,-64.99 213.65,-39.56 234.81,-52.72 293.59,-28.99 294.61,-28.58 295.64,-28.13 296.67,-27.66"/>
<polygon fill="green" stroke="green" stroke-width="0.2" points="298.15,-30.84 305.42,-23.13 294.93,-24.62 298.15,-30.84"/>
</g>
<!-- 33&#45;&gt;0 -->
<g id="edge150" class="edge">
<title>33&#45;&gt;0</title>
<path fill="none" stroke="red" stroke-width="0.14" d="M196.73,-71.5C200.46,-69.13 204.57,-66.78 208.59,-64.99 264.16,-40.29 284.33,-52.07 340.59,-28.99 341.61,-28.57 342.64,-28.12 343.67,-27.65"/>
<polygon fill="red" stroke="red" stroke-width="0.14" points="345.23,-30.78 352.48,-23.06 341.99,-24.57 345.23,-30.78"/>
</g>
<!-- 33&#45;&gt;1 -->
<g id="edge151" class="edge">
<title>33&#45;&gt;1</title>
<path fill="none" stroke="red" stroke-width="0.24" d="M196.65,-71.31C200.38,-68.94 204.51,-66.64 208.59,-64.99 283.82,-34.56 311.51,-57.23 387.59,-28.99 388.62,-28.61 389.66,-28.19 390.7,-27.73"/>
<polygon fill="red" stroke="red" stroke-width="0.24" points="392.09,-30.96 399.41,-23.3 388.91,-24.72 392.09,-30.96"/>
</g>
<!-- 33&#45;&gt;2 -->
<g id="edge152" class="edge">
<title>33&#45;&gt;2</title>
<path fill="none" stroke="red" stroke-width="0.25" d="M196.34,-71.33C211.08,-60.25 234.59,-42.57 251.2,-30.08"/>
<polygon fill="red" stroke="red" stroke-width="0.25" points="252.98,-33.11 258.87,-24.31 248.78,-27.52 252.98,-33.11"/>
</g>
<!-- 33&#45;&gt;3 -->
<g id="edge153" class="edge">
<title>33&#45;&gt;3</title>
<path fill="none" stroke="green" stroke-width="0.52" d="M196.91,-71.87C200.64,-69.49 204.7,-67.04 208.59,-64.99 244.88,-45.85 256.76,-47.07 293.59,-28.99 294.45,-28.57 295.33,-28.13 296.21,-27.67"/>
<polygon fill="green" stroke="green" stroke-width="0.52" points="297.71,-30.84 304.83,-23 294.37,-24.69 297.71,-30.84"/>
</g>
<!-- 541&#45;&gt;27 -->
<g id="edge155" class="edge">
<title>541&#45;&gt;27</title>
<path fill="none" stroke="red" stroke-width="0.49" d="M770.23,-145.19C764.74,-142.02 758.54,-138.78 752.59,-136.35 693.74,-112.33 620.6,-96.26 581.44,-88.68"/>
<polygon fill="red" stroke="red" stroke-width="0.49" points="582.32,-85.29 571.84,-86.87 581.02,-92.17 582.32,-85.29"/>
</g>
<!-- 24&#45;&gt;0 -->
<g id="edge118" class="edge">
<title>24&#45;&gt;0</title>
<path fill="none" stroke="green" stroke-width="0.14" d="M347.16,-65.65C350.02,-57.42 353.55,-47.26 356.69,-38.24"/>
<polygon fill="green" stroke="green" stroke-width="0.14" points="359.96,-39.49 359.93,-28.89 353.34,-37.19 359.96,-39.49"/>
</g>
<!-- 24&#45;&gt;1 -->
<g id="edge119" class="edge">
<title>24&#45;&gt;1</title>
<path fill="none" stroke="red" stroke-width="0.32" d="M354.11,-69.84C365.2,-59.35 381.53,-43.91 393.95,-32.17"/>
<polygon fill="red" stroke="red" stroke-width="0.32" points="396.24,-34.82 401.11,-25.41 391.44,-29.73 396.24,-34.82"/>
</g>
<!-- 24&#45;&gt;2 -->
<g id="edge120" class="edge">
<title>24&#45;&gt;2</title>
<path fill="none" stroke="red" stroke-width="0.19" d="M328.9,-69.84C317.53,-59.25 300.77,-43.62 288.12,-31.84"/>
<polygon fill="red" stroke="red" stroke-width="0.19" points="290.78,-29.53 281.08,-25.27 286.01,-34.65 290.78,-29.53"/>
</g>
<!-- 24&#45;&gt;3 -->
<g id="edge121" class="edge">
<title>24&#45;&gt;3</title>
<path fill="none" stroke="green" stroke-width="0.12" d="M335.78,-65.65C332.8,-57.42 329.11,-47.26 325.84,-38.24"/>
<polygon fill="green" stroke="green" stroke-width="0.12" points="329.14,-37.07 322.44,-28.86 322.56,-39.46 329.14,-37.07"/>
</g>
<!-- 26&#45;&gt;0 -->
<g id="edge122" class="edge">
<title>26&#45;&gt;0</title>
<path fill="none" stroke="green" stroke-width="0.2" d="M387.48,-65.99C383.57,-57.36 378.66,-46.54 374.39,-37.12"/>
<polygon fill="green" stroke="green" stroke-width="0.2" points="377.69,-35.91 370.37,-28.25 371.32,-38.81 377.69,-35.91"/>
</g>
<!-- 26&#45;&gt;1 -->
<g id="edge123" class="edge">
<title>26&#45;&gt;1</title>
<path fill="none" stroke="red" stroke-width="0.24" d="M398.79,-65.31C400.83,-57.37 403.32,-47.67 405.56,-38.96"/>
<polygon fill="red" stroke="red" stroke-width="0.24" points="408.93,-39.9 408.03,-29.35 402.15,-38.16 408.93,-39.9"/>
</g>
<!-- 26&#45;&gt;2 -->
<g id="edge124" class="edge">
<title>26&#45;&gt;2</title>
<path fill="none" stroke="green" stroke-width="0.2" d="M380.2,-72.01C376.47,-69.63 372.43,-67.14 368.59,-64.99 336.7,-47.09 326.99,-45.96 294.59,-28.99 293.62,-28.48 292.62,-27.95 291.62,-27.42"/>
<polygon fill="green" stroke="green" stroke-width="0.2" points="293.44,-24.42 282.99,-22.65 290.05,-30.55 293.44,-24.42"/>
</g>
<!-- 26&#45;&gt;3 -->
<g id="edge125" class="edge">
<title>26&#45;&gt;3</title>
<path fill="none" stroke="red" stroke-width="0.55" d="M381.53,-70.44C369.02,-59.69 350.03,-43.37 335.99,-31.31"/>
<polygon fill="red" stroke="red" stroke-width="0.55" points="338.49,-28.84 328.62,-24.98 333.93,-34.15 338.49,-28.84"/>
</g>
<!-- 27&#45;&gt;0 -->
<g id="edge126" class="edge">
<title>27&#45;&gt;0</title>
<path fill="none" stroke="green" stroke-width="0.13" d="M539.47,-71.47C535.74,-69.1 531.62,-66.75 527.59,-64.99 469.11,-39.44 447.79,-52.83 388.59,-28.99 387.57,-28.58 386.54,-28.13 385.51,-27.66"/>
<polygon fill="green" stroke="green" stroke-width="0.13" points="387.16,-24.58 376.68,-23.08 383.94,-30.79 387.16,-24.58"/>
</g>
<!-- 27&#45;&gt;1 -->
<g id="edge127" class="edge">
<title>27&#45;&gt;1</title>
<path fill="none" stroke="red" stroke-width="0.35" d="M539.27,-71.88C535.54,-69.5 531.48,-67.05 527.59,-64.99 496.4,-48.48 458.51,-33.15 434.72,-24.05"/>
<polygon fill="red" stroke="red" stroke-width="0.35" points="436.23,-20.88 425.64,-20.62 433.76,-27.43 436.23,-20.88"/>
</g>
<!-- 27&#45;&gt;2 -->
<g id="edge128" class="edge">
<title>27&#45;&gt;2</title>
<path fill="none" stroke="red" stroke-width="0.22" d="M539.58,-71.19C535.85,-68.82 531.7,-66.55 527.59,-64.99 429.59,-27.9 393.63,-63.22 294.59,-28.99 293.55,-28.63 292.51,-28.23 291.46,-27.79"/>
<polygon fill="red" stroke="red" stroke-width="0.22" points="293.2,-24.75 282.7,-23.39 290.07,-31.01 293.2,-24.75"/>
</g>
<!-- 27&#45;&gt;3 -->
<g id="edge129" class="edge">
<title>27&#45;&gt;3</title>
<path fill="none" stroke="green" stroke-width="0.43" d="M539.54,-71.29C535.81,-68.92 531.67,-66.63 527.59,-64.99 449.42,-33.7 420.64,-58 341.59,-28.99 340.69,-28.66 339.78,-28.3 338.87,-27.91"/>
<polygon fill="green" stroke="green" stroke-width="0.43" points="340.52,-24.82 330.02,-23.44 337.37,-31.07 340.52,-24.82"/>
</g>
<!-- 28&#45;&gt;0 -->
<g id="edge130" class="edge">
<title>28&#45;&gt;0</title>
<path fill="none" stroke="red" stroke-width="0.23" d="M301.48,-70.44C313.8,-59.72 332.5,-43.44 346.34,-31.38"/>
<polygon fill="red" stroke="red" stroke-width="0.23" points="348.35,-34.28 353.59,-25.07 343.75,-29 348.35,-34.28"/>
</g>
<!-- 28&#45;&gt;1 -->
<g id="edge131" class="edge">
<title>28&#45;&gt;1</title>
<path fill="none" stroke="green" stroke-width="0.21" d="M302.99,-72.03C306.72,-69.64 310.76,-67.15 314.59,-64.99 346.09,-47.2 355.59,-45.86 387.59,-28.99 388.56,-28.48 389.55,-27.95 390.55,-27.41"/>
<polygon fill="green" stroke="green" stroke-width="0.21" points="392.12,-30.55 399.17,-22.64 388.73,-24.42 392.12,-30.55"/>
</g>
<!-- 28&#45;&gt;2 -->
<g id="edge132" class="edge">
<title>28&#45;&gt;2</title>
<path fill="none" stroke="green" stroke-width="0.19" d="M284.14,-65.31C281.96,-57.28 279.29,-47.46 276.89,-38.67"/>
<polygon fill="green" stroke="green" stroke-width="0.19" points="280.34,-38 274.34,-29.27 273.59,-39.84 280.34,-38"/>
</g>
<!-- 28&#45;&gt;3 -->
<g id="edge133" class="edge">
<title>28&#45;&gt;3</title>
<path fill="none" stroke="red" stroke-width="0.35" d="M295.46,-65.99C299.2,-57.45 303.89,-46.76 307.98,-37.42"/>
<polygon fill="red" stroke="red" stroke-width="0.35" points="311.1,-39.03 311.91,-28.46 304.69,-36.22 311.1,-39.03"/>
</g>
<!-- 29&#45;&gt;0 -->
<g id="edge134" class="edge">
<title>29&#45;&gt;0</title>
<path fill="none" stroke="red" stroke-width="0.13" d="M249.95,-71.94C253.67,-69.56 257.73,-67.1 261.59,-64.99 295.47,-46.53 306.19,-46.46 340.59,-28.99 341.57,-28.49 342.57,-27.98 343.57,-27.45"/>
<polygon fill="red" stroke="red" stroke-width="0.13" points="345.22,-30.53 352.31,-22.66 341.86,-24.4 345.22,-30.53"/>
</g>
<!-- 29&#45;&gt;1 -->
<g id="edge135" class="edge">
<title>29&#45;&gt;1</title>
<path fill="none" stroke="green" stroke-width="0.1" d="M249.74,-71.54C253.48,-69.16 257.58,-66.8 261.59,-64.99 314.67,-41.01 333.84,-51.42 387.59,-28.99 388.61,-28.57 389.63,-28.11 390.66,-27.63"/>
<polygon fill="green" stroke="green" stroke-width="0.1" points="392.28,-30.73 399.52,-23 389.04,-24.53 392.28,-30.73"/>
</g>
<!-- 29&#45;&gt;2 -->
<g id="edge136" class="edge">
<title>29&#45;&gt;2</title>
<path fill="none" stroke="green" stroke-width="0.19" d="M243.53,-66.65C248.19,-57.84 254.15,-46.57 259.3,-36.85"/>
<polygon fill="green" stroke="green" stroke-width="0.19" points="262.37,-38.53 263.95,-28.05 256.18,-35.25 262.37,-38.53"/>
</g>
<!-- 29&#45;&gt;3 -->
<g id="edge137" class="edge">
<title>29&#45;&gt;3</title>
<path fill="none" stroke="green" stroke-width="0.44" d="M249.13,-70.74C262.67,-59.82 283.6,-42.93 298.75,-30.7"/>
<polygon fill="green" stroke="green" stroke-width="0.44" points="300.8,-33.54 306.38,-24.54 296.4,-28.1 300.8,-33.54"/>
</g>
<!-- 30&#45;&gt;0 -->
<g id="edge138" class="edge">
<title>30&#45;&gt;0</title>
<path fill="none" stroke="green" stroke-width="0.2" d="M433.88,-70.74C420.13,-59.78 398.84,-42.8 383.49,-30.56"/>
<polygon fill="green" stroke="green" stroke-width="0.2" points="385.89,-28 375.89,-24.5 381.53,-33.48 385.89,-28"/>
</g>
<!-- 30&#45;&gt;1 -->
<g id="edge139" class="edge">
<title>30&#45;&gt;1</title>
<path fill="none" stroke="green" stroke-width="0.14" d="M439.42,-66.65C434.58,-57.75 428.37,-46.34 423.04,-36.55"/>
<polygon fill="green" stroke="green" stroke-width="0.14" points="426.24,-35.09 418.38,-27.98 420.09,-38.44 426.24,-35.09"/>
</g>
<!-- 30&#45;&gt;2 -->
<g id="edge140" class="edge">
<title>30&#45;&gt;2</title>
<path fill="none" stroke="red" stroke-width="0.29" d="M433.44,-71.53C429.71,-69.16 425.6,-66.8 421.59,-64.99 368.1,-40.89 348.76,-51.53 294.59,-28.99 293.58,-28.57 292.55,-28.11 291.52,-27.63"/>
<polygon fill="red" stroke="red" stroke-width="0.29" points="293.39,-24.66 282.9,-23.14 290.15,-30.87 293.39,-24.66"/>
</g>
<!-- 30&#45;&gt;3 -->
<g id="edge141" class="edge">
<title>30&#45;&gt;3</title>
<path fill="none" stroke="red" stroke-width="0.32" d="M433.24,-71.93C429.51,-69.55 425.46,-67.09 421.59,-64.99 387.31,-46.42 376.4,-46.56 341.59,-28.99 340.61,-28.5 339.61,-27.98 338.61,-27.45"/>
<polygon fill="red" stroke="red" stroke-width="0.32" points="340.56,-24.53 330.11,-22.81 337.2,-30.68 340.56,-24.53"/>
</g>
<!-- 31&#45;&gt;0 -->
<g id="edge142" class="edge">
<title>31&#45;&gt;0</title>
<path fill="none" stroke="green" stroke-width="0.1" d="M486.28,-71.86C482.55,-69.48 478.48,-67.04 474.59,-64.99 437.9,-45.73 425.82,-47.18 388.59,-28.99 387.48,-28.45 386.35,-27.88 385.21,-27.29"/>
<polygon fill="green" stroke="green" stroke-width="0.1" points="387.25,-24.41 376.79,-22.71 383.9,-30.56 387.25,-24.41"/>
</g>
<!-- 31&#45;&gt;1 -->
<g id="edge143" class="edge">
<title>31&#45;&gt;1</title>
<path fill="none" stroke="green" stroke-width="0.39" d="M486.68,-71.33C471.7,-60.19 447.74,-42.37 430.92,-29.87"/>
<polygon fill="green" stroke="green" stroke-width="0.39" points="433.45,-27.39 423.34,-24.23 429.27,-33 433.45,-27.39"/>
</g>
<!-- 31&#45;&gt;2 -->
<g id="edge144" class="edge">
<title>31&#45;&gt;2</title>
<path fill="none" stroke="red" stroke-width="0.17" d="M486.54,-71.31C482.8,-68.94 478.67,-66.64 474.59,-64.99 398.94,-34.44 371.09,-57.34 294.59,-28.99 293.56,-28.61 292.52,-28.19 291.48,-27.73"/>
<polygon fill="red" stroke="red" stroke-width="0.17" points="293.17,-24.66 282.67,-23.25 289.99,-30.9 293.17,-24.66"/>
</g>
<!-- 31&#45;&gt;3 -->
<g id="edge145" class="edge">
<title>31&#45;&gt;3</title>
<path fill="none" stroke="red" stroke-width="0.21" d="M486.46,-71.5C482.72,-69.13 478.61,-66.77 474.59,-64.99 418.61,-40.17 398.27,-52.18 341.59,-28.99 340.57,-28.58 339.54,-28.12 338.52,-27.65"/>
<polygon fill="red" stroke="red" stroke-width="0.21" points="340.28,-24.62 329.79,-23.11 337.05,-30.83 340.28,-24.62"/>
</g>
</g>
</svg>
