<?xml version="1.0" encoding="UTF-8" standalone="no"?>
<!DOCTYPE svg PUBLIC "-//W3C//DTD SVG 1.1//EN"
 "http://www.w3.org/Graphics/SVG/1.1/DTD/svg11.dtd">
<!-- Generated by graphviz version 14.0.2 (0)
 -->
<!-- Pages: 1 -->
<svg width="1571pt" height="571pt"
 viewBox="0.00 0.00 1571.00 571.00" xmlns="http://www.w3.org/2000/svg" xmlns:xlink="http://www.w3.org/1999/xlink">
<g id="graph0" class="graph" transform="scale(1 1) rotate(0) translate(4 566.54)">
<polygon fill="white" stroke="none" points="-4,4 -4,-566.54 1567.08,-566.54 1567.08,4 -4,4"/>
<!-- &#45;1 -->
<g id="node1" class="node">
<title>&#45;1</title>
<polygon fill="lightgray" stroke="black" points="853.28,-409.16 829.78,-409.16 829.78,-390.66 853.28,-390.66 853.28,-409.16"/>
<text xml:space="preserve" text-anchor="middle" x="841.53" y="-396.61" font-family="Times,serif" font-size="9.00">&#45;1</text>
</g>
<!-- 354 -->
<g id="node24" class="node">
<title>354</title>
<ellipse fill="white" stroke="black" cx="648.53" cy="-319.01" rx="20.86" ry="20.86"/>
<text xml:space="preserve" text-anchor="middle" x="648.53" y="-315.71" font-family="Times,serif" font-size="9.00">354</text>
</g>
<!-- &#45;1&#45;&gt;354 -->
<g id="edge1" class="edge">
<title>&#45;1&#45;&gt;354</title>
<path fill="none" stroke="green" stroke-width="0.33" stroke-dasharray="1,5" d="M835.83,-390.53C832.04,-385.57 826.65,-379.56 820.53,-375.87 766.28,-343.09 741.11,-364.08 682.53,-339.87 679.96,-338.8 677.34,-337.57 674.76,-336.26"/>
<polygon fill="green" stroke="green" stroke-width="0.33" points="676.6,-333.28 666.15,-331.51 673.21,-339.4 676.6,-333.28"/>
</g>
<!-- 355 -->
<g id="node25" class="node">
<title>355</title>
<ellipse fill="white" stroke="black" cx="1189.53" cy="-319.01" rx="20.86" ry="20.86"/>
<text xml:space="preserve" text-anchor="middle" x="1189.53" y="-315.71" font-family="Times,serif" font-size="9.00">355</text>
</g>
<!-- &#45;1&#45;&gt;355 -->
<g id="edge2" class="edge">
<title>&#45;1&#45;&gt;355</title>
<path fill="none" stroke="green" stroke-width="0.37" d="M847.1,-390.29C850.84,-385.24 856.22,-379.22 862.53,-375.87 960.51,-323.83 1000.68,-361.26 1109.53,-339.87 1126.03,-336.63 1144.24,-332.18 1159.11,-328.31"/>
<polygon fill="green" stroke="green" stroke-width="0.37" points="1159.95,-331.71 1168.73,-325.77 1158.16,-324.94 1159.95,-331.71"/>
</g>
<!-- 356 -->
<g id="node26" class="node">
<title>356</title>
<ellipse fill="white" stroke="black" cx="550.53" cy="-319.01" rx="20.86" ry="20.86"/>
<text xml:space="preserve" text-anchor="middle" x="550.53" y="-315.71" font-family="Times,serif" font-size="9.00">356</text>
</g>
<!-- &#45;1&#45;&gt;356 -->
<g id="edge3" class="edge">
<title>&#45;1&#45;&gt;356</title>
<path fill="none" stroke="green" stroke-width="0.21" stroke-dasharray="1,5" d="M835.93,-390.36C832.18,-385.34 826.79,-379.32 820.53,-375.87 740.68,-331.83 707.32,-360.68 618.53,-339.87 605.85,-336.89 592.01,-332.98 580.15,-329.41"/>
<polygon fill="green" stroke="green" stroke-width="0.21" points="581.21,-326.08 570.62,-326.49 579.16,-332.77 581.21,-326.08"/>
</g>
<!-- 357 -->
<g id="node27" class="node">
<title>357</title>
<ellipse fill="white" stroke="black" cx="712.53" cy="-319.01" rx="20.86" ry="20.86"/>
<text xml:space="preserve" text-anchor="middle" x="712.53" y="-315.71" font-family="Times,serif" font-size="9.00">357</text>
</g>
<!-- &#45;1&#45;&gt;357 -->
<g id="edge4" class="edge">
<title>&#45;1&#45;&gt;357</title>
<path fill="none" stroke="red" stroke-width="0.18" d="M835.16,-390.55C831.28,-385.85 826.03,-380.09 820.53,-375.87 796.03,-357.06 764.25,-341.5 741.52,-331.62"/>
<polygon fill="red" stroke="red" stroke-width="0.18" points="742.89,-328.41 732.32,-327.72 740.16,-334.85 742.89,-328.41"/>
</g>
<!-- 358 -->
<g id="node28" class="node">
<title>358</title>
<ellipse fill="white" stroke="black" cx="1079.53" cy="-319.01" rx="20.86" ry="20.86"/>
<text xml:space="preserve" text-anchor="middle" x="1079.53" y="-315.71" font-family="Times,serif" font-size="9.00">358</text>
</g>
<!-- &#45;1&#45;&gt;358 -->
<g id="edge5" class="edge">
<title>&#45;1&#45;&gt;358</title>
<path fill="none" stroke="green" stroke-width="0.41" d="M847.2,-390.47C850.98,-385.49 856.37,-379.48 862.53,-375.87 923.56,-340.12 949.36,-358.67 1017.53,-339.87 1028.13,-336.95 1039.62,-333.38 1049.8,-330.08"/>
<polygon fill="green" stroke="green" stroke-width="0.41" points="1050.84,-333.42 1059.24,-326.97 1048.65,-326.77 1050.84,-333.42"/>
</g>
<!-- 360 -->
<g id="node30" class="node">
<title>360</title>
<ellipse fill="white" stroke="black" cx="490.53" cy="-319.01" rx="20.86" ry="20.86"/>
<text xml:space="preserve" text-anchor="middle" x="490.53" y="-315.71" font-family="Times,serif" font-size="9.00">360</text>
</g>
<!-- &#45;1&#45;&gt;360 -->
<g id="edge6" class="edge">
<title>&#45;1&#45;&gt;360</title>
<path fill="none" stroke="green" stroke-width="0.23" d="M836,-390.23C832.27,-385.16 826.89,-379.14 820.53,-375.87 701.15,-314.38 646.59,-386.18 520.53,-339.87 518.73,-339.21 516.93,-338.42 515.15,-337.54"/>
<polygon fill="green" stroke="green" stroke-width="0.23" points="517.32,-334.75 506.91,-332.79 513.82,-340.81 517.32,-334.75"/>
</g>
<!-- 362 -->
<g id="node31" class="node">
<title>362</title>
<ellipse fill="white" stroke="black" cx="987.53" cy="-319.01" rx="20.86" ry="20.86"/>
<text xml:space="preserve" text-anchor="middle" x="987.53" y="-315.71" font-family="Times,serif" font-size="9.00">362</text>
</g>
<!-- &#45;1&#45;&gt;362 -->
<g id="edge7" class="edge">
<title>&#45;1&#45;&gt;362</title>
<path fill="none" stroke="green" stroke-width="0.13" d="M847.82,-390.43C851.67,-385.69 856.92,-379.93 862.53,-375.87 892.25,-354.38 931.56,-338.5 958.09,-329.28"/>
<polygon fill="green" stroke="green" stroke-width="0.13" points="959.06,-332.65 967.41,-326.13 956.82,-326.02 959.06,-332.65"/>
</g>
<!-- 363 -->
<g id="node32" class="node">
<title>363</title>
<ellipse fill="white" stroke="black" cx="841.53" cy="-319.01" rx="20.86" ry="20.86"/>
<text xml:space="preserve" text-anchor="middle" x="841.53" y="-315.71" font-family="Times,serif" font-size="9.00">363</text>
</g>
<!-- &#45;1&#45;&gt;363 -->
<g id="edge8" class="edge">
<title>&#45;1&#45;&gt;363</title>
<path fill="none" stroke="green" stroke-width="0.6" stroke-dasharray="1,5" d="M841.53,-390.16C841.53,-380.73 841.53,-365.16 841.53,-351.09"/>
<polygon fill="green" stroke="green" stroke-width="0.6" points="845.03,-351.18 841.53,-341.18 838.03,-351.18 845.03,-351.18"/>
</g>
<!-- &#45;2 -->
<g id="node2" class="node">
<title>&#45;2</title>
<polygon fill="lightgray" stroke="black" points="601.28,-409.16 577.78,-409.16 577.78,-390.66 601.28,-390.66 601.28,-409.16"/>
<text xml:space="preserve" text-anchor="middle" x="589.53" y="-396.61" font-family="Times,serif" font-size="9.00">&#45;2</text>
</g>
<!-- &#45;2&#45;&gt;354 -->
<g id="edge9" class="edge">
<title>&#45;2&#45;&gt;354</title>
<path fill="none" stroke="green" stroke-width="0.22" stroke-dasharray="1,5" d="M596.07,-390.16C604.28,-379.2 618.68,-359.94 630.32,-344.37"/>
<polygon fill="green" stroke="green" stroke-width="0.22" points="633.05,-346.56 636.24,-336.45 627.45,-342.36 633.05,-346.56"/>
</g>
<!-- &#45;2&#45;&gt;356 -->
<g id="edge10" class="edge">
<title>&#45;2&#45;&gt;356</title>
<path fill="none" stroke="red" stroke-width="0.35" d="M585.21,-390.16C580.17,-379.96 571.58,-362.59 564.21,-347.68"/>
<polygon fill="red" stroke="red" stroke-width="0.35" points="567.4,-346.23 559.83,-338.82 561.13,-349.34 567.4,-346.23"/>
</g>
<!-- &#45;2&#45;&gt;357 -->
<g id="edge11" class="edge">
<title>&#45;2&#45;&gt;357</title>
<path fill="none" stroke="green" stroke-width="0.68" d="M595.93,-390.57C599.81,-385.87 605.06,-380.11 610.53,-375.87 637.56,-354.92 648.65,-356.5 678.53,-339.87 680.8,-338.61 683.15,-337.28 685.49,-335.94"/>
<polygon fill="green" stroke="green" stroke-width="0.68" points="687.18,-339.01 694.08,-330.97 683.67,-332.95 687.18,-339.01"/>
</g>
<!-- &#45;2&#45;&gt;358 -->
<g id="edge12" class="edge">
<title>&#45;2&#45;&gt;358</title>
<path fill="none" stroke="green" stroke-width="0.24" d="M595.04,-390.16C598.75,-385.07 604.13,-379.04 610.53,-375.87 691.89,-335.56 928.53,-357.83 1017.53,-339.87 1028.42,-337.67 1040.08,-334.24 1050.32,-330.84"/>
<polygon fill="green" stroke="green" stroke-width="0.24" points="1051.34,-334.19 1059.66,-327.62 1049.06,-327.57 1051.34,-334.19"/>
</g>
<!-- &#45;2&#45;&gt;360 -->
<g id="edge13" class="edge">
<title>&#45;2&#45;&gt;360</title>
<path fill="none" stroke="red" stroke-width="0.11" d="M578.56,-390.16C563.16,-377.89 534.75,-355.25 514.36,-339"/>
<polygon fill="red" stroke="red" stroke-width="0.11" points="516.59,-336.3 506.59,-332.8 512.22,-341.77 516.59,-336.3"/>
</g>
<!-- &#45;2&#45;&gt;362 -->
<g id="edge14" class="edge">
<title>&#45;2&#45;&gt;362</title>
<path fill="none" stroke="red" stroke-width="0.37" d="M595.09,-390.27C598.83,-385.22 604.21,-379.2 610.53,-375.87 714.16,-321.34 755.81,-357.75 871.53,-339.87 900.47,-335.4 933.36,-329.71 956.71,-325.57"/>
<polygon fill="red" stroke="red" stroke-width="0.37" points="957.25,-329.03 966.48,-323.83 956.02,-322.14 957.25,-329.03"/>
</g>
<!-- &#45;2&#45;&gt;363 -->
<g id="edge15" class="edge">
<title>&#45;2&#45;&gt;363</title>
<path fill="none" stroke="red" stroke-width="0.11" d="M595.22,-390.49C599,-385.52 604.39,-379.51 610.53,-375.87 627.83,-365.63 752.56,-338.63 811.21,-326.3"/>
<polygon fill="red" stroke="red" stroke-width="0.11" points="811.79,-329.76 820.86,-324.28 810.35,-322.91 811.79,-329.76"/>
</g>
<!-- &#45;3 -->
<g id="node3" class="node">
<title>&#45;3</title>
<polygon fill="lightgray" stroke="black" points="911.28,-493.24 887.78,-493.24 887.78,-474.74 911.28,-474.74 911.28,-493.24"/>
<text xml:space="preserve" text-anchor="middle" x="899.53" y="-480.69" font-family="Times,serif" font-size="9.00">&#45;3</text>
</g>
<!-- &#45;3&#45;&gt;354 -->
<g id="edge16" class="edge">
<title>&#45;3&#45;&gt;354</title>
<path fill="none" stroke="red" stroke-width="0.47" d="M887.52,-481.01C862.69,-476.92 803.94,-467.34 754.53,-459.95 697.5,-451.43 535.38,-467.47 497.53,-423.95 483.51,-407.83 485.32,-393.41 497.53,-375.87 504.72,-365.56 576.33,-342.16 618.3,-329.16"/>
<polygon fill="red" stroke="red" stroke-width="0.47" points="619.32,-332.51 627.85,-326.22 617.26,-325.82 619.32,-332.51"/>
</g>
<!-- &#45;3&#45;&gt;355 -->
<g id="edge17" class="edge">
<title>&#45;3&#45;&gt;355</title>
<path fill="none" stroke="red" stroke-width="0.44" d="M911.52,-483.1C970.54,-483.37 1229.48,-481.24 1278.53,-423.95 1292.43,-407.72 1288.88,-394.57 1278.53,-375.87 1266,-353.2 1239.98,-338.49 1219.3,-329.89"/>
<polygon fill="red" stroke="red" stroke-width="0.44" points="1220.57,-326.63 1209.98,-326.28 1218.04,-333.15 1220.57,-326.63"/>
</g>
<!-- &#45;3&#45;&gt;356 -->
<g id="edge18" class="edge">
<title>&#45;3&#45;&gt;356</title>
<path fill="none" stroke="green" stroke-width="0.48" d="M887.53,-480.88C862.74,-476.56 804.05,-466.56 754.53,-459.95 680.76,-450.11 471.26,-479.34 421.53,-423.95 407.26,-408.05 409.27,-393.37 421.53,-375.87 448.39,-337.52 478.72,-360.94 520.53,-339.87 521.93,-339.17 523.34,-338.41 524.74,-337.62"/>
<polygon fill="green" stroke="green" stroke-width="0.48" points="526.49,-340.65 533.2,-332.45 522.84,-334.68 526.49,-340.65"/>
</g>
<!-- &#45;3&#45;&gt;357 -->
<g id="edge19" class="edge">
<title>&#45;3&#45;&gt;357</title>
<path fill="none" stroke="red" stroke-width="0.15" d="M887.72,-482.82C856.29,-481.66 770.19,-473.86 728.53,-423.95 711.57,-403.62 708.69,-372.97 709.38,-350.21"/>
<polygon fill="red" stroke="red" stroke-width="0.15" points="712.87,-350.47 709.93,-340.29 705.88,-350.08 712.87,-350.47"/>
</g>
<!-- &#45;3&#45;&gt;358 -->
<g id="edge20" class="edge">
<title>&#45;3&#45;&gt;358</title>
<path fill="none" stroke="red" stroke-width="0.25" d="M911.56,-483.7C946.68,-485.04 1049.42,-483.5 1093.53,-423.95 1109.78,-402.03 1102.21,-370.17 1093.14,-347.5"/>
<polygon fill="red" stroke="red" stroke-width="0.25" points="1096.42,-346.26 1089.24,-338.46 1089.99,-349.03 1096.42,-346.26"/>
</g>
<!-- &#45;3&#45;&gt;360 -->
<g id="edge21" class="edge">
<title>&#45;3&#45;&gt;360</title>
<path fill="none" stroke="green" stroke-width="0.45" stroke-dasharray="1,5" d="M887.55,-480.77C862.78,-476.24 804.14,-465.88 754.53,-459.95 705.06,-454.04 341.32,-460.57 307.53,-423.95 293.04,-408.25 294.82,-393.04 307.53,-375.87 342.46,-328.69 416.36,-320.03 458.79,-319.19"/>
<polygon fill="green" stroke="green" stroke-width="0.45" points="458.7,-322.69 468.68,-319.13 458.66,-315.69 458.7,-322.69"/>
</g>
<!-- &#45;3&#45;&gt;363 -->
<g id="edge22" class="edge">
<title>&#45;3&#45;&gt;363</title>
<path fill="none" stroke="green" stroke-width="0.52" d="M907.26,-474.49C923.29,-455.76 957.11,-409.91 937.53,-375.87 923.51,-351.48 894.29,-336.75 871.75,-328.59"/>
<polygon fill="green" stroke="green" stroke-width="0.52" points="872.97,-325.3 862.38,-325.44 870.75,-331.94 872.97,-325.3"/>
</g>
<!-- 2814 -->
<g id="node33" class="node">
<title>2814</title>
<ellipse fill="white" stroke="black" cx="1245.53" cy="-399.91" rx="24.04" ry="24.04"/>
<text xml:space="preserve" text-anchor="middle" x="1245.53" y="-396.61" font-family="Times,serif" font-size="9.00">2814</text>
</g>
<!-- &#45;3&#45;&gt;2814 -->
<g id="edge128" class="edge">
<title>&#45;3&#45;&gt;2814</title>
<path fill="none" stroke="red" stroke-width="0.25" d="M911.7,-482.21C953.96,-479.18 1097.77,-466.18 1207.53,-423.95 1210.8,-422.69 1214.1,-421.16 1217.33,-419.48"/>
<polygon fill="red" stroke="red" stroke-width="0.25" points="1218.81,-422.67 1225.78,-414.69 1215.36,-416.58 1218.81,-422.67"/>
</g>
<!-- &#45;4 -->
<g id="node4" class="node">
<title>&#45;4</title>
<polygon fill="lightgray" stroke="black" points="561.28,-562.54 537.78,-562.54 537.78,-544.04 561.28,-544.04 561.28,-562.54"/>
<text xml:space="preserve" text-anchor="middle" x="549.53" y="-549.99" font-family="Times,serif" font-size="9.00">&#45;4</text>
</g>
<!-- 945 -->
<g id="node20" class="node">
<title>945</title>
<ellipse fill="white" stroke="black" cx="92.53" cy="-399.91" rx="20.86" ry="20.86"/>
<text xml:space="preserve" text-anchor="middle" x="92.53" y="-396.61" font-family="Times,serif" font-size="9.00">945</text>
</g>
<!-- &#45;4&#45;&gt;945 -->
<g id="edge112" class="edge">
<title>&#45;4&#45;&gt;945</title>
<path fill="none" stroke="green" stroke-width="0.16" stroke-dasharray="1,5" d="M537.52,-551.88C482.66,-549.85 255.89,-539.65 193.53,-508.04 173.93,-498.09 135.07,-453.14 111.68,-424.72"/>
<polygon fill="green" stroke="green" stroke-width="0.16" points="114.43,-422.56 105.4,-417.03 109.01,-426.99 114.43,-422.56"/>
</g>
<!-- 1503 -->
<g id="node23" class="node">
<title>1503</title>
<ellipse fill="white" stroke="black" cx="106.53" cy="-483.99" rx="24.04" ry="24.04"/>
<text xml:space="preserve" text-anchor="middle" x="106.53" y="-480.69" font-family="Times,serif" font-size="9.00">1503</text>
</g>
<!-- &#45;4&#45;&gt;1503 -->
<g id="edge117" class="edge">
<title>&#45;4&#45;&gt;1503</title>
<path fill="none" stroke="red" stroke-width="0.67" d="M537.42,-552.6C487.96,-553.53 297,-553.82 149.53,-508.04 145.08,-506.65 140.54,-504.79 136.18,-502.73"/>
<polygon fill="red" stroke="red" stroke-width="0.67" points="137.79,-499.63 127.3,-498.14 134.57,-505.84 137.79,-499.63"/>
</g>
<!-- &#45;4&#45;&gt;354 -->
<g id="edge23" class="edge">
<title>&#45;4&#45;&gt;354</title>
<path fill="none" stroke="red" stroke-width="0.16" d="M537.33,-552.04C466.29,-550.52 107.98,-541.22 73.53,-508.04 31.08,-467.14 22.33,-418.97 62.53,-375.87 101.89,-333.68 523.74,-350.01 580.53,-339.87 593.49,-337.55 607.5,-333.7 619.42,-330.01"/>
<polygon fill="red" stroke="red" stroke-width="0.16" points="620.18,-333.44 628.63,-327.05 618.04,-326.77 620.18,-333.44"/>
</g>
<!-- &#45;4&#45;&gt;355 -->
<g id="edge24" class="edge">
<title>&#45;4&#45;&gt;355</title>
<path fill="none" stroke="green" stroke-width="0.25" d="M561.68,-552.35C652.48,-552.77 1226.07,-553.54 1392.53,-508.04 1470.4,-486.75 1511.7,-492.99 1553.53,-423.95 1564.61,-405.67 1567.45,-392.09 1553.53,-375.87 1510.6,-325.84 1300.59,-320.16 1220.58,-319.85"/>
<polygon fill="green" stroke="green" stroke-width="0.25" points="1220.99,-316.35 1210.99,-319.84 1220.98,-323.35 1220.99,-316.35"/>
</g>
<!-- &#45;4&#45;&gt;356 -->
<g id="edge25" class="edge">
<title>&#45;4&#45;&gt;356</title>
<path fill="none" stroke="red" stroke-width="0.14" stroke-dasharray="1,5" d="M537.34,-547.68C488.1,-528.44 309.47,-451.93 369.53,-375.87 412.29,-321.72 457.24,-367.33 520.53,-339.87 522.11,-339.18 523.69,-338.42 525.26,-337.6"/>
<polygon fill="red" stroke="red" stroke-width="0.14" points="526.98,-340.65 533.81,-332.55 523.42,-334.62 526.98,-340.65"/>
</g>
<!-- &#45;4&#45;&gt;357 -->
<g id="edge26" class="edge">
<title>&#45;4&#45;&gt;357</title>
<path fill="none" stroke="red" stroke-width="0.75" d="M547.55,-543.73C541.64,-515.95 527.04,-427.09 568.53,-375.87 600.92,-335.9 631.62,-360.96 678.53,-339.87 680.9,-338.8 683.31,-337.62 685.71,-336.37"/>
<polygon fill="red" stroke="red" stroke-width="0.75" points="687.24,-339.53 694.27,-331.6 683.83,-333.41 687.24,-339.53"/>
</g>
<!-- &#45;4&#45;&gt;358 -->
<g id="edge27" class="edge">
<title>&#45;4&#45;&gt;358</title>
<path fill="none" stroke="green" stroke-width="0.2" d="M561.68,-552.1C661.54,-550.56 1344.31,-538.87 1373.53,-508.04 1387.54,-493.26 1385.14,-394.43 1368.53,-375.87 1337.11,-340.74 1205.66,-349.55 1159.53,-339.87 1142.92,-336.38 1124.53,-331.86 1109.57,-328.01"/>
<polygon fill="green" stroke="green" stroke-width="0.2" points="1110.68,-324.69 1100.12,-325.56 1108.92,-331.46 1110.68,-324.69"/>
</g>
<!-- &#45;4&#45;&gt;360 -->
<g id="edge28" class="edge">
<title>&#45;4&#45;&gt;360</title>
<path fill="none" stroke="red" stroke-width="0.77" d="M537.62,-552.21C463.27,-551.63 65.08,-546.74 29.53,-508.04 -10.2,-464.77 -9.42,-419.83 29.53,-375.87 58.02,-343.73 358.42,-326.39 458.38,-321.48"/>
<polygon fill="red" stroke="red" stroke-width="0.77" points="458.31,-324.99 468.13,-321.01 457.97,-318 458.31,-324.99"/>
</g>
<!-- &#45;4&#45;&gt;362 -->
<g id="edge29" class="edge">
<title>&#45;4&#45;&gt;362</title>
<path fill="none" stroke="green" stroke-width="0.22" d="M561.71,-552.09C660.36,-550.43 1326.03,-538.15 1354.53,-508.04 1391.09,-469.42 1314.11,-378.38 1310.53,-375.87 1214.75,-308.51 1163.72,-365.83 1049.53,-339.87 1038.71,-337.41 1027.06,-333.91 1016.81,-330.53"/>
<polygon fill="green" stroke="green" stroke-width="0.22" points="1018.03,-327.25 1007.44,-327.35 1015.78,-333.88 1018.03,-327.25"/>
</g>
<!-- &#45;4&#45;&gt;363 -->
<g id="edge30" class="edge">
<title>&#45;4&#45;&gt;363</title>
<path fill="none" stroke="green" stroke-width="0.18" d="M561.59,-551.76C617.7,-549.17 853.44,-536.73 920.53,-508.04 974.55,-484.94 997.47,-477.09 1022.53,-423.95 1031.65,-404.62 1035.22,-393.06 1022.53,-375.87 1004.56,-351.51 918.85,-333.3 872.11,-324.99"/>
<polygon fill="green" stroke="green" stroke-width="0.18" points="872.94,-321.58 862.48,-323.32 871.74,-328.48 872.94,-321.58"/>
</g>
<!-- &#45;4&#45;&gt;2814 -->
<g id="edge124" class="edge">
<title>&#45;4&#45;&gt;2814</title>
<path fill="none" stroke="green" stroke-width="0.8" d="M561.53,-552.04C643.07,-550.3 1114.58,-538.96 1169.53,-508.04 1199.23,-491.33 1220.15,-457.63 1232.42,-432.47"/>
<polygon fill="green" stroke="green" stroke-width="0.8" points="1235.45,-434.26 1236.5,-423.71 1229.1,-431.3 1235.45,-434.26"/>
</g>
<!-- &#45;5 -->
<g id="node5" class="node">
<title>&#45;5</title>
<polygon fill="lightgray" stroke="black" points="1013.28,-409.16 989.78,-409.16 989.78,-390.66 1013.28,-390.66 1013.28,-409.16"/>
<text xml:space="preserve" text-anchor="middle" x="1001.53" y="-396.61" font-family="Times,serif" font-size="9.00">&#45;5</text>
</g>
<!-- 719 -->
<g id="node22" class="node">
<title>719</title>
<ellipse fill="white" stroke="black" cx="1323.53" cy="-238.11" rx="20.86" ry="20.86"/>
<text xml:space="preserve" text-anchor="middle" x="1323.53" y="-234.81" font-family="Times,serif" font-size="9.00">719</text>
</g>
<!-- &#45;5&#45;&gt;719 -->
<g id="edge111" class="edge">
<title>&#45;5&#45;&gt;719</title>
<path fill="none" stroke="red" stroke-width="0.36" d="M1013.64,-393.26C1034.1,-383.5 1076.51,-362.36 1109.53,-339.87 1133.46,-323.58 1133.91,-311.61 1159.53,-298.15 1212.23,-270.46 1234.36,-286.81 1288.53,-262.15 1291.81,-260.66 1295.13,-258.88 1298.35,-256.99"/>
<polygon fill="red" stroke="red" stroke-width="0.36" points="1300.03,-260.07 1306.6,-251.76 1296.28,-254.15 1300.03,-260.07"/>
</g>
<!-- &#45;5&#45;&gt;354 -->
<g id="edge31" class="edge">
<title>&#45;5&#45;&gt;354</title>
<path fill="none" stroke="red" stroke-width="0.51" d="M989.35,-395.71C971.03,-390.98 935.26,-382 904.53,-375.87 806.51,-356.31 776.61,-373.65 682.53,-339.87 680,-338.96 677.44,-337.86 674.93,-336.65"/>
<polygon fill="red" stroke="red" stroke-width="0.51" points="676.72,-333.64 666.25,-331.97 673.39,-339.8 676.72,-333.64"/>
</g>
<!-- &#45;5&#45;&gt;355 -->
<g id="edge32" class="edge">
<title>&#45;5&#45;&gt;355</title>
<path fill="none" stroke="green" stroke-width="0.42" stroke-dasharray="1,5" d="M1013.67,-394.54C1039.27,-385.23 1100.58,-362.43 1150.53,-339.87 1154.32,-338.16 1158.27,-336.27 1162.14,-334.36"/>
<polygon fill="green" stroke="green" stroke-width="0.42" points="1163.53,-337.58 1170.88,-329.95 1160.38,-331.33 1163.53,-337.58"/>
</g>
<!-- &#45;5&#45;&gt;356 -->
<g id="edge33" class="edge">
<title>&#45;5&#45;&gt;356</title>
<path fill="none" stroke="red" stroke-width="0.17" d="M989.37,-395.57C971.09,-390.66 935.36,-381.45 904.53,-375.87 778.47,-353.03 743.97,-365.91 618.53,-339.87 605.65,-337.19 591.65,-333.28 579.72,-329.64"/>
<polygon fill="red" stroke="red" stroke-width="0.17" points="581.09,-326.4 570.5,-326.75 579,-333.08 581.09,-326.4"/>
</g>
<!-- &#45;5&#45;&gt;357 -->
<g id="edge34" class="edge">
<title>&#45;5&#45;&gt;357</title>
<path fill="none" stroke="red" stroke-width="0.9" d="M989.48,-395.62C947.45,-384.14 806.43,-345.64 743.41,-328.44"/>
<polygon fill="red" stroke="red" stroke-width="0.9" points="744.48,-325.1 733.92,-325.85 742.64,-331.86 744.48,-325.1"/>
</g>
<!-- &#45;5&#45;&gt;358 -->
<g id="edge35" class="edge">
<title>&#45;5&#45;&gt;358</title>
<path fill="none" stroke="red" stroke-width="0.19" d="M1010.18,-390.16C1021.74,-378.47 1042.6,-357.37 1058.44,-341.35"/>
<polygon fill="red" stroke="red" stroke-width="0.19" points="1060.57,-344.17 1065.11,-334.6 1055.59,-339.25 1060.57,-344.17"/>
</g>
<!-- &#45;5&#45;&gt;360 -->
<g id="edge36" class="edge">
<title>&#45;5&#45;&gt;360</title>
<path fill="none" stroke="green" stroke-width="0.15" d="M989.4,-395.45C971.14,-390.37 935.45,-380.96 904.53,-375.87 735.4,-347.99 682.19,-396.89 520.53,-339.87 518.72,-339.23 516.91,-338.46 515.13,-337.59"/>
<polygon fill="green" stroke="green" stroke-width="0.15" points="517.19,-334.74 506.77,-332.81 513.71,-340.81 517.19,-334.74"/>
</g>
<!-- &#45;5&#45;&gt;362 -->
<g id="edge37" class="edge">
<title>&#45;5&#45;&gt;362</title>
<path fill="none" stroke="green" stroke-width="0.13" d="M999.98,-390.16C998.26,-380.48 995.4,-364.33 992.85,-349.97"/>
<polygon fill="green" stroke="green" stroke-width="0.13" points="996.3,-349.38 991.11,-340.14 989.41,-350.6 996.3,-349.38"/>
</g>
<!-- &#45;5&#45;&gt;363 -->
<g id="edge38" class="edge">
<title>&#45;5&#45;&gt;363</title>
<path fill="none" stroke="green" stroke-width="0.29" d="M993.44,-390.47C988.58,-385.73 982.08,-379.97 975.53,-375.87 942.06,-354.88 899.34,-338.65 871.25,-329.22"/>
<polygon fill="green" stroke="green" stroke-width="0.29" points="872.61,-325.99 862.02,-326.2 870.43,-332.64 872.61,-325.99"/>
</g>
<!-- &#45;6 -->
<g id="node6" class="node">
<title>&#45;6</title>
<polygon fill="lightgray" stroke="black" points="745.28,-493.24 721.78,-493.24 721.78,-474.74 745.28,-474.74 745.28,-493.24"/>
<text xml:space="preserve" text-anchor="middle" x="733.53" y="-480.69" font-family="Times,serif" font-size="9.00">&#45;6</text>
</g>
<!-- 3132 -->
<g id="node21" class="node">
<title>3132</title>
<ellipse fill="white" stroke="black" cx="155.53" cy="-399.91" rx="24.04" ry="24.04"/>
<text xml:space="preserve" text-anchor="middle" x="155.53" y="-396.61" font-family="Times,serif" font-size="9.00">3132</text>
</g>
<!-- &#45;6&#45;&gt;3132 -->
<g id="edge133" class="edge">
<title>&#45;6&#45;&gt;3132</title>
<path fill="none" stroke="green" stroke-width="0.29" d="M721.36,-482.36C665.06,-479.26 424.39,-464.2 231.53,-423.95 217.01,-420.92 201.28,-416.37 187.91,-412.11"/>
<polygon fill="green" stroke="green" stroke-width="0.29" points="189.22,-408.86 178.63,-409.08 187.04,-415.51 189.22,-408.86"/>
</g>
<!-- &#45;6&#45;&gt;355 -->
<g id="edge39" class="edge">
<title>&#45;6&#45;&gt;355</title>
<path fill="none" stroke="green" stroke-width="0.32" d="M745.67,-481.05C804.13,-471.65 1054.42,-431.14 1069.53,-423.95 1110.24,-404.6 1147.9,-367.56 1169.8,-343.33"/>
<polygon fill="green" stroke="green" stroke-width="0.32" points="1172.27,-345.82 1176.28,-336.01 1167.03,-341.17 1172.27,-345.82"/>
</g>
<!-- &#45;6&#45;&gt;356 -->
<g id="edge40" class="edge">
<title>&#45;6&#45;&gt;356</title>
<path fill="none" stroke="red" stroke-width="0.23" d="M721.35,-482.93C664.74,-482.38 428.29,-476.89 383.53,-423.95 369.74,-407.63 370.48,-392.79 383.53,-375.87 421.98,-326.02 463.07,-365.59 520.53,-339.87 522.1,-339.17 523.68,-338.39 525.25,-337.55"/>
<polygon fill="red" stroke="red" stroke-width="0.23" points="526.86,-340.66 533.66,-332.54 523.28,-334.65 526.86,-340.66"/>
</g>
<!-- &#45;6&#45;&gt;357 -->
<g id="edge41" class="edge">
<title>&#45;6&#45;&gt;357</title>
<path fill="none" stroke="green" stroke-width="0.12" d="M725.86,-474.59C716.57,-463.8 701.45,-444.07 695.53,-423.95 688.14,-398.81 694.35,-369.25 701.25,-348.09"/>
<polygon fill="green" stroke="green" stroke-width="0.12" points="704.47,-349.48 704.47,-338.89 697.87,-347.17 704.47,-349.48"/>
</g>
<!-- &#45;6&#45;&gt;358 -->
<g id="edge42" class="edge">
<title>&#45;6&#45;&gt;358</title>
<path fill="none" stroke="green" stroke-width="0.4" d="M745.44,-481.04C800.56,-471.94 1028.87,-433.8 1040.53,-423.95 1062.25,-405.63 1071.89,-373.94 1076.16,-350.35"/>
<polygon fill="green" stroke="green" stroke-width="0.4" points="1079.57,-351.18 1077.67,-340.76 1072.66,-350.09 1079.57,-351.18"/>
</g>
<!-- &#45;6&#45;&gt;360 -->
<g id="edge43" class="edge">
<title>&#45;6&#45;&gt;360</title>
<path fill="none" stroke="red" stroke-width="0.22" stroke-dasharray="1,5" d="M721.56,-482.4C651.86,-478.81 300.46,-459.07 269.53,-423.95 255.41,-407.92 256.4,-392.73 269.53,-375.87 292.73,-346.08 404.09,-329.67 459.33,-323.24"/>
<polygon fill="red" stroke="red" stroke-width="0.22" points="459.71,-326.72 469.26,-322.12 458.93,-319.76 459.71,-326.72"/>
</g>
<!-- &#45;6&#45;&gt;362 -->
<g id="edge44" class="edge">
<title>&#45;6&#45;&gt;362</title>
<path fill="none" stroke="red" stroke-width="0.13" d="M745.53,-480.98C799,-471.93 1013.47,-435.06 1022.53,-423.95 1041.65,-400.54 1023.61,-366.2 1007.13,-343.49"/>
<polygon fill="red" stroke="red" stroke-width="0.13" points="1009.93,-341.39 1001.09,-335.55 1004.36,-345.63 1009.93,-341.39"/>
</g>
<!-- &#45;6&#45;&gt;363 -->
<g id="edge45" class="edge">
<title>&#45;6&#45;&gt;363</title>
<path fill="none" stroke="green" stroke-width="0.49" d="M745.78,-483.15C778.29,-482.82 866.8,-476.9 904.53,-423.95 916.94,-406.55 913.3,-395.36 904.53,-375.87 897.01,-359.14 881.72,-345.38 868.09,-335.71"/>
<polygon fill="green" stroke="green" stroke-width="0.49" points="870.34,-333.01 860.08,-330.36 866.45,-338.83 870.34,-333.01"/>
</g>
<!-- &#45;7 -->
<g id="node7" class="node">
<title>&#45;7</title>
<polygon fill="lightgray" stroke="black" points="1345.28,-493.24 1321.78,-493.24 1321.78,-474.74 1345.28,-474.74 1345.28,-493.24"/>
<text xml:space="preserve" text-anchor="middle" x="1333.53" y="-480.69" font-family="Times,serif" font-size="9.00">&#45;7</text>
</g>
<!-- 1950 -->
<g id="node18" class="node">
<title>1950</title>
<ellipse fill="white" stroke="black" cx="1501.53" cy="-399.91" rx="24.04" ry="24.04"/>
<text xml:space="preserve" text-anchor="middle" x="1501.53" y="-396.61" font-family="Times,serif" font-size="9.00">1950</text>
</g>
<!-- &#45;7&#45;&gt;1950 -->
<g id="edge121" class="edge">
<title>&#45;7&#45;&gt;1950</title>
<path fill="none" stroke="red" stroke-width="0.17" d="M1345.62,-477.09C1371.63,-464.38 1433.59,-434.1 1471.11,-415.78"/>
<polygon fill="red" stroke="red" stroke-width="0.17" points="1472.39,-419.04 1479.84,-411.51 1469.32,-412.75 1472.39,-419.04"/>
</g>
<!-- &#45;7&#45;&gt;354 -->
<g id="edge46" class="edge">
<title>&#45;7&#45;&gt;354</title>
<path fill="none" stroke="green" stroke-width="0.43" stroke-dasharray="1,5" d="M1321.44,-482.29C1224.83,-476.62 581.92,-438.42 568.53,-423.95 554.02,-408.27 558.65,-394.82 568.53,-375.87 579.24,-355.34 601.32,-340.81 619.58,-331.72"/>
<polygon fill="green" stroke="green" stroke-width="0.43" points="621.04,-334.9 628.63,-327.51 618.09,-328.55 621.04,-334.9"/>
</g>
<!-- &#45;7&#45;&gt;355 -->
<g id="edge47" class="edge">
<title>&#45;7&#45;&gt;355</title>
<path fill="none" stroke="green" stroke-width="0.15" stroke-dasharray="1,5" d="M1345.55,-481.34C1385.26,-475.62 1511.11,-455.25 1534.53,-423.95 1547.34,-406.84 1548.39,-392.14 1534.53,-375.87 1494.25,-328.54 1297.5,-321.19 1220.51,-320.14"/>
<polygon fill="green" stroke="green" stroke-width="0.15" points="1220.73,-316.64 1210.69,-320.03 1220.65,-323.64 1220.73,-316.64"/>
</g>
<!-- &#45;7&#45;&gt;356 -->
<g id="edge48" class="edge">
<title>&#45;7&#45;&gt;356</title>
<path fill="none" stroke="green" stroke-width="0.37" d="M1321.55,-482.3C1224.41,-476.69 569.52,-438.33 555.53,-423.95 536.85,-404.75 538.14,-372.92 542.52,-349.53"/>
<polygon fill="green" stroke="green" stroke-width="0.37" points="545.89,-350.52 544.58,-340 539.05,-349.04 545.89,-350.52"/>
</g>
<!-- &#45;7&#45;&gt;358 -->
<g id="edge49" class="edge">
<title>&#45;7&#45;&gt;358</title>
<path fill="none" stroke="red" stroke-width="0.21" stroke-dasharray="1,5" d="M1338.77,-474.31C1350.03,-454.42 1373.65,-404.98 1349.53,-375.87 1322.12,-342.77 1201.52,-349.05 1159.53,-339.87 1142.95,-336.24 1124.56,-331.71 1109.59,-327.89"/>
<polygon fill="red" stroke="red" stroke-width="0.21" points="1110.71,-324.57 1100.15,-325.46 1108.96,-331.35 1110.71,-324.57"/>
</g>
<!-- &#45;7&#45;&gt;360 -->
<g id="edge50" class="edge">
<title>&#45;7&#45;&gt;360</title>
<path fill="none" stroke="green" stroke-width="0.48" d="M1321.59,-482.28C1223.38,-476.41 552.32,-435.89 535.53,-423.95 511.63,-406.96 500.3,-374.48 495.02,-350.33"/>
<polygon fill="green" stroke="green" stroke-width="0.48" points="498.47,-349.77 493.13,-340.63 491.6,-351.11 498.47,-349.77"/>
</g>
<!-- &#45;7&#45;&gt;362 -->
<g id="edge51" class="edge">
<title>&#45;7&#45;&gt;362</title>
<path fill="none" stroke="red" stroke-width="0.14" d="M1331.86,-474.32C1327.36,-453.53 1312.92,-400.74 1278.53,-375.87 1195.06,-315.49 1149.78,-363.65 1049.53,-339.87 1038.62,-337.28 1026.84,-333.71 1016.52,-330.31"/>
<polygon fill="red" stroke="red" stroke-width="0.14" points="1017.94,-327.1 1007.34,-327.21 1015.69,-333.73 1017.94,-327.1"/>
</g>
<!-- &#45;8 -->
<g id="node8" class="node">
<title>&#45;8</title>
<polygon fill="lightgray" stroke="black" points="643.28,-409.16 619.78,-409.16 619.78,-390.66 643.28,-390.66 643.28,-409.16"/>
<text xml:space="preserve" text-anchor="middle" x="631.53" y="-396.61" font-family="Times,serif" font-size="9.00">&#45;8</text>
</g>
<!-- &#45;8&#45;&gt;354 -->
<g id="edge52" class="edge">
<title>&#45;8&#45;&gt;354</title>
<path fill="none" stroke="green" stroke-width="0.4" d="M633.42,-390.16C635.52,-380.41 639.03,-364.11 642.14,-349.68"/>
<polygon fill="green" stroke="green" stroke-width="0.4" points="645.5,-350.73 644.18,-340.22 638.65,-349.26 645.5,-350.73"/>
</g>
<!-- &#45;8&#45;&gt;355 -->
<g id="edge53" class="edge">
<title>&#45;8&#45;&gt;355</title>
<path fill="none" stroke="red" stroke-width="0.23" d="M643.67,-395.45C661.93,-390.38 697.62,-380.97 728.53,-375.87 896.35,-348.15 941.86,-368.44 1109.53,-339.87 1126.27,-337.02 1144.67,-332.54 1159.6,-328.56"/>
<polygon fill="red" stroke="red" stroke-width="0.23" points="1160.27,-332.01 1168.99,-326 1158.42,-325.26 1160.27,-332.01"/>
</g>
<!-- &#45;8&#45;&gt;356 -->
<g id="edge54" class="edge">
<title>&#45;8&#45;&gt;356</title>
<path fill="none" stroke="green" stroke-width="0.11" d="M623.92,-390.22C620,-385.84 615.1,-380.49 610.53,-375.87 598.58,-363.79 584.72,-350.82 573.33,-340.42"/>
<polygon fill="green" stroke="green" stroke-width="0.11" points="575.78,-337.92 566.03,-333.79 571.08,-343.1 575.78,-337.92"/>
</g>
<!-- &#45;8&#45;&gt;357 -->
<g id="edge55" class="edge">
<title>&#45;8&#45;&gt;357</title>
<path fill="none" stroke="green" stroke-width="0.14" d="M640.51,-390.16C652.51,-378.47 674.18,-357.37 690.63,-341.35"/>
<polygon fill="green" stroke="green" stroke-width="0.14" points="692.89,-344.03 697.61,-334.55 688.01,-339.02 692.89,-344.03"/>
</g>
<!-- &#45;8&#45;&gt;358 -->
<g id="edge56" class="edge">
<title>&#45;8&#45;&gt;358</title>
<path fill="none" stroke="red" stroke-width="0.2" d="M643.69,-395.57C661.98,-390.65 697.7,-381.43 728.53,-375.87 855.91,-352.88 891.13,-367.73 1017.53,-339.87 1028.38,-337.48 1040.03,-334 1050.27,-330.62"/>
<polygon fill="red" stroke="red" stroke-width="0.2" points="1051.35,-333.95 1059.68,-327.41 1049.09,-327.32 1051.35,-333.95"/>
</g>
<!-- &#45;8&#45;&gt;360 -->
<g id="edge57" class="edge">
<title>&#45;8&#45;&gt;360</title>
<path fill="none" stroke="red" stroke-width="0.41" d="M625.3,-390.35C621.48,-385.58 616.23,-379.82 610.53,-375.87 575.13,-351.33 558.69,-359.86 520.53,-339.87 519.01,-339.07 517.47,-338.22 515.93,-337.32"/>
<polygon fill="red" stroke="red" stroke-width="0.41" points="518.17,-334.59 507.83,-332.3 514.48,-340.54 518.17,-334.59"/>
</g>
<!-- &#45;8&#45;&gt;363 -->
<g id="edge58" class="edge">
<title>&#45;8&#45;&gt;363</title>
<path fill="none" stroke="green" stroke-width="0.14" d="M643.73,-394.33C676.27,-382.1 765.83,-348.45 812.46,-330.93"/>
<polygon fill="green" stroke="green" stroke-width="0.14" points="813.66,-334.22 821.79,-327.43 811.2,-327.67 813.66,-334.22"/>
</g>
<!-- &#45;9 -->
<g id="node9" class="node">
<title>&#45;9</title>
<polygon fill="lightgray" stroke="black" points="895.28,-409.16 871.78,-409.16 871.78,-390.66 895.28,-390.66 895.28,-409.16"/>
<text xml:space="preserve" text-anchor="middle" x="883.53" y="-396.61" font-family="Times,serif" font-size="9.00">&#45;9</text>
</g>
<!-- &#45;9&#45;&gt;354 -->
<g id="edge59" class="edge">
<title>&#45;9&#45;&gt;354</title>
<path fill="none" stroke="red" stroke-width="0.48" d="M877.9,-390.4C874.14,-385.4 868.75,-379.38 862.53,-375.87 791.51,-335.72 758.8,-368.84 682.53,-339.87 680.02,-338.91 677.47,-337.78 674.96,-336.55"/>
<polygon fill="red" stroke="red" stroke-width="0.48" points="676.72,-333.52 666.26,-331.82 673.37,-339.67 676.72,-333.52"/>
</g>
<!-- &#45;9&#45;&gt;355 -->
<g id="edge60" class="edge">
<title>&#45;9&#45;&gt;355</title>
<path fill="none" stroke="green" stroke-width="0.33" d="M895.53,-395.82C939.6,-384.45 1093.39,-344.8 1159.24,-327.82"/>
<polygon fill="green" stroke="green" stroke-width="0.33" points="1160.09,-331.22 1168.9,-325.33 1158.34,-324.44 1160.09,-331.22"/>
</g>
<!-- &#45;9&#45;&gt;356 -->
<g id="edge61" class="edge">
<title>&#45;9&#45;&gt;356</title>
<path fill="none" stroke="green" stroke-width="0.51" d="M877.97,-390.29C874.23,-385.25 868.84,-379.23 862.53,-375.87 765.77,-324.37 725.62,-363.29 618.53,-339.87 605.93,-337.11 592.24,-333.28 580.47,-329.72"/>
<polygon fill="green" stroke="green" stroke-width="0.51" points="581.61,-326.41 571.03,-326.79 579.54,-333.09 581.61,-326.41"/>
</g>
<!-- &#45;9&#45;&gt;358 -->
<g id="edge62" class="edge">
<title>&#45;9&#45;&gt;358</title>
<path fill="none" stroke="green" stroke-width="0.34" d="M895.5,-394.09C925.89,-381.86 1006.75,-349.31 1050.48,-331.7"/>
<polygon fill="green" stroke="green" stroke-width="0.34" points="1051.79,-334.95 1059.76,-327.97 1049.17,-328.46 1051.79,-334.95"/>
</g>
<!-- &#45;9&#45;&gt;360 -->
<g id="edge63" class="edge">
<title>&#45;9&#45;&gt;360</title>
<path fill="none" stroke="red" stroke-width="0.25" stroke-dasharray="1,5" d="M878.01,-390.2C874.29,-385.12 868.91,-379.09 862.53,-375.87 726.15,-306.88 664.38,-391.53 520.53,-339.87 518.88,-339.27 517.22,-338.57 515.59,-337.79"/>
<polygon fill="red" stroke="red" stroke-width="0.25" points="517.34,-334.75 506.92,-332.85 513.87,-340.84 517.34,-334.75"/>
</g>
<!-- &#45;9&#45;&gt;362 -->
<g id="edge64" class="edge">
<title>&#45;9&#45;&gt;362</title>
<path fill="none" stroke="red" stroke-width="0.49" d="M895.06,-390.16C911.33,-377.82 941.43,-354.99 962.87,-338.72"/>
<polygon fill="red" stroke="red" stroke-width="0.49" points="964.73,-341.7 970.58,-332.87 960.5,-336.12 964.73,-341.7"/>
</g>
<!-- &#45;9&#45;&gt;363 -->
<g id="edge65" class="edge">
<title>&#45;9&#45;&gt;363</title>
<path fill="none" stroke="green" stroke-width="0.73" stroke-dasharray="1,5" d="M878.88,-390.16C873.47,-379.99 864.26,-362.7 856.34,-347.82"/>
<polygon fill="green" stroke="green" stroke-width="0.73" points="859.44,-346.19 851.65,-339.01 853.26,-349.48 859.44,-346.19"/>
</g>
<!-- &#45;10 -->
<g id="node10" class="node">
<title>&#45;10</title>
<polygon fill="lightgray" stroke="black" points="765.53,-409.16 737.53,-409.16 737.53,-390.66 765.53,-390.66 765.53,-409.16"/>
<text xml:space="preserve" text-anchor="middle" x="751.53" y="-396.61" font-family="Times,serif" font-size="9.00">&#45;10</text>
</g>
<!-- &#45;10&#45;&gt;354 -->
<g id="edge66" class="edge">
<title>&#45;10&#45;&gt;354</title>
<path fill="none" stroke="green" stroke-width="0.79" d="M740.12,-390.16C724.15,-377.93 694.72,-355.39 673.53,-339.16"/>
<polygon fill="green" stroke="green" stroke-width="0.79" points="675.75,-336.45 665.68,-333.14 671.49,-342 675.75,-336.45"/>
</g>
<!-- &#45;10&#45;&gt;355 -->
<g id="edge67" class="edge">
<title>&#45;10&#45;&gt;355</title>
<path fill="none" stroke="green" stroke-width="0.47" d="M757.76,-390.2C761.9,-385.12 767.81,-379.09 774.53,-375.87 909.59,-311.18 962.08,-365.97 1109.53,-339.87 1126.09,-336.94 1144.3,-332.51 1159.16,-328.59"/>
<polygon fill="green" stroke="green" stroke-width="0.47" points="1159.89,-332.01 1168.63,-326.02 1158.07,-325.26 1159.89,-332.01"/>
</g>
<!-- &#45;10&#45;&gt;356 -->
<g id="edge68" class="edge">
<title>&#45;10&#45;&gt;356</title>
<path fill="none" stroke="red" stroke-width="0.22" d="M737.44,-394.81C708.4,-386.17 640.06,-364.8 585.53,-339.87 582.7,-338.57 579.8,-337.13 576.93,-335.62"/>
<polygon fill="red" stroke="red" stroke-width="0.22" points="578.77,-332.64 568.32,-330.89 575.39,-338.77 578.77,-332.64"/>
</g>
<!-- &#45;10&#45;&gt;357 -->
<g id="edge69" class="edge">
<title>&#45;10&#45;&gt;357</title>
<path fill="none" stroke="red" stroke-width="0.47" d="M747.21,-390.16C742.17,-379.96 733.58,-362.59 726.21,-347.68"/>
<polygon fill="red" stroke="red" stroke-width="0.47" points="729.48,-346.4 721.92,-338.99 723.21,-349.5 729.48,-346.4"/>
</g>
<!-- &#45;10&#45;&gt;358 -->
<g id="edge70" class="edge">
<title>&#45;10&#45;&gt;358</title>
<path fill="none" stroke="red" stroke-width="0.73" d="M757.81,-390.29C761.96,-385.25 767.87,-379.23 774.53,-375.87 872.04,-326.75 911.19,-364.6 1017.53,-339.87 1028.13,-337.41 1039.51,-333.99 1049.6,-330.68"/>
<polygon fill="red" stroke="red" stroke-width="0.73" points="1050.54,-334.06 1058.89,-327.54 1048.3,-327.43 1050.54,-334.06"/>
</g>
<!-- 996 -->
<g id="node29" class="node">
<title>996</title>
<ellipse fill="white" stroke="black" cx="477.53" cy="-238.11" rx="20.86" ry="20.86"/>
<text xml:space="preserve" text-anchor="middle" x="477.53" y="-234.81" font-family="Times,serif" font-size="9.00">996</text>
</g>
<!-- &#45;10&#45;&gt;996 -->
<g id="edge116" class="edge">
<title>&#45;10&#45;&gt;996</title>
<path fill="none" stroke="red" stroke-width="0.38" d="M737.33,-394.76C711.87,-386.87 657.46,-367.95 618.53,-339.87 598.19,-325.2 600.36,-313.52 580.53,-298.15 553.51,-277.2 541.96,-279.57 512.53,-262.15 509.44,-260.31 506.23,-258.33 503.07,-256.32"/>
<polygon fill="red" stroke="red" stroke-width="0.38" points="505.19,-253.53 494.9,-251.01 501.38,-259.39 505.19,-253.53"/>
</g>
<!-- &#45;10&#45;&gt;360 -->
<g id="edge71" class="edge">
<title>&#45;10&#45;&gt;360</title>
<path fill="none" stroke="red" stroke-width="0.12" d="M737.22,-395.55C689.98,-384.4 540.87,-348.89 520.53,-339.87 518.96,-339.17 517.39,-338.4 515.82,-337.57"/>
<polygon fill="red" stroke="red" stroke-width="0.12" points="517.64,-334.58 507.26,-332.48 514.07,-340.6 517.64,-334.58"/>
</g>
<!-- &#45;10&#45;&gt;362 -->
<g id="edge72" class="edge">
<title>&#45;10&#45;&gt;362</title>
<path fill="none" stroke="green" stroke-width="0.62" d="M757.94,-390.54C762.15,-385.59 768.06,-379.58 774.53,-375.87 805.57,-358.04 905.17,-336.41 956.42,-326.07"/>
<polygon fill="green" stroke="green" stroke-width="0.62" points="956.84,-329.56 965.96,-324.17 955.47,-322.69 956.84,-329.56"/>
</g>
<!-- &#45;10&#45;&gt;363 -->
<g id="edge73" class="edge">
<title>&#45;10&#45;&gt;363</title>
<path fill="none" stroke="green" stroke-width="0.5" d="M759.87,-390.19C764.16,-385.79 769.53,-380.45 774.53,-375.87 788.38,-363.21 804.51,-349.72 817.48,-339.17"/>
<polygon fill="green" stroke="green" stroke-width="0.5" points="819.31,-342.19 824.89,-333.18 814.91,-336.75 819.31,-342.19"/>
</g>
<!-- &#45;11 -->
<g id="node11" class="node">
<title>&#45;11</title>
<polygon fill="lightgray" stroke="black" points="811.53,-409.16 783.53,-409.16 783.53,-390.66 811.53,-390.66 811.53,-409.16"/>
<text xml:space="preserve" text-anchor="middle" x="797.53" y="-396.61" font-family="Times,serif" font-size="9.00">&#45;11</text>
</g>
<!-- &#45;11&#45;&gt;354 -->
<g id="edge74" class="edge">
<title>&#45;11&#45;&gt;354</title>
<path fill="none" stroke="green" stroke-width="0.29" d="M790.57,-390.36C786.34,-385.59 780.59,-379.83 774.53,-375.87 737.8,-351.82 722.06,-359 682.53,-339.87 680.03,-338.65 677.45,-337.32 674.9,-335.94"/>
<polygon fill="green" stroke="green" stroke-width="0.29" points="676.71,-332.94 666.28,-331.07 673.26,-339.04 676.71,-332.94"/>
</g>
<!-- &#45;11&#45;&gt;355 -->
<g id="edge75" class="edge">
<title>&#45;11&#45;&gt;355</title>
<path fill="none" stroke="green" stroke-width="0.44" d="M803.78,-390.24C807.93,-385.17 813.83,-379.15 820.53,-375.87 936.8,-318.97 982.27,-363.5 1109.53,-339.87 1126.06,-336.8 1144.27,-332.36 1159.13,-328.46"/>
<polygon fill="green" stroke="green" stroke-width="0.44" points="1159.9,-331.88 1168.65,-325.92 1158.09,-325.12 1159.9,-331.88"/>
</g>
<!-- &#45;11&#45;&gt;356 -->
<g id="edge76" class="edge">
<title>&#45;11&#45;&gt;356</title>
<path fill="none" stroke="green" stroke-width="0.41" stroke-dasharray="1,5" d="M791.17,-390.48C786.97,-385.5 781.06,-379.49 774.53,-375.87 712.31,-341.35 687.38,-357.85 618.53,-339.87 605.93,-336.58 592.1,-332.61 580.24,-329.08"/>
<polygon fill="green" stroke="green" stroke-width="0.41" points="581.57,-325.83 570.99,-326.31 579.56,-332.54 581.57,-325.83"/>
</g>
<!-- &#45;11&#45;&gt;357 -->
<g id="edge77" class="edge">
<title>&#45;11&#45;&gt;357</title>
<path fill="none" stroke="green" stroke-width="0.12" d="M789.12,-390.27C784.81,-385.9 779.45,-380.54 774.53,-375.87 761.78,-363.75 747.18,-350.57 735.35,-340.05"/>
<polygon fill="green" stroke="green" stroke-width="0.12" points="737.97,-337.69 728.16,-333.68 733.33,-342.93 737.97,-337.69"/>
</g>
<!-- &#45;11&#45;&gt;358 -->
<g id="edge78" class="edge">
<title>&#45;11&#45;&gt;358</title>
<path fill="none" stroke="green" stroke-width="0.36" d="M803.85,-390.37C808.02,-385.35 813.93,-379.34 820.53,-375.87 899.34,-334.49 931.19,-361.49 1017.53,-339.87 1028.31,-337.17 1039.94,-333.62 1050.19,-330.27"/>
<polygon fill="green" stroke="green" stroke-width="0.36" points="1051.01,-333.68 1059.39,-327.19 1048.79,-327.04 1051.01,-333.68"/>
</g>
<!-- &#45;11&#45;&gt;360 -->
<g id="edge79" class="edge">
<title>&#45;11&#45;&gt;360</title>
<path fill="none" stroke="green" stroke-width="0.47" d="M791.27,-390.28C787.11,-385.23 781.21,-379.2 774.53,-375.87 672.55,-324.89 627.13,-380.33 520.53,-339.87 518.89,-339.24 517.24,-338.52 515.61,-337.71"/>
<polygon fill="green" stroke="green" stroke-width="0.47" points="517.67,-334.86 507.26,-332.9 514.17,-340.92 517.67,-334.86"/>
</g>
<!-- &#45;11&#45;&gt;362 -->
<g id="edge80" class="edge">
<title>&#45;11&#45;&gt;362</title>
<path fill="none" stroke="red" stroke-width="0.35" d="M804.42,-390.25C808.63,-385.44 814.38,-379.68 820.53,-375.87 863.99,-348.95 921.92,-333.37 956.88,-325.79"/>
<polygon fill="red" stroke="red" stroke-width="0.35" points="957.35,-329.27 966.43,-323.81 955.93,-322.42 957.35,-329.27"/>
</g>
<!-- &#45;11&#45;&gt;363 -->
<g id="edge81" class="edge">
<title>&#45;11&#45;&gt;363</title>
<path fill="none" stroke="red" stroke-width="0.22" d="M802.41,-390.16C808.23,-379.73 818.23,-361.8 826.66,-346.68"/>
<polygon fill="red" stroke="red" stroke-width="0.22" points="829.68,-348.45 831.5,-338.01 823.57,-345.04 829.68,-348.45"/>
</g>
<!-- 0 -->
<g id="node12" class="node">
<title>0</title>
<ellipse fill="lightblue" stroke="black" cx="737.53" cy="-163.57" rx="14.5" ry="14.5"/>
<text xml:space="preserve" text-anchor="middle" x="737.53" y="-160.27" font-family="Times,serif" font-size="9.00">0</text>
</g>
<!-- 1821 -->
<g id="node17" class="node">
<title>1821</title>
<ellipse fill="white" stroke="black" cx="838.53" cy="-89.03" rx="24.04" ry="24.04"/>
<text xml:space="preserve" text-anchor="middle" x="838.53" y="-85.73" font-family="Times,serif" font-size="9.00">1821</text>
</g>
<!-- 0&#45;&gt;1821 -->
<g id="edge126" class="edge">
<title>0&#45;&gt;1821</title>
<path fill="none" stroke="green" stroke-width="0.46" d="M749.12,-154.25C764.02,-143.55 790.37,-124.62 810.62,-110.08"/>
<polygon fill="green" stroke="green" stroke-width="0.46" points="812.51,-113.04 818.59,-104.36 808.42,-107.35 812.51,-113.04"/>
</g>
<!-- 1 -->
<g id="node13" class="node">
<title>1</title>
<ellipse fill="lightblue" stroke="black" cx="1044.53" cy="-163.57" rx="14.5" ry="14.5"/>
<text xml:space="preserve" text-anchor="middle" x="1044.53" y="-160.27" font-family="Times,serif" font-size="9.00">1</text>
</g>
<!-- 2 -->
<g id="node14" class="node">
<title>2</title>
<ellipse fill="lightblue" stroke="black" cx="876.53" cy="-14.5" rx="14.5" ry="14.5"/>
<text xml:space="preserve" text-anchor="middle" x="876.53" y="-11.2" font-family="Times,serif" font-size="9.00">2</text>
</g>
<!-- 3 -->
<g id="node15" class="node">
<title>3</title>
<ellipse fill="lightblue" stroke="black" cx="758.53" cy="-238.11" rx="14.5" ry="14.5"/>
<text xml:space="preserve" text-anchor="middle" x="758.53" y="-234.81" font-family="Times,serif" font-size="9.00">3</text>
</g>
<!-- 3098 -->
<g id="node16" class="node">
<title>3098</title>
<ellipse fill="white" stroke="black" cx="966.53" cy="-238.11" rx="24.04" ry="24.04"/>
<text xml:space="preserve" text-anchor="middle" x="966.53" y="-234.81" font-family="Times,serif" font-size="9.00">3098</text>
</g>
<!-- 3098&#45;&gt;0 -->
<g id="edge132" class="edge">
<title>3098&#45;&gt;0</title>
<path fill="none" stroke="red" stroke-width="0.25" d="M943.74,-229.89C900.16,-216.08 805.42,-186.07 761.18,-172.06"/>
<polygon fill="red" stroke="red" stroke-width="0.25" points="762.28,-168.74 751.69,-169.05 760.16,-175.41 762.28,-168.74"/>
</g>
<!-- 1821&#45;&gt;2 -->
<g id="edge120" class="edge">
<title>1821&#45;&gt;2</title>
<path fill="none" stroke="red" stroke-width="0.24" d="M849.32,-67.44C854.32,-57.89 860.27,-46.55 865.32,-36.9"/>
<polygon fill="red" stroke="red" stroke-width="0.24" points="868.3,-38.75 869.84,-28.27 862.1,-35.5 868.3,-38.75"/>
</g>
<!-- 1950&#45;&gt;355 -->
<g id="edge122" class="edge">
<title>1950&#45;&gt;355</title>
<path fill="none" stroke="red" stroke-width="0.23" d="M1482.09,-385.36C1476.32,-381.84 1469.86,-378.34 1463.53,-375.87 1379.33,-342.91 1272.62,-328.34 1220.72,-322.85"/>
<polygon fill="red" stroke="red" stroke-width="0.23" points="1221.16,-319.38 1210.85,-321.85 1220.45,-326.34 1221.16,-319.38"/>
</g>
<!-- 1950&#45;&gt;358 -->
<g id="edge123" class="edge">
<title>1950&#45;&gt;358</title>
<path fill="none" stroke="red" stroke-width="0.58" stroke-dasharray="1,5" d="M1482.21,-385.02C1476.45,-381.49 1469.95,-378.08 1463.53,-375.87 1334.89,-331.59 1293.38,-364.31 1159.53,-339.87 1143,-336.85 1124.79,-332.42 1109.93,-328.51"/>
<polygon fill="red" stroke="red" stroke-width="0.58" points="1111.18,-325.22 1100.62,-326.01 1109.37,-331.98 1111.18,-325.22"/>
</g>
<!-- 2982 -->
<g id="node19" class="node">
<title>2982</title>
<ellipse fill="white" stroke="black" cx="1070.53" cy="-238.11" rx="24.04" ry="24.04"/>
<text xml:space="preserve" text-anchor="middle" x="1070.53" y="-234.81" font-family="Times,serif" font-size="9.00">2982</text>
</g>
<!-- 2982&#45;&gt;1 -->
<g id="edge130" class="edge">
<title>2982&#45;&gt;1</title>
<path fill="none" stroke="green" stroke-width="0.52" d="M1062.59,-214.95C1059.49,-206.3 1055.94,-196.38 1052.81,-187.65"/>
<polygon fill="green" stroke="green" stroke-width="0.52" points="1056.19,-186.71 1049.52,-178.48 1049.6,-189.08 1056.19,-186.71"/>
</g>
<!-- 945&#45;&gt;356 -->
<g id="edge113" class="edge">
<title>945&#45;&gt;356</title>
<path fill="none" stroke="green" stroke-width="0.27" d="M107.38,-384.88C111.92,-381.35 117.15,-377.97 122.53,-375.87 287.96,-311.21 352.94,-398.68 520.53,-339.87 522.2,-339.29 523.85,-338.59 525.49,-337.81"/>
<polygon fill="green" stroke="green" stroke-width="0.27" points="527.17,-340.89 534.14,-332.91 523.71,-334.8 527.17,-340.89"/>
</g>
<!-- 3132&#45;&gt;360 -->
<g id="edge134" class="edge">
<title>3132&#45;&gt;360</title>
<path fill="none" stroke="red" stroke-width="0.45" d="M174.96,-385.3C180.72,-381.78 187.19,-378.3 193.53,-375.87 285.91,-340.52 403.29,-326.94 458.75,-322.24"/>
<polygon fill="red" stroke="red" stroke-width="0.45" points="458.95,-325.73 468.64,-321.44 458.39,-318.76 458.95,-325.73"/>
</g>
<!-- 1503&#45;&gt;945 -->
<g id="edge118" class="edge">
<title>1503&#45;&gt;945</title>
<path fill="none" stroke="red" stroke-width="0.11" d="M102.63,-460.13C101.09,-451.07 99.29,-440.53 97.65,-430.88"/>
<polygon fill="red" stroke="red" stroke-width="0.11" points="101.1,-430.3 95.97,-421.03 94.2,-431.47 101.1,-430.3"/>
</g>
<!-- 354&#45;&gt;0 -->
<g id="edge82" class="edge">
<title>354&#45;&gt;0</title>
<path fill="none" stroke="green" stroke-width="0.53" d="M637.62,-300.76C625.32,-278.89 609.16,-240.83 626.53,-214.07 645.43,-184.95 685.87,-172.82 712.37,-167.86"/>
<polygon fill="green" stroke="green" stroke-width="0.53" points="712.68,-171.36 721.98,-166.28 711.55,-164.45 712.68,-171.36"/>
</g>
<!-- 354&#45;&gt;1 -->
<g id="edge83" class="edge">
<title>354&#45;&gt;1</title>
<path fill="none" stroke="red" stroke-width="0.15" d="M653.96,-298.7C661.8,-274.67 678.72,-234.32 708.53,-214.07 759.46,-179.47 950.88,-168.38 1019.7,-165.47"/>
<polygon fill="red" stroke="red" stroke-width="0.15" points="1019.58,-168.98 1029.43,-165.08 1019.3,-161.98 1019.58,-168.98"/>
</g>
<!-- 354&#45;&gt;2 -->
<g id="edge84" class="edge">
<title>354&#45;&gt;2</title>
<path fill="none" stroke="red" stroke-width="0.23" d="M635.84,-301.99C620.96,-281.1 600.04,-243.76 614.53,-214.07 665.21,-110.22 799.59,-46.44 853.59,-24.3"/>
<polygon fill="red" stroke="red" stroke-width="0.23" points="854.68,-27.63 862.66,-20.66 852.08,-21.13 854.68,-27.63"/>
</g>
<!-- 354&#45;&gt;3 -->
<g id="edge85" class="edge">
<title>354&#45;&gt;3</title>
<path fill="none" stroke="red" stroke-width="0.19" d="M665.24,-306.03C685.01,-291.84 717.9,-268.26 738.88,-253.21"/>
<polygon fill="red" stroke="red" stroke-width="0.19" points="740.75,-256.17 746.84,-247.5 736.67,-250.48 740.75,-256.17"/>
</g>
<!-- 354&#45;&gt;996 -->
<g id="edge114" class="edge">
<title>354&#45;&gt;996</title>
<path fill="none" stroke="green" stroke-width="0.14" d="M631.04,-307.29C625.54,-304.14 619.38,-300.82 613.53,-298.15 570.2,-278.32 555.19,-283.4 512.53,-262.15 509.21,-260.49 505.83,-258.58 502.53,-256.59"/>
<polygon fill="green" stroke="green" stroke-width="0.14" points="504.62,-253.77 494.31,-251.32 500.85,-259.66 504.62,-253.77"/>
</g>
<!-- 355&#45;&gt;1 -->
<g id="edge86" class="edge">
<title>355&#45;&gt;1</title>
<path fill="none" stroke="green" stroke-width="0.51" d="M1210.84,-318.02C1247.21,-316.75 1320.53,-308.25 1353.53,-262.15 1365.97,-244.77 1367.4,-230.33 1353.53,-214.07 1316.97,-171.17 1136.68,-165.3 1069.67,-164.61"/>
<polygon fill="green" stroke="green" stroke-width="0.51" points="1070.03,-161.11 1060.01,-164.54 1069.98,-168.11 1070.03,-161.11"/>
</g>
<!-- 355&#45;&gt;2 -->
<g id="edge87" class="edge">
<title>355&#45;&gt;2</title>
<path fill="none" stroke="green" stroke-width="0.39" d="M1210.7,-318.89C1250.19,-319.23 1334.49,-313.54 1372.53,-262.15 1385.25,-244.97 1383.64,-232.32 1372.53,-214.07 1268.49,-43.05 987.38,-19.25 901.68,-16"/>
<polygon fill="green" stroke="green" stroke-width="0.39" points="902.04,-12.51 891.94,-15.69 901.82,-19.5 902.04,-12.51"/>
</g>
<!-- 355&#45;&gt;3 -->
<g id="edge88" class="edge">
<title>355&#45;&gt;3</title>
<path fill="none" stroke="green" stroke-width="0.24" d="M1169.25,-312.52C1153.13,-308.26 1129.99,-302.4 1109.53,-298.15 987.62,-272.8 840.15,-250.78 782.9,-242.55"/>
<polygon fill="green" stroke="green" stroke-width="0.24" points="783.73,-239.13 773.34,-241.18 782.74,-246.06 783.73,-239.13"/>
</g>
<!-- 356&#45;&gt;0 -->
<g id="edge89" class="edge">
<title>356&#45;&gt;0</title>
<path fill="none" stroke="red" stroke-width="0.12" d="M533.64,-306.28C529.42,-303.51 524.87,-300.64 520.53,-298.15 489.17,-280.13 466.64,-292.87 447.53,-262.15 436.25,-244 433.75,-230.4 447.53,-214.07 481.47,-173.84 648.69,-166.3 712.62,-164.89"/>
<polygon fill="red" stroke="red" stroke-width="0.12" points="712.52,-168.4 722.46,-164.71 712.39,-161.4 712.52,-168.4"/>
</g>
<!-- 356&#45;&gt;1 -->
<g id="edge90" class="edge">
<title>356&#45;&gt;1</title>
<path fill="none" stroke="red" stroke-width="0.83" d="M562.97,-301.73C582.13,-277.99 621.31,-234.48 665.53,-214.07 728.89,-184.83 943.9,-170.23 1018.66,-165.94"/>
<polygon fill="red" stroke="red" stroke-width="0.83" points="1018.75,-169.44 1028.54,-165.39 1018.36,-162.46 1018.75,-169.44"/>
</g>
<!-- 356&#45;&gt;2 -->
<g id="edge91" class="edge">
<title>356&#45;&gt;2</title>
<path fill="none" stroke="green" stroke-width="0.2" d="M533.74,-306.09C529.52,-303.33 524.94,-300.5 520.53,-298.15 483.99,-278.63 457.49,-296.65 434.53,-262.15 422.7,-244.36 423.75,-232.51 434.53,-214.07 525.39,-58.71 773.08,-24.34 852.02,-17.23"/>
<polygon fill="green" stroke="green" stroke-width="0.2" points="852.03,-20.75 861.7,-16.43 851.45,-13.77 852.03,-20.75"/>
</g>
<!-- 356&#45;&gt;3 -->
<g id="edge92" class="edge">
<title>356&#45;&gt;3</title>
<path fill="none" stroke="red" stroke-width="0.26" stroke-dasharray="1,5" d="M570.1,-310.59C608.62,-295.98 694.09,-263.55 735.36,-247.9"/>
<polygon fill="red" stroke="red" stroke-width="0.26" points="736.6,-251.17 744.71,-244.35 734.12,-244.63 736.6,-251.17"/>
</g>
<!-- 357&#45;&gt;0 -->
<g id="edge93" class="edge">
<title>357&#45;&gt;0</title>
<path fill="none" stroke="green" stroke-width="0.65" d="M706.21,-298.75C700.25,-277.51 693.47,-242.57 702.53,-214.07 706.18,-202.6 713.55,-191.51 720.58,-182.74"/>
<polygon fill="green" stroke="green" stroke-width="0.65" points="723.14,-185.14 726.99,-175.27 717.82,-180.58 723.14,-185.14"/>
</g>
<!-- 357&#45;&gt;1 -->
<g id="edge94" class="edge">
<title>357&#45;&gt;1</title>
<path fill="none" stroke="green" stroke-width="0.49" d="M710.84,-298C710.03,-274.38 712.67,-235.62 735.53,-214.07 776.37,-175.57 952.54,-166.97 1019.01,-165.09"/>
<polygon fill="green" stroke="green" stroke-width="0.49" points="1019.1,-168.59 1029,-164.83 1018.92,-161.59 1019.1,-168.59"/>
</g>
<!-- 357&#45;&gt;3 -->
<g id="edge95" class="edge">
<title>357&#45;&gt;3</title>
<path fill="none" stroke="red" stroke-width="0.1" d="M722.74,-300.5C729.81,-288.37 739.25,-272.18 746.66,-259.48"/>
<polygon fill="red" stroke="red" stroke-width="0.1" points="749.54,-261.49 751.55,-251.08 743.49,-257.96 749.54,-261.49"/>
</g>
<!-- 358&#45;&gt;0 -->
<g id="edge96" class="edge">
<title>358&#45;&gt;0</title>
<path fill="none" stroke="red" stroke-width="0.25" d="M1091.14,-301.47C1105.37,-278.99 1125.11,-238.75 1103.53,-214.07 1058.8,-162.87 837.01,-162.53 762.22,-163.92"/>
<polygon fill="red" stroke="red" stroke-width="0.25" points="762.59,-160.41 752.67,-164.12 762.74,-167.41 762.59,-160.41"/>
</g>
<!-- 358&#45;&gt;1 -->
<g id="edge97" class="edge">
<title>358&#45;&gt;1</title>
<path fill="none" stroke="red" stroke-width="0.34" d="M1098.26,-309.73C1123.45,-298.16 1166.08,-276.93 1174.53,-262.15 1185.15,-243.6 1186.66,-231.66 1174.53,-214.07 1150.85,-179.71 1099.92,-169.18 1069.31,-165.97"/>
<polygon fill="red" stroke="red" stroke-width="0.34" points="1069.81,-162.5 1059.54,-165.13 1069.21,-169.47 1069.81,-162.5"/>
</g>
<!-- 358&#45;&gt;2 -->
<g id="edge98" class="edge">
<title>358&#45;&gt;2</title>
<path fill="none" stroke="green" stroke-width="0.3" d="M1095.31,-304.93C1098.58,-302.52 1102.09,-300.13 1105.53,-298.15 1141.8,-277.27 1169.28,-296.94 1192.53,-262.15 1204.41,-244.38 1201.18,-233.61 1192.53,-214.07 1152.68,-123.99 1113.71,-114.47 1028.53,-64.99 986.89,-40.8 931.86,-26.66 900.72,-20.06"/>
<polygon fill="green" stroke="green" stroke-width="0.3" points="901.71,-16.69 891.21,-18.13 900.32,-23.55 901.71,-16.69"/>
</g>
<!-- 358&#45;&gt;3 -->
<g id="edge99" class="edge">
<title>358&#45;&gt;3</title>
<path fill="none" stroke="green" stroke-width="0.35" d="M1059.84,-311.22C1047.72,-307.17 1031.82,-302.06 1017.53,-298.15 932.26,-274.82 829.47,-253.32 783.21,-244"/>
<polygon fill="green" stroke="green" stroke-width="0.35" points="783.97,-240.58 773.48,-242.05 782.6,-247.44 783.97,-240.58"/>
</g>
<!-- 358&#45;&gt;719 -->
<g id="edge127" class="edge">
<title>358&#45;&gt;719</title>
<path fill="none" stroke="green" stroke-width="0.32" d="M1098.01,-308.39C1105.48,-304.8 1114.27,-300.92 1122.53,-298.15 1194.12,-274.18 1218.94,-291.4 1288.53,-262.15 1291.85,-260.75 1295.2,-259.04 1298.43,-257.17"/>
<polygon fill="green" stroke="green" stroke-width="0.32" points="1300.15,-260.23 1306.75,-251.94 1296.42,-254.31 1300.15,-260.23"/>
</g>
<!-- 996&#45;&gt;0 -->
<g id="edge115" class="edge">
<title>996&#45;&gt;0</title>
<path fill="none" stroke="red" stroke-width="0.33" d="M497.29,-230.6C511.93,-225.84 532.41,-219.32 550.53,-214.07 608.7,-197.2 677.72,-179.53 713.43,-170.56"/>
<polygon fill="red" stroke="red" stroke-width="0.33" points="714.06,-174.01 722.91,-168.19 712.36,-167.22 714.06,-174.01"/>
</g>
<!-- 360&#45;&gt;0 -->
<g id="edge100" class="edge">
<title>360&#45;&gt;0</title>
<path fill="none" stroke="green" stroke-width="0.13" d="M473.2,-306.59C459.82,-296.66 442.32,-280.92 434.53,-262.15 426.34,-242.41 420.69,-230.35 434.53,-214.07 470.34,-171.94 647.09,-165.58 712.84,-164.69"/>
<polygon fill="green" stroke="green" stroke-width="0.13" points="712.59,-168.19 722.55,-164.59 712.51,-161.19 712.59,-168.19"/>
</g>
<!-- 360&#45;&gt;2 -->
<g id="edge101" class="edge">
<title>360&#45;&gt;2</title>
<path fill="none" stroke="red" stroke-width="0.32" d="M471.86,-308.78C455.45,-299.52 432.65,-283.56 422.53,-262.15 413.4,-242.83 417.07,-234.72 422.53,-214.07 443.88,-133.44 462.82,-104.02 536.53,-64.99 591.46,-35.91 782.28,-21.38 851.34,-16.98"/>
<polygon fill="red" stroke="red" stroke-width="0.32" points="851.44,-20.48 861.2,-16.37 851.01,-13.49 851.44,-20.48"/>
</g>
<!-- 360&#45;&gt;3 -->
<g id="edge102" class="edge">
<title>360&#45;&gt;3</title>
<path fill="none" stroke="red" stroke-width="0.55" d="M507.09,-305.61C511.31,-302.85 515.96,-300.16 520.53,-298.15 594.24,-265.77 688.92,-249.01 733.37,-242.46"/>
<polygon fill="red" stroke="red" stroke-width="0.55" points="733.79,-245.94 743.2,-241.07 732.81,-239.01 733.79,-245.94"/>
</g>
<!-- 362&#45;&gt;0 -->
<g id="edge103" class="edge">
<title>362&#45;&gt;0</title>
<path fill="none" stroke="red" stroke-width="0.49" stroke-dasharray="1,5" d="M969.95,-307.22C925.24,-279.78 807.31,-207.39 758.82,-177.63"/>
<polygon fill="red" stroke="red" stroke-width="0.49" points="760.82,-174.75 750.47,-172.51 757.16,-180.72 760.82,-174.75"/>
</g>
<!-- 362&#45;&gt;1 -->
<g id="edge104" class="edge">
<title>362&#45;&gt;1</title>
<path fill="none" stroke="green" stroke-width="0.43" d="M1007.3,-311.37C1037.45,-300.8 1092.59,-279.56 1103.53,-262.15 1114.9,-244.05 1112.57,-233.43 1103.53,-214.07 1095.94,-197.78 1080.06,-184.96 1066.69,-176.44"/>
<polygon fill="green" stroke="green" stroke-width="0.43" points="1068.49,-173.44 1058.1,-171.35 1064.92,-179.46 1068.49,-173.44"/>
</g>
<!-- 362&#45;&gt;2 -->
<g id="edge105" class="edge">
<title>362&#45;&gt;2</title>
<path fill="none" stroke="green" stroke-width="0.22" d="M1007.21,-311.17C1042.8,-298.6 1114.82,-272.22 1121.53,-262.15 1133.39,-244.37 1128.79,-234.17 1121.53,-214.07 1083.88,-109.81 952.55,-46.27 899.27,-24.24"/>
<polygon fill="green" stroke="green" stroke-width="0.22" points="900.87,-21.11 890.28,-20.62 898.25,-27.61 900.87,-21.11"/>
</g>
<!-- 362&#45;&gt;3 -->
<g id="edge106" class="edge">
<title>362&#45;&gt;3</title>
<path fill="none" stroke="red" stroke-width="0.7" stroke-dasharray="1,5" d="M968.01,-311.28C926.23,-296.89 828.27,-263.13 782.67,-247.42"/>
<polygon fill="red" stroke="red" stroke-width="0.7" points="783.88,-244.14 773.28,-244.19 781.59,-250.75 783.88,-244.14"/>
</g>
<!-- 362&#45;&gt;3098 -->
<g id="edge131" class="edge">
<title>362&#45;&gt;3098</title>
<path fill="none" stroke="red" stroke-width="0.18" d="M982.34,-298.51C980.17,-290.33 977.58,-280.6 975.13,-271.41"/>
<polygon fill="red" stroke="red" stroke-width="0.18" points="978.58,-270.77 972.63,-262.01 971.82,-272.57 978.58,-270.77"/>
</g>
<!-- 362&#45;&gt;2982 -->
<g id="edge129" class="edge">
<title>362&#45;&gt;2982</title>
<path fill="none" stroke="red" stroke-width="0.58" d="M1002.37,-303.9C1014.49,-292.38 1031.87,-275.87 1046.04,-262.39"/>
<polygon fill="red" stroke="red" stroke-width="0.58" points="1048.06,-265.3 1052.9,-255.87 1043.24,-260.23 1048.06,-265.3"/>
</g>
<!-- 363&#45;&gt;0 -->
<g id="edge107" class="edge">
<title>363&#45;&gt;0</title>
<path fill="none" stroke="red" stroke-width="0.16" stroke-dasharray="1,5" d="M832.6,-300.05C821.69,-278.77 802.14,-242.62 781.53,-214.07 773.31,-202.67 762.91,-190.88 754.29,-181.66"/>
<polygon fill="red" stroke="red" stroke-width="0.16" points="756.87,-179.29 747.43,-174.47 751.8,-184.12 756.87,-179.29"/>
</g>
<!-- 363&#45;&gt;1 -->
<g id="edge108" class="edge">
<title>363&#45;&gt;1</title>
<path fill="none" stroke="red" stroke-width="0.13" d="M862.61,-315.8C895.66,-311.29 959.97,-298.22 999.53,-262.15 1021.21,-242.38 1033.24,-210.08 1039.29,-188.1"/>
<polygon fill="red" stroke="red" stroke-width="0.13" points="1042.68,-188.98 1041.75,-178.43 1035.89,-187.26 1042.68,-188.98"/>
</g>
<!-- 363&#45;&gt;2 -->
<g id="edge109" class="edge">
<title>363&#45;&gt;2</title>
<path fill="none" stroke="green" stroke-width="0.15" stroke-dasharray="1,5" d="M846.66,-298.47C849.32,-287.8 852.43,-274.32 854.53,-262.15 868.54,-181.11 873.9,-83.46 875.71,-39.27"/>
<polygon fill="green" stroke="green" stroke-width="0.15" points="879.2,-39.59 876.09,-29.46 872.21,-39.32 879.2,-39.59"/>
</g>
<!-- 363&#45;&gt;3 -->
<g id="edge110" class="edge">
<title>363&#45;&gt;3</title>
<path fill="none" stroke="green" stroke-width="0.22" d="M826.7,-303.9C812.4,-290.31 790.79,-269.77 775.75,-255.47"/>
<polygon fill="green" stroke="green" stroke-width="0.22" points="778.45,-253.21 768.79,-248.86 773.63,-258.29 778.45,-253.21"/>
</g>
<!-- 363&#45;&gt;1821 -->
<g id="edge119" class="edge">
<title>363&#45;&gt;1821</title>
<path fill="none" stroke="red" stroke-width="0.39" d="M841.27,-297.78C840.75,-258.55 839.61,-171.8 838.98,-123.73"/>
<polygon fill="red" stroke="red" stroke-width="0.39" points="842.48,-123.78 838.85,-113.83 835.48,-123.88 842.48,-123.78"/>
</g>
<!-- 2814&#45;&gt;362 -->
<g id="edge125" class="edge">
<title>2814&#45;&gt;362</title>
<path fill="none" stroke="green" stroke-width="0.22" d="M1222.59,-391.94C1207.52,-387.36 1187.35,-381.24 1169.53,-375.87 1116.22,-359.79 1102.72,-356.36 1049.53,-339.87 1038.93,-336.58 1027.33,-332.89 1017.07,-329.59"/>
<polygon fill="green" stroke="green" stroke-width="0.22" points="1018.24,-326.29 1007.65,-326.55 1016.09,-332.95 1018.24,-326.29"/>
</g>
</g>
</svg>
