<?xml version="1.0" encoding="utf-8" standalone="no"?>
<!DOCTYPE svg PUBLIC "-//W3C//DTD SVG 1.1//EN"
  "http://www.w3.org/Graphics/SVG/1.1/DTD/svg11.dtd">
<svg xmlns:xlink="http://www.w3.org/1999/xlink" width="460.8pt" height="345.6pt" viewBox="0 0 460.8 345.6" xmlns="http://www.w3.org/2000/svg" version="1.1">
 <metadata>
  <rdf:RDF xmlns:dc="http://purl.org/dc/elements/1.1/" xmlns:cc="http://creativecommons.org/ns#" xmlns:rdf="http://www.w3.org/1999/02/22-rdf-syntax-ns#">
   <cc:Work>
    <dc:type rdf:resource="http://purl.org/dc/dcmitype/StillImage"/>
    <dc:date>2025-11-21T07:16:38.247249</dc:date>
    <dc:format>image/svg+xml</dc:format>
    <dc:creator>
     <cc:Agent>
      <dc:title>Matplotlib v3.10.6, https://matplotlib.org/</dc:title>
     </cc:Agent>
    </dc:creator>
   </cc:Work>
  </rdf:RDF>
 </metadata>
 <defs>
  <style type="text/css">*{stroke-linejoin: round; stroke-linecap: butt}</style>
 </defs>
 <g id="figure_1">
  <g id="patch_1">
   <path d="M 0 345.6 
L 460.8 345.6 
L 460.8 0 
L 0 0 
z
" style="fill: #ffffff"/>
  </g>
  <g id="axes_1">
   <g id="patch_2">
    <path d="M 57.6 307.584 
L 414.72 307.584 
L 414.72 41.472 
L 57.6 41.472 
z
" style="fill: #ffffff"/>
   </g>
   <g id="FillBetweenPolyCollection_1">
    <path d="M 73.832727 306.57024 
L 73.832727 307.584 
L 90.919809 307.584 
L 108.00689 307.584 
L 125.093971 307.584 
L 142.181053 307.584 
L 159.268134 307.584 
L 176.355215 307.584 
L 193.442297 307.584 
L 210.529378 307.584 
L 227.616459 307.584 
L 244.703541 307.584 
L 261.790622 307.584 
L 278.877703 307.584 
L 295.964785 307.584 
L 313.051866 307.584 
L 330.138947 307.584 
L 347.226029 307.584 
L 364.31311 307.584 
L 381.400191 307.584 
L 398.487273 307.584 
L 398.487273 302.5152 
L 398.487273 302.5152 
L 381.400191 302.5152 
L 364.31311 302.5152 
L 347.226029 302.5152 
L 330.138947 302.5152 
L 313.051866 302.5152 
L 295.964785 302.5152 
L 278.877703 302.5152 
L 261.790622 302.5152 
L 244.703541 302.5152 
L 227.616459 302.5152 
L 210.529378 302.5152 
L 193.442297 302.5152 
L 176.355215 302.5152 
L 159.268134 302.5152 
L 142.181053 302.5152 
L 125.093971 302.5152 
L 108.00689 302.5152 
L 90.919809 302.5152 
L 73.832727 306.57024 
z
" clip-path="url(#p680a705d78)" style="fill: #1f77b4"/>
   </g>
   <g id="FillBetweenPolyCollection_2">
    <path d="M 73.832727 305.55648 
L 73.832727 306.57024 
L 90.919809 302.5152 
L 108.00689 302.5152 
L 125.093971 302.5152 
L 142.181053 302.5152 
L 159.268134 302.5152 
L 176.355215 302.5152 
L 193.442297 302.5152 
L 210.529378 302.5152 
L 227.616459 302.5152 
L 244.703541 302.5152 
L 261.790622 302.5152 
L 278.877703 302.5152 
L 295.964785 302.5152 
L 313.051866 302.5152 
L 330.138947 302.5152 
L 347.226029 302.5152 
L 364.31311 302.5152 
L 381.400191 302.5152 
L 398.487273 302.5152 
L 398.487273 297.4464 
L 398.487273 297.4464 
L 381.400191 297.4464 
L 364.31311 297.4464 
L 347.226029 297.4464 
L 330.138947 297.4464 
L 313.051866 297.4464 
L 295.964785 297.4464 
L 278.877703 297.4464 
L 261.790622 297.4464 
L 244.703541 297.4464 
L 227.616459 297.4464 
L 210.529378 297.4464 
L 193.442297 297.4464 
L 176.355215 297.4464 
L 159.268134 297.4464 
L 142.181053 297.4464 
L 125.093971 297.4464 
L 108.00689 297.4464 
L 90.919809 297.4464 
L 73.832727 305.55648 
z
" clip-path="url(#p680a705d78)" style="fill: #ff7f0e"/>
   </g>
   <g id="FillBetweenPolyCollection_3">
    <path d="M 73.832727 304.54272 
L 73.832727 305.55648 
L 90.919809 297.4464 
L 108.00689 297.4464 
L 125.093971 297.4464 
L 142.181053 297.4464 
L 159.268134 297.4464 
L 176.355215 297.4464 
L 193.442297 297.4464 
L 210.529378 297.4464 
L 227.616459 297.4464 
L 244.703541 297.4464 
L 261.790622 297.4464 
L 278.877703 297.4464 
L 295.964785 297.4464 
L 313.051866 297.4464 
L 330.138947 297.4464 
L 347.226029 297.4464 
L 364.31311 297.4464 
L 381.400191 297.4464 
L 398.487273 297.4464 
L 398.487273 292.3776 
L 398.487273 292.3776 
L 381.400191 292.3776 
L 364.31311 292.3776 
L 347.226029 292.3776 
L 330.138947 292.3776 
L 313.051866 292.3776 
L 295.964785 292.3776 
L 278.877703 292.3776 
L 261.790622 292.3776 
L 244.703541 292.3776 
L 227.616459 292.3776 
L 210.529378 292.3776 
L 193.442297 292.3776 
L 176.355215 292.3776 
L 159.268134 292.3776 
L 142.181053 292.3776 
L 125.093971 292.3776 
L 108.00689 292.3776 
L 90.919809 292.3776 
L 73.832727 304.54272 
z
" clip-path="url(#p680a705d78)" style="fill: #2ca02c"/>
   </g>
   <g id="FillBetweenPolyCollection_4">
    <path d="M 73.832727 303.52896 
L 73.832727 304.54272 
L 90.919809 292.3776 
L 108.00689 292.3776 
L 125.093971 292.3776 
L 142.181053 292.3776 
L 159.268134 292.3776 
L 176.355215 292.3776 
L 193.442297 292.3776 
L 210.529378 292.3776 
L 227.616459 292.3776 
L 244.703541 292.3776 
L 261.790622 292.3776 
L 278.877703 292.3776 
L 295.964785 292.3776 
L 313.051866 292.3776 
L 330.138947 292.3776 
L 347.226029 292.3776 
L 364.31311 292.3776 
L 381.400191 292.3776 
L 398.487273 292.3776 
L 398.487273 287.3088 
L 398.487273 287.3088 
L 381.400191 287.3088 
L 364.31311 287.3088 
L 347.226029 287.3088 
L 330.138947 287.3088 
L 313.051866 287.3088 
L 295.964785 287.3088 
L 278.877703 287.3088 
L 261.790622 287.3088 
L 244.703541 287.3088 
L 227.616459 287.3088 
L 210.529378 287.3088 
L 193.442297 287.3088 
L 176.355215 287.3088 
L 159.268134 287.3088 
L 142.181053 287.3088 
L 125.093971 287.3088 
L 108.00689 287.3088 
L 90.919809 287.3088 
L 73.832727 303.52896 
z
" clip-path="url(#p680a705d78)" style="fill: #d62728"/>
   </g>
   <g id="FillBetweenPolyCollection_5">
    <path d="M 73.832727 302.5152 
L 73.832727 303.52896 
L 90.919809 287.3088 
L 108.00689 287.3088 
L 125.093971 287.3088 
L 142.181053 287.3088 
L 159.268134 287.3088 
L 176.355215 287.3088 
L 193.442297 287.3088 
L 210.529378 287.3088 
L 227.616459 287.3088 
L 244.703541 287.3088 
L 261.790622 287.3088 
L 278.877703 287.3088 
L 295.964785 287.3088 
L 313.051866 287.3088 
L 330.138947 287.3088 
L 347.226029 287.3088 
L 364.31311 287.3088 
L 381.400191 287.3088 
L 398.487273 287.3088 
L 398.487273 282.24 
L 398.487273 282.24 
L 381.400191 282.24 
L 364.31311 282.24 
L 347.226029 282.24 
L 330.138947 282.24 
L 313.051866 282.24 
L 295.964785 282.24 
L 278.877703 282.24 
L 261.790622 282.24 
L 244.703541 282.24 
L 227.616459 282.24 
L 210.529378 282.24 
L 193.442297 282.24 
L 176.355215 282.24 
L 159.268134 282.24 
L 142.181053 282.24 
L 125.093971 282.24 
L 108.00689 282.24 
L 90.919809 282.24 
L 73.832727 302.5152 
z
" clip-path="url(#p680a705d78)" style="fill: #9467bd"/>
   </g>
   <g id="FillBetweenPolyCollection_6">
    <path d="M 73.832727 301.50144 
L 73.832727 302.5152 
L 90.919809 282.24 
L 108.00689 282.24 
L 125.093971 282.24 
L 142.181053 282.24 
L 159.268134 282.24 
L 176.355215 282.24 
L 193.442297 282.24 
L 210.529378 282.24 
L 227.616459 282.24 
L 244.703541 282.24 
L 261.790622 282.24 
L 278.877703 282.24 
L 295.964785 282.24 
L 313.051866 282.24 
L 330.138947 282.24 
L 347.226029 282.24 
L 364.31311 282.24 
L 381.400191 282.24 
L 398.487273 282.24 
L 398.487273 277.1712 
L 398.487273 277.1712 
L 381.400191 277.1712 
L 364.31311 277.1712 
L 347.226029 277.1712 
L 330.138947 277.1712 
L 313.051866 277.1712 
L 295.964785 277.1712 
L 278.877703 277.1712 
L 261.790622 277.1712 
L 244.703541 277.1712 
L 227.616459 277.1712 
L 210.529378 277.1712 
L 193.442297 277.1712 
L 176.355215 277.1712 
L 159.268134 277.1712 
L 142.181053 277.1712 
L 125.093971 277.1712 
L 108.00689 277.1712 
L 90.919809 277.1712 
L 73.832727 301.50144 
z
" clip-path="url(#p680a705d78)" style="fill: #8c564b"/>
   </g>
   <g id="FillBetweenPolyCollection_7">
    <path d="M 73.832727 300.48768 
L 73.832727 301.50144 
L 90.919809 277.1712 
L 108.00689 277.1712 
L 125.093971 277.1712 
L 142.181053 277.1712 
L 159.268134 277.1712 
L 176.355215 277.1712 
L 193.442297 277.1712 
L 210.529378 277.1712 
L 227.616459 277.1712 
L 244.703541 277.1712 
L 261.790622 277.1712 
L 278.877703 277.1712 
L 295.964785 277.1712 
L 313.051866 277.1712 
L 330.138947 277.1712 
L 347.226029 277.1712 
L 364.31311 277.1712 
L 381.400191 277.1712 
L 398.487273 277.1712 
L 398.487273 272.1024 
L 398.487273 272.1024 
L 381.400191 272.1024 
L 364.31311 272.1024 
L 347.226029 272.1024 
L 330.138947 272.1024 
L 313.051866 272.1024 
L 295.964785 272.1024 
L 278.877703 272.1024 
L 261.790622 272.1024 
L 244.703541 272.1024 
L 227.616459 272.1024 
L 210.529378 272.1024 
L 193.442297 272.1024 
L 176.355215 272.1024 
L 159.268134 272.1024 
L 142.181053 272.1024 
L 125.093971 272.1024 
L 108.00689 272.1024 
L 90.919809 272.1024 
L 73.832727 300.48768 
z
" clip-path="url(#p680a705d78)" style="fill: #e377c2"/>
   </g>
   <g id="FillBetweenPolyCollection_8">
    <path d="M 73.832727 299.47392 
L 73.832727 300.48768 
L 90.919809 272.1024 
L 108.00689 272.1024 
L 125.093971 272.1024 
L 142.181053 272.1024 
L 159.268134 272.1024 
L 176.355215 272.1024 
L 193.442297 272.1024 
L 210.529378 272.1024 
L 227.616459 272.1024 
L 244.703541 272.1024 
L 261.790622 272.1024 
L 278.877703 272.1024 
L 295.964785 272.1024 
L 313.051866 272.1024 
L 330.138947 272.1024 
L 347.226029 272.1024 
L 364.31311 272.1024 
L 381.400191 272.1024 
L 398.487273 272.1024 
L 398.487273 267.0336 
L 398.487273 267.0336 
L 381.400191 267.0336 
L 364.31311 267.0336 
L 347.226029 267.0336 
L 330.138947 267.0336 
L 313.051866 267.0336 
L 295.964785 267.0336 
L 278.877703 267.0336 
L 261.790622 267.0336 
L 244.703541 267.0336 
L 227.616459 267.0336 
L 210.529378 267.0336 
L 193.442297 267.0336 
L 176.355215 267.0336 
L 159.268134 267.0336 
L 142.181053 267.0336 
L 125.093971 267.0336 
L 108.00689 267.0336 
L 90.919809 267.0336 
L 73.832727 299.47392 
z
" clip-path="url(#p680a705d78)" style="fill: #7f7f7f"/>
   </g>
   <g id="FillBetweenPolyCollection_9">
    <path d="M 73.832727 298.46016 
L 73.832727 299.47392 
L 90.919809 267.0336 
L 108.00689 267.0336 
L 125.093971 267.0336 
L 142.181053 267.0336 
L 159.268134 267.0336 
L 176.355215 267.0336 
L 193.442297 267.0336 
L 210.529378 267.0336 
L 227.616459 267.0336 
L 244.703541 267.0336 
L 261.790622 267.0336 
L 278.877703 267.0336 
L 295.964785 267.0336 
L 313.051866 267.0336 
L 330.138947 267.0336 
L 347.226029 267.0336 
L 364.31311 267.0336 
L 381.400191 267.0336 
L 398.487273 267.0336 
L 398.487273 261.9648 
L 398.487273 261.9648 
L 381.400191 261.9648 
L 364.31311 261.9648 
L 347.226029 261.9648 
L 330.138947 261.9648 
L 313.051866 261.9648 
L 295.964785 261.9648 
L 278.877703 261.9648 
L 261.790622 261.9648 
L 244.703541 261.9648 
L 227.616459 261.9648 
L 210.529378 261.9648 
L 193.442297 261.9648 
L 176.355215 261.9648 
L 159.268134 261.9648 
L 142.181053 261.9648 
L 125.093971 261.9648 
L 108.00689 261.9648 
L 90.919809 261.9648 
L 73.832727 298.46016 
z
" clip-path="url(#p680a705d78)" style="fill: #bcbd22"/>
   </g>
   <g id="FillBetweenPolyCollection_10">
    <path d="M 73.832727 297.4464 
L 73.832727 298.46016 
L 90.919809 261.9648 
L 108.00689 261.9648 
L 125.093971 261.9648 
L 142.181053 261.9648 
L 159.268134 261.9648 
L 176.355215 261.9648 
L 193.442297 261.9648 
L 210.529378 261.9648 
L 227.616459 261.9648 
L 244.703541 261.9648 
L 261.790622 261.9648 
L 278.877703 261.9648 
L 295.964785 261.9648 
L 313.051866 261.9648 
L 330.138947 261.9648 
L 347.226029 261.9648 
L 364.31311 261.9648 
L 381.400191 261.9648 
L 398.487273 261.9648 
L 398.487273 256.896 
L 398.487273 256.896 
L 381.400191 256.896 
L 364.31311 256.896 
L 347.226029 256.896 
L 330.138947 256.896 
L 313.051866 256.896 
L 295.964785 256.896 
L 278.877703 256.896 
L 261.790622 256.896 
L 244.703541 256.896 
L 227.616459 256.896 
L 210.529378 256.896 
L 193.442297 256.896 
L 176.355215 256.896 
L 159.268134 256.896 
L 142.181053 256.896 
L 125.093971 256.896 
L 108.00689 256.896 
L 90.919809 256.896 
L 73.832727 297.4464 
z
" clip-path="url(#p680a705d78)" style="fill: #17becf"/>
   </g>
   <g id="FillBetweenPolyCollection_11">
    <path d="M 73.832727 296.43264 
L 73.832727 297.4464 
L 90.919809 256.896 
L 108.00689 256.896 
L 125.093971 256.896 
L 142.181053 256.896 
L 159.268134 256.896 
L 176.355215 256.896 
L 193.442297 256.896 
L 210.529378 256.896 
L 227.616459 256.896 
L 244.703541 256.896 
L 261.790622 256.896 
L 278.877703 256.896 
L 295.964785 256.896 
L 313.051866 256.896 
L 330.138947 256.896 
L 347.226029 256.896 
L 364.31311 256.896 
L 381.400191 256.896 
L 398.487273 256.896 
L 398.487273 251.8272 
L 398.487273 251.8272 
L 381.400191 251.8272 
L 364.31311 251.8272 
L 347.226029 251.8272 
L 330.138947 251.8272 
L 313.051866 251.8272 
L 295.964785 251.8272 
L 278.877703 251.8272 
L 261.790622 251.8272 
L 244.703541 251.8272 
L 227.616459 251.8272 
L 210.529378 251.8272 
L 193.442297 251.8272 
L 176.355215 251.8272 
L 159.268134 251.8272 
L 142.181053 251.8272 
L 125.093971 251.8272 
L 108.00689 251.8272 
L 90.919809 251.8272 
L 73.832727 296.43264 
z
" clip-path="url(#p680a705d78)" style="fill: #1f77b4"/>
   </g>
   <g id="FillBetweenPolyCollection_12">
    <path d="M 73.832727 295.41888 
L 73.832727 296.43264 
L 90.919809 251.8272 
L 108.00689 251.8272 
L 125.093971 251.8272 
L 142.181053 251.8272 
L 159.268134 251.8272 
L 176.355215 251.8272 
L 193.442297 251.8272 
L 210.529378 251.8272 
L 227.616459 251.8272 
L 244.703541 251.8272 
L 261.790622 251.8272 
L 278.877703 251.8272 
L 295.964785 251.8272 
L 313.051866 251.8272 
L 330.138947 251.8272 
L 347.226029 251.8272 
L 364.31311 251.8272 
L 381.400191 251.8272 
L 398.487273 251.8272 
L 398.487273 246.7584 
L 398.487273 246.7584 
L 381.400191 246.7584 
L 364.31311 246.7584 
L 347.226029 246.7584 
L 330.138947 246.7584 
L 313.051866 246.7584 
L 295.964785 246.7584 
L 278.877703 246.7584 
L 261.790622 246.7584 
L 244.703541 246.7584 
L 227.616459 246.7584 
L 210.529378 246.7584 
L 193.442297 246.7584 
L 176.355215 246.7584 
L 159.268134 246.7584 
L 142.181053 246.7584 
L 125.093971 246.7584 
L 108.00689 246.7584 
L 90.919809 246.7584 
L 73.832727 295.41888 
z
" clip-path="url(#p680a705d78)" style="fill: #ff7f0e"/>
   </g>
   <g id="FillBetweenPolyCollection_13">
    <path d="M 73.832727 294.40512 
L 73.832727 295.41888 
L 90.919809 246.7584 
L 108.00689 246.7584 
L 125.093971 246.7584 
L 142.181053 246.7584 
L 159.268134 246.7584 
L 176.355215 246.7584 
L 193.442297 246.7584 
L 210.529378 246.7584 
L 227.616459 246.7584 
L 244.703541 246.7584 
L 261.790622 246.7584 
L 278.877703 246.7584 
L 295.964785 246.7584 
L 313.051866 246.7584 
L 330.138947 246.7584 
L 347.226029 246.7584 
L 364.31311 246.7584 
L 381.400191 246.7584 
L 398.487273 246.7584 
L 398.487273 241.6896 
L 398.487273 241.6896 
L 381.400191 241.6896 
L 364.31311 241.6896 
L 347.226029 241.6896 
L 330.138947 241.6896 
L 313.051866 241.6896 
L 295.964785 241.6896 
L 278.877703 241.6896 
L 261.790622 241.6896 
L 244.703541 241.6896 
L 227.616459 241.6896 
L 210.529378 241.6896 
L 193.442297 241.6896 
L 176.355215 241.6896 
L 159.268134 241.6896 
L 142.181053 241.6896 
L 125.093971 241.6896 
L 108.00689 241.6896 
L 90.919809 241.6896 
L 73.832727 294.40512 
z
" clip-path="url(#p680a705d78)" style="fill: #2ca02c"/>
   </g>
   <g id="FillBetweenPolyCollection_14">
    <path d="M 73.832727 293.39136 
L 73.832727 294.40512 
L 90.919809 241.6896 
L 108.00689 241.6896 
L 125.093971 241.6896 
L 142.181053 241.6896 
L 159.268134 241.6896 
L 176.355215 241.6896 
L 193.442297 241.6896 
L 210.529378 241.6896 
L 227.616459 241.6896 
L 244.703541 241.6896 
L 261.790622 241.6896 
L 278.877703 241.6896 
L 295.964785 241.6896 
L 313.051866 241.6896 
L 330.138947 241.6896 
L 347.226029 241.6896 
L 364.31311 241.6896 
L 381.400191 241.6896 
L 398.487273 241.6896 
L 398.487273 236.6208 
L 398.487273 236.6208 
L 381.400191 236.6208 
L 364.31311 236.6208 
L 347.226029 236.6208 
L 330.138947 236.6208 
L 313.051866 236.6208 
L 295.964785 236.6208 
L 278.877703 236.6208 
L 261.790622 236.6208 
L 244.703541 236.6208 
L 227.616459 236.6208 
L 210.529378 236.6208 
L 193.442297 236.6208 
L 176.355215 236.6208 
L 159.268134 236.6208 
L 142.181053 236.6208 
L 125.093971 236.6208 
L 108.00689 236.6208 
L 90.919809 236.6208 
L 73.832727 293.39136 
z
" clip-path="url(#p680a705d78)" style="fill: #d62728"/>
   </g>
   <g id="FillBetweenPolyCollection_15">
    <path d="M 73.832727 292.3776 
L 73.832727 293.39136 
L 90.919809 236.6208 
L 108.00689 236.6208 
L 125.093971 236.6208 
L 142.181053 236.6208 
L 159.268134 236.6208 
L 176.355215 236.6208 
L 193.442297 236.6208 
L 210.529378 236.6208 
L 227.616459 236.6208 
L 244.703541 236.6208 
L 261.790622 236.6208 
L 278.877703 236.6208 
L 295.964785 236.6208 
L 313.051866 236.6208 
L 330.138947 236.6208 
L 347.226029 236.6208 
L 364.31311 236.6208 
L 381.400191 236.6208 
L 398.487273 236.6208 
L 398.487273 231.552 
L 398.487273 231.552 
L 381.400191 231.552 
L 364.31311 231.552 
L 347.226029 231.552 
L 330.138947 231.552 
L 313.051866 231.552 
L 295.964785 231.552 
L 278.877703 231.552 
L 261.790622 231.552 
L 244.703541 231.552 
L 227.616459 231.552 
L 210.529378 231.552 
L 193.442297 231.552 
L 176.355215 231.552 
L 159.268134 231.552 
L 142.181053 231.552 
L 125.093971 231.552 
L 108.00689 231.552 
L 90.919809 231.552 
L 73.832727 292.3776 
z
" clip-path="url(#p680a705d78)" style="fill: #9467bd"/>
   </g>
   <g id="FillBetweenPolyCollection_16">
    <path d="M 73.832727 291.36384 
L 73.832727 292.3776 
L 90.919809 231.552 
L 108.00689 231.552 
L 125.093971 231.552 
L 142.181053 231.552 
L 159.268134 231.552 
L 176.355215 231.552 
L 193.442297 231.552 
L 210.529378 231.552 
L 227.616459 231.552 
L 244.703541 231.552 
L 261.790622 231.552 
L 278.877703 231.552 
L 295.964785 231.552 
L 313.051866 231.552 
L 330.138947 231.552 
L 347.226029 231.552 
L 364.31311 231.552 
L 381.400191 231.552 
L 398.487273 231.552 
L 398.487273 226.4832 
L 398.487273 226.4832 
L 381.400191 226.4832 
L 364.31311 226.4832 
L 347.226029 226.4832 
L 330.138947 226.4832 
L 313.051866 226.4832 
L 295.964785 226.4832 
L 278.877703 226.4832 
L 261.790622 226.4832 
L 244.703541 226.4832 
L 227.616459 226.4832 
L 210.529378 226.4832 
L 193.442297 226.4832 
L 176.355215 226.4832 
L 159.268134 226.4832 
L 142.181053 226.4832 
L 125.093971 226.4832 
L 108.00689 226.4832 
L 90.919809 226.4832 
L 73.832727 291.36384 
z
" clip-path="url(#p680a705d78)" style="fill: #8c564b"/>
   </g>
   <g id="FillBetweenPolyCollection_17">
    <path d="M 73.832727 290.35008 
L 73.832727 291.36384 
L 90.919809 226.4832 
L 108.00689 226.4832 
L 125.093971 226.4832 
L 142.181053 226.4832 
L 159.268134 226.4832 
L 176.355215 226.4832 
L 193.442297 226.4832 
L 210.529378 226.4832 
L 227.616459 226.4832 
L 244.703541 226.4832 
L 261.790622 226.4832 
L 278.877703 226.4832 
L 295.964785 226.4832 
L 313.051866 226.4832 
L 330.138947 226.4832 
L 347.226029 226.4832 
L 364.31311 226.4832 
L 381.400191 226.4832 
L 398.487273 226.4832 
L 398.487273 221.4144 
L 398.487273 221.4144 
L 381.400191 221.4144 
L 364.31311 221.4144 
L 347.226029 221.4144 
L 330.138947 221.4144 
L 313.051866 221.4144 
L 295.964785 221.4144 
L 278.877703 221.4144 
L 261.790622 221.4144 
L 244.703541 221.4144 
L 227.616459 221.4144 
L 210.529378 221.4144 
L 193.442297 221.4144 
L 176.355215 221.4144 
L 159.268134 221.4144 
L 142.181053 221.4144 
L 125.093971 221.4144 
L 108.00689 221.4144 
L 90.919809 221.4144 
L 73.832727 290.35008 
z
" clip-path="url(#p680a705d78)" style="fill: #e377c2"/>
   </g>
   <g id="FillBetweenPolyCollection_18">
    <path d="M 73.832727 289.33632 
L 73.832727 290.35008 
L 90.919809 221.4144 
L 108.00689 221.4144 
L 125.093971 221.4144 
L 142.181053 221.4144 
L 159.268134 221.4144 
L 176.355215 221.4144 
L 193.442297 221.4144 
L 210.529378 221.4144 
L 227.616459 221.4144 
L 244.703541 221.4144 
L 261.790622 221.4144 
L 278.877703 221.4144 
L 295.964785 221.4144 
L 313.051866 221.4144 
L 330.138947 221.4144 
L 347.226029 221.4144 
L 364.31311 221.4144 
L 381.400191 221.4144 
L 398.487273 221.4144 
L 398.487273 216.3456 
L 398.487273 216.3456 
L 381.400191 216.3456 
L 364.31311 216.3456 
L 347.226029 216.3456 
L 330.138947 216.3456 
L 313.051866 216.3456 
L 295.964785 216.3456 
L 278.877703 216.3456 
L 261.790622 216.3456 
L 244.703541 216.3456 
L 227.616459 216.3456 
L 210.529378 216.3456 
L 193.442297 216.3456 
L 176.355215 216.3456 
L 159.268134 216.3456 
L 142.181053 216.3456 
L 125.093971 216.3456 
L 108.00689 216.3456 
L 90.919809 216.3456 
L 73.832727 289.33632 
z
" clip-path="url(#p680a705d78)" style="fill: #7f7f7f"/>
   </g>
   <g id="FillBetweenPolyCollection_19">
    <path d="M 73.832727 288.32256 
L 73.832727 289.33632 
L 90.919809 216.3456 
L 108.00689 216.3456 
L 125.093971 216.3456 
L 142.181053 216.3456 
L 159.268134 216.3456 
L 176.355215 216.3456 
L 193.442297 216.3456 
L 210.529378 216.3456 
L 227.616459 216.3456 
L 244.703541 216.3456 
L 261.790622 216.3456 
L 278.877703 216.3456 
L 295.964785 216.3456 
L 313.051866 216.3456 
L 330.138947 216.3456 
L 347.226029 216.3456 
L 364.31311 216.3456 
L 381.400191 216.3456 
L 398.487273 216.3456 
L 398.487273 211.2768 
L 398.487273 211.2768 
L 381.400191 211.2768 
L 364.31311 211.2768 
L 347.226029 211.2768 
L 330.138947 211.2768 
L 313.051866 211.2768 
L 295.964785 211.2768 
L 278.877703 211.2768 
L 261.790622 211.2768 
L 244.703541 211.2768 
L 227.616459 211.2768 
L 210.529378 211.2768 
L 193.442297 211.2768 
L 176.355215 211.2768 
L 159.268134 211.2768 
L 142.181053 211.2768 
L 125.093971 211.2768 
L 108.00689 211.2768 
L 90.919809 211.2768 
L 73.832727 288.32256 
z
" clip-path="url(#p680a705d78)" style="fill: #bcbd22"/>
   </g>
   <g id="FillBetweenPolyCollection_20">
    <path d="M 73.832727 287.3088 
L 73.832727 288.32256 
L 90.919809 211.2768 
L 108.00689 211.2768 
L 125.093971 211.2768 
L 142.181053 211.2768 
L 159.268134 211.2768 
L 176.355215 211.2768 
L 193.442297 211.2768 
L 210.529378 211.2768 
L 227.616459 211.2768 
L 244.703541 211.2768 
L 261.790622 211.2768 
L 278.877703 211.2768 
L 295.964785 211.2768 
L 313.051866 211.2768 
L 330.138947 211.2768 
L 347.226029 211.2768 
L 364.31311 211.2768 
L 381.400191 211.2768 
L 398.487273 211.2768 
L 398.487273 206.208 
L 398.487273 206.208 
L 381.400191 206.208 
L 364.31311 206.208 
L 347.226029 206.208 
L 330.138947 206.208 
L 313.051866 206.208 
L 295.964785 206.208 
L 278.877703 206.208 
L 261.790622 206.208 
L 244.703541 206.208 
L 227.616459 206.208 
L 210.529378 206.208 
L 193.442297 206.208 
L 176.355215 206.208 
L 159.268134 206.208 
L 142.181053 206.208 
L 125.093971 206.208 
L 108.00689 206.208 
L 90.919809 206.208 
L 73.832727 287.3088 
z
" clip-path="url(#p680a705d78)" style="fill: #17becf"/>
   </g>
   <g id="FillBetweenPolyCollection_21">
    <path d="M 73.832727 286.29504 
L 73.832727 287.3088 
L 90.919809 206.208 
L 108.00689 206.208 
L 125.093971 206.208 
L 142.181053 206.208 
L 159.268134 206.208 
L 176.355215 206.208 
L 193.442297 206.208 
L 210.529378 206.208 
L 227.616459 206.208 
L 244.703541 206.208 
L 261.790622 206.208 
L 278.877703 206.208 
L 295.964785 206.208 
L 313.051866 206.208 
L 330.138947 206.208 
L 347.226029 206.208 
L 364.31311 206.208 
L 381.400191 206.208 
L 398.487273 206.208 
L 398.487273 201.1392 
L 398.487273 201.1392 
L 381.400191 201.1392 
L 364.31311 201.1392 
L 347.226029 201.1392 
L 330.138947 201.1392 
L 313.051866 201.1392 
L 295.964785 201.1392 
L 278.877703 201.1392 
L 261.790622 201.1392 
L 244.703541 201.1392 
L 227.616459 201.1392 
L 210.529378 201.1392 
L 193.442297 201.1392 
L 176.355215 201.1392 
L 159.268134 201.1392 
L 142.181053 201.1392 
L 125.093971 201.1392 
L 108.00689 201.1392 
L 90.919809 201.1392 
L 73.832727 286.29504 
z
" clip-path="url(#p680a705d78)" style="fill: #1f77b4"/>
   </g>
   <g id="FillBetweenPolyCollection_22">
    <path d="M 73.832727 285.28128 
L 73.832727 286.29504 
L 90.919809 201.1392 
L 108.00689 201.1392 
L 125.093971 201.1392 
L 142.181053 201.1392 
L 159.268134 201.1392 
L 176.355215 201.1392 
L 193.442297 201.1392 
L 210.529378 201.1392 
L 227.616459 201.1392 
L 244.703541 201.1392 
L 261.790622 201.1392 
L 278.877703 201.1392 
L 295.964785 201.1392 
L 313.051866 201.1392 
L 330.138947 201.1392 
L 347.226029 201.1392 
L 364.31311 201.1392 
L 381.400191 201.1392 
L 398.487273 201.1392 
L 398.487273 196.0704 
L 398.487273 196.0704 
L 381.400191 196.0704 
L 364.31311 196.0704 
L 347.226029 196.0704 
L 330.138947 196.0704 
L 313.051866 196.0704 
L 295.964785 196.0704 
L 278.877703 196.0704 
L 261.790622 196.0704 
L 244.703541 196.0704 
L 227.616459 196.0704 
L 210.529378 196.0704 
L 193.442297 196.0704 
L 176.355215 196.0704 
L 159.268134 196.0704 
L 142.181053 196.0704 
L 125.093971 196.0704 
L 108.00689 196.0704 
L 90.919809 196.0704 
L 73.832727 285.28128 
z
" clip-path="url(#p680a705d78)" style="fill: #ff7f0e"/>
   </g>
   <g id="FillBetweenPolyCollection_23">
    <path d="M 73.832727 284.26752 
L 73.832727 285.28128 
L 90.919809 196.0704 
L 108.00689 196.0704 
L 125.093971 196.0704 
L 142.181053 196.0704 
L 159.268134 196.0704 
L 176.355215 196.0704 
L 193.442297 196.0704 
L 210.529378 196.0704 
L 227.616459 196.0704 
L 244.703541 196.0704 
L 261.790622 196.0704 
L 278.877703 196.0704 
L 295.964785 196.0704 
L 313.051866 196.0704 
L 330.138947 196.0704 
L 347.226029 196.0704 
L 364.31311 196.0704 
L 381.400191 196.0704 
L 398.487273 196.0704 
L 398.487273 191.0016 
L 398.487273 191.0016 
L 381.400191 191.0016 
L 364.31311 191.0016 
L 347.226029 191.0016 
L 330.138947 191.0016 
L 313.051866 191.0016 
L 295.964785 191.0016 
L 278.877703 191.0016 
L 261.790622 191.0016 
L 244.703541 191.0016 
L 227.616459 191.0016 
L 210.529378 191.0016 
L 193.442297 191.0016 
L 176.355215 191.0016 
L 159.268134 191.0016 
L 142.181053 191.0016 
L 125.093971 191.0016 
L 108.00689 191.0016 
L 90.919809 191.0016 
L 73.832727 284.26752 
z
" clip-path="url(#p680a705d78)" style="fill: #2ca02c"/>
   </g>
   <g id="FillBetweenPolyCollection_24">
    <path d="M 73.832727 283.25376 
L 73.832727 284.26752 
L 90.919809 191.0016 
L 108.00689 191.0016 
L 125.093971 191.0016 
L 142.181053 191.0016 
L 159.268134 191.0016 
L 176.355215 191.0016 
L 193.442297 191.0016 
L 210.529378 191.0016 
L 227.616459 191.0016 
L 244.703541 191.0016 
L 261.790622 191.0016 
L 278.877703 191.0016 
L 295.964785 191.0016 
L 313.051866 191.0016 
L 330.138947 191.0016 
L 347.226029 191.0016 
L 364.31311 191.0016 
L 381.400191 191.0016 
L 398.487273 191.0016 
L 398.487273 185.9328 
L 398.487273 185.9328 
L 381.400191 185.9328 
L 364.31311 185.9328 
L 347.226029 185.9328 
L 330.138947 185.9328 
L 313.051866 185.9328 
L 295.964785 185.9328 
L 278.877703 185.9328 
L 261.790622 185.9328 
L 244.703541 185.9328 
L 227.616459 185.9328 
L 210.529378 185.9328 
L 193.442297 185.9328 
L 176.355215 185.9328 
L 159.268134 185.9328 
L 142.181053 185.9328 
L 125.093971 185.9328 
L 108.00689 185.9328 
L 90.919809 185.9328 
L 73.832727 283.25376 
z
" clip-path="url(#p680a705d78)" style="fill: #d62728"/>
   </g>
   <g id="FillBetweenPolyCollection_25">
    <path d="M 73.832727 282.24 
L 73.832727 283.25376 
L 90.919809 185.9328 
L 108.00689 185.9328 
L 125.093971 185.9328 
L 142.181053 185.9328 
L 159.268134 185.9328 
L 176.355215 185.9328 
L 193.442297 185.9328 
L 210.529378 185.9328 
L 227.616459 185.9328 
L 244.703541 185.9328 
L 261.790622 185.9328 
L 278.877703 185.9328 
L 295.964785 185.9328 
L 313.051866 185.9328 
L 330.138947 185.9328 
L 347.226029 185.9328 
L 364.31311 185.9328 
L 381.400191 185.9328 
L 398.487273 185.9328 
L 398.487273 180.864 
L 398.487273 180.864 
L 381.400191 180.864 
L 364.31311 180.864 
L 347.226029 180.864 
L 330.138947 180.864 
L 313.051866 180.864 
L 295.964785 180.864 
L 278.877703 180.864 
L 261.790622 180.864 
L 244.703541 180.864 
L 227.616459 180.864 
L 210.529378 180.864 
L 193.442297 180.864 
L 176.355215 180.864 
L 159.268134 180.864 
L 142.181053 180.864 
L 125.093971 180.864 
L 108.00689 180.864 
L 90.919809 180.864 
L 73.832727 282.24 
z
" clip-path="url(#p680a705d78)" style="fill: #9467bd"/>
   </g>
   <g id="FillBetweenPolyCollection_26">
    <path d="M 73.832727 281.22624 
L 73.832727 282.24 
L 90.919809 180.864 
L 108.00689 180.864 
L 125.093971 180.864 
L 142.181053 180.864 
L 159.268134 180.864 
L 176.355215 180.864 
L 193.442297 180.864 
L 210.529378 180.864 
L 227.616459 180.864 
L 244.703541 180.864 
L 261.790622 180.864 
L 278.877703 180.864 
L 295.964785 180.864 
L 313.051866 180.864 
L 330.138947 180.864 
L 347.226029 180.864 
L 364.31311 180.864 
L 381.400191 180.864 
L 398.487273 180.864 
L 398.487273 175.7952 
L 398.487273 175.7952 
L 381.400191 175.7952 
L 364.31311 175.7952 
L 347.226029 175.7952 
L 330.138947 175.7952 
L 313.051866 175.7952 
L 295.964785 175.7952 
L 278.877703 175.7952 
L 261.790622 175.7952 
L 244.703541 175.7952 
L 227.616459 175.7952 
L 210.529378 175.7952 
L 193.442297 175.7952 
L 176.355215 175.7952 
L 159.268134 175.7952 
L 142.181053 175.7952 
L 125.093971 175.7952 
L 108.00689 175.7952 
L 90.919809 175.7952 
L 73.832727 281.22624 
z
" clip-path="url(#p680a705d78)" style="fill: #8c564b"/>
   </g>
   <g id="FillBetweenPolyCollection_27">
    <path d="M 73.832727 280.21248 
L 73.832727 281.22624 
L 90.919809 175.7952 
L 108.00689 175.7952 
L 125.093971 175.7952 
L 142.181053 175.7952 
L 159.268134 175.7952 
L 176.355215 175.7952 
L 193.442297 175.7952 
L 210.529378 175.7952 
L 227.616459 175.7952 
L 244.703541 175.7952 
L 261.790622 175.7952 
L 278.877703 175.7952 
L 295.964785 175.7952 
L 313.051866 175.7952 
L 330.138947 175.7952 
L 347.226029 175.7952 
L 364.31311 175.7952 
L 381.400191 175.7952 
L 398.487273 175.7952 
L 398.487273 170.7264 
L 398.487273 170.7264 
L 381.400191 170.7264 
L 364.31311 170.7264 
L 347.226029 170.7264 
L 330.138947 170.7264 
L 313.051866 170.7264 
L 295.964785 170.7264 
L 278.877703 170.7264 
L 261.790622 170.7264 
L 244.703541 170.7264 
L 227.616459 170.7264 
L 210.529378 170.7264 
L 193.442297 170.7264 
L 176.355215 170.7264 
L 159.268134 170.7264 
L 142.181053 170.7264 
L 125.093971 170.7264 
L 108.00689 170.7264 
L 90.919809 170.7264 
L 73.832727 280.21248 
z
" clip-path="url(#p680a705d78)" style="fill: #e377c2"/>
   </g>
   <g id="FillBetweenPolyCollection_28">
    <path d="M 73.832727 279.19872 
L 73.832727 280.21248 
L 90.919809 170.7264 
L 108.00689 170.7264 
L 125.093971 170.7264 
L 142.181053 170.7264 
L 159.268134 170.7264 
L 176.355215 170.7264 
L 193.442297 170.7264 
L 210.529378 170.7264 
L 227.616459 170.7264 
L 244.703541 170.7264 
L 261.790622 170.7264 
L 278.877703 170.7264 
L 295.964785 170.7264 
L 313.051866 170.7264 
L 330.138947 170.7264 
L 347.226029 170.7264 
L 364.31311 170.7264 
L 381.400191 170.7264 
L 398.487273 170.7264 
L 398.487273 165.6576 
L 398.487273 165.6576 
L 381.400191 165.6576 
L 364.31311 165.6576 
L 347.226029 165.6576 
L 330.138947 165.6576 
L 313.051866 165.6576 
L 295.964785 165.6576 
L 278.877703 165.6576 
L 261.790622 165.6576 
L 244.703541 165.6576 
L 227.616459 165.6576 
L 210.529378 165.6576 
L 193.442297 165.6576 
L 176.355215 165.6576 
L 159.268134 165.6576 
L 142.181053 165.6576 
L 125.093971 165.6576 
L 108.00689 165.6576 
L 90.919809 165.6576 
L 73.832727 279.19872 
z
" clip-path="url(#p680a705d78)" style="fill: #7f7f7f"/>
   </g>
   <g id="FillBetweenPolyCollection_29">
    <path d="M 73.832727 278.18496 
L 73.832727 279.19872 
L 90.919809 165.6576 
L 108.00689 165.6576 
L 125.093971 165.6576 
L 142.181053 165.6576 
L 159.268134 165.6576 
L 176.355215 165.6576 
L 193.442297 165.6576 
L 210.529378 165.6576 
L 227.616459 165.6576 
L 244.703541 165.6576 
L 261.790622 165.6576 
L 278.877703 165.6576 
L 295.964785 165.6576 
L 313.051866 165.6576 
L 330.138947 165.6576 
L 347.226029 165.6576 
L 364.31311 165.6576 
L 381.400191 165.6576 
L 398.487273 165.6576 
L 398.487273 160.5888 
L 398.487273 160.5888 
L 381.400191 160.5888 
L 364.31311 160.5888 
L 347.226029 160.5888 
L 330.138947 160.5888 
L 313.051866 160.5888 
L 295.964785 160.5888 
L 278.877703 160.5888 
L 261.790622 160.5888 
L 244.703541 160.5888 
L 227.616459 160.5888 
L 210.529378 160.5888 
L 193.442297 160.5888 
L 176.355215 160.5888 
L 159.268134 160.5888 
L 142.181053 160.5888 
L 125.093971 160.5888 
L 108.00689 160.5888 
L 90.919809 160.5888 
L 73.832727 278.18496 
z
" clip-path="url(#p680a705d78)" style="fill: #bcbd22"/>
   </g>
   <g id="FillBetweenPolyCollection_30">
    <path d="M 73.832727 277.1712 
L 73.832727 278.18496 
L 90.919809 160.5888 
L 108.00689 160.5888 
L 125.093971 160.5888 
L 142.181053 160.5888 
L 159.268134 160.5888 
L 176.355215 160.5888 
L 193.442297 160.5888 
L 210.529378 160.5888 
L 227.616459 160.5888 
L 244.703541 160.5888 
L 261.790622 160.5888 
L 278.877703 160.5888 
L 295.964785 160.5888 
L 313.051866 160.5888 
L 330.138947 160.5888 
L 347.226029 160.5888 
L 364.31311 160.5888 
L 381.400191 160.5888 
L 398.487273 160.5888 
L 398.487273 155.52 
L 398.487273 155.52 
L 381.400191 155.52 
L 364.31311 155.52 
L 347.226029 155.52 
L 330.138947 155.52 
L 313.051866 155.52 
L 295.964785 155.52 
L 278.877703 155.52 
L 261.790622 155.52 
L 244.703541 155.52 
L 227.616459 155.52 
L 210.529378 155.52 
L 193.442297 155.52 
L 176.355215 155.52 
L 159.268134 155.52 
L 142.181053 155.52 
L 125.093971 155.52 
L 108.00689 155.52 
L 90.919809 155.52 
L 73.832727 277.1712 
z
" clip-path="url(#p680a705d78)" style="fill: #17becf"/>
   </g>
   <g id="FillBetweenPolyCollection_31">
    <path d="M 73.832727 276.15744 
L 73.832727 277.1712 
L 90.919809 155.52 
L 108.00689 155.52 
L 125.093971 155.52 
L 142.181053 155.52 
L 159.268134 155.52 
L 176.355215 155.52 
L 193.442297 155.52 
L 210.529378 155.52 
L 227.616459 155.52 
L 244.703541 155.52 
L 261.790622 155.52 
L 278.877703 155.52 
L 295.964785 155.52 
L 313.051866 155.52 
L 330.138947 155.52 
L 347.226029 155.52 
L 364.31311 155.52 
L 381.400191 155.52 
L 398.487273 155.52 
L 398.487273 150.4512 
L 398.487273 150.4512 
L 381.400191 150.4512 
L 364.31311 150.4512 
L 347.226029 150.4512 
L 330.138947 150.4512 
L 313.051866 150.4512 
L 295.964785 150.4512 
L 278.877703 150.4512 
L 261.790622 150.4512 
L 244.703541 150.4512 
L 227.616459 150.4512 
L 210.529378 150.4512 
L 193.442297 150.4512 
L 176.355215 150.4512 
L 159.268134 150.4512 
L 142.181053 150.4512 
L 125.093971 150.4512 
L 108.00689 150.4512 
L 90.919809 150.4512 
L 73.832727 276.15744 
z
" clip-path="url(#p680a705d78)" style="fill: #1f77b4"/>
   </g>
   <g id="FillBetweenPolyCollection_32">
    <path d="M 73.832727 275.14368 
L 73.832727 276.15744 
L 90.919809 150.4512 
L 108.00689 150.4512 
L 125.093971 150.4512 
L 142.181053 150.4512 
L 159.268134 150.4512 
L 176.355215 150.4512 
L 193.442297 150.4512 
L 210.529378 150.4512 
L 227.616459 150.4512 
L 244.703541 150.4512 
L 261.790622 150.4512 
L 278.877703 150.4512 
L 295.964785 150.4512 
L 313.051866 150.4512 
L 330.138947 150.4512 
L 347.226029 150.4512 
L 364.31311 150.4512 
L 381.400191 150.4512 
L 398.487273 150.4512 
L 398.487273 145.3824 
L 398.487273 145.3824 
L 381.400191 145.3824 
L 364.31311 145.3824 
L 347.226029 145.3824 
L 330.138947 145.3824 
L 313.051866 145.3824 
L 295.964785 145.3824 
L 278.877703 145.3824 
L 261.790622 145.3824 
L 244.703541 145.3824 
L 227.616459 145.3824 
L 210.529378 145.3824 
L 193.442297 145.3824 
L 176.355215 145.3824 
L 159.268134 145.3824 
L 142.181053 145.3824 
L 125.093971 145.3824 
L 108.00689 145.3824 
L 90.919809 145.3824 
L 73.832727 275.14368 
z
" clip-path="url(#p680a705d78)" style="fill: #ff7f0e"/>
   </g>
   <g id="FillBetweenPolyCollection_33">
    <path d="M 73.832727 274.12992 
L 73.832727 275.14368 
L 90.919809 145.3824 
L 108.00689 145.3824 
L 125.093971 145.3824 
L 142.181053 145.3824 
L 159.268134 145.3824 
L 176.355215 145.3824 
L 193.442297 145.3824 
L 210.529378 145.3824 
L 227.616459 145.3824 
L 244.703541 145.3824 
L 261.790622 145.3824 
L 278.877703 145.3824 
L 295.964785 145.3824 
L 313.051866 145.3824 
L 330.138947 145.3824 
L 347.226029 145.3824 
L 364.31311 145.3824 
L 381.400191 145.3824 
L 398.487273 145.3824 
L 398.487273 140.3136 
L 398.487273 140.3136 
L 381.400191 140.3136 
L 364.31311 140.3136 
L 347.226029 140.3136 
L 330.138947 140.3136 
L 313.051866 140.3136 
L 295.964785 140.3136 
L 278.877703 140.3136 
L 261.790622 140.3136 
L 244.703541 140.3136 
L 227.616459 140.3136 
L 210.529378 140.3136 
L 193.442297 140.3136 
L 176.355215 140.3136 
L 159.268134 140.3136 
L 142.181053 140.3136 
L 125.093971 140.3136 
L 108.00689 140.3136 
L 90.919809 140.3136 
L 73.832727 274.12992 
z
" clip-path="url(#p680a705d78)" style="fill: #2ca02c"/>
   </g>
   <g id="FillBetweenPolyCollection_34">
    <path d="M 73.832727 273.11616 
L 73.832727 274.12992 
L 90.919809 140.3136 
L 108.00689 140.3136 
L 125.093971 140.3136 
L 142.181053 140.3136 
L 159.268134 140.3136 
L 176.355215 140.3136 
L 193.442297 140.3136 
L 210.529378 140.3136 
L 227.616459 140.3136 
L 244.703541 140.3136 
L 261.790622 140.3136 
L 278.877703 140.3136 
L 295.964785 140.3136 
L 313.051866 140.3136 
L 330.138947 140.3136 
L 347.226029 140.3136 
L 364.31311 140.3136 
L 381.400191 140.3136 
L 398.487273 140.3136 
L 398.487273 135.2448 
L 398.487273 135.2448 
L 381.400191 135.2448 
L 364.31311 135.2448 
L 347.226029 135.2448 
L 330.138947 135.2448 
L 313.051866 135.2448 
L 295.964785 135.2448 
L 278.877703 135.2448 
L 261.790622 135.2448 
L 244.703541 135.2448 
L 227.616459 135.2448 
L 210.529378 135.2448 
L 193.442297 135.2448 
L 176.355215 135.2448 
L 159.268134 135.2448 
L 142.181053 135.2448 
L 125.093971 135.2448 
L 108.00689 135.2448 
L 90.919809 135.2448 
L 73.832727 273.11616 
z
" clip-path="url(#p680a705d78)" style="fill: #d62728"/>
   </g>
   <g id="FillBetweenPolyCollection_35">
    <path d="M 73.832727 272.1024 
L 73.832727 273.11616 
L 90.919809 135.2448 
L 108.00689 135.2448 
L 125.093971 135.2448 
L 142.181053 135.2448 
L 159.268134 135.2448 
L 176.355215 135.2448 
L 193.442297 135.2448 
L 210.529378 135.2448 
L 227.616459 135.2448 
L 244.703541 135.2448 
L 261.790622 135.2448 
L 278.877703 135.2448 
L 295.964785 135.2448 
L 313.051866 135.2448 
L 330.138947 135.2448 
L 347.226029 135.2448 
L 364.31311 135.2448 
L 381.400191 135.2448 
L 398.487273 135.2448 
L 398.487273 130.176 
L 398.487273 130.176 
L 381.400191 130.176 
L 364.31311 130.176 
L 347.226029 130.176 
L 330.138947 130.176 
L 313.051866 130.176 
L 295.964785 130.176 
L 278.877703 130.176 
L 261.790622 130.176 
L 244.703541 130.176 
L 227.616459 130.176 
L 210.529378 130.176 
L 193.442297 130.176 
L 176.355215 130.176 
L 159.268134 130.176 
L 142.181053 130.176 
L 125.093971 130.176 
L 108.00689 130.176 
L 90.919809 130.176 
L 73.832727 272.1024 
z
" clip-path="url(#p680a705d78)" style="fill: #9467bd"/>
   </g>
   <g id="FillBetweenPolyCollection_36">
    <path d="M 73.832727 271.08864 
L 73.832727 272.1024 
L 90.919809 130.176 
L 108.00689 130.176 
L 125.093971 130.176 
L 142.181053 130.176 
L 159.268134 130.176 
L 176.355215 130.176 
L 193.442297 130.176 
L 210.529378 130.176 
L 227.616459 130.176 
L 244.703541 130.176 
L 261.790622 130.176 
L 278.877703 130.176 
L 295.964785 130.176 
L 313.051866 130.176 
L 330.138947 130.176 
L 347.226029 130.176 
L 364.31311 130.176 
L 381.400191 130.176 
L 398.487273 130.176 
L 398.487273 125.1072 
L 398.487273 125.1072 
L 381.400191 125.1072 
L 364.31311 125.1072 
L 347.226029 125.1072 
L 330.138947 125.1072 
L 313.051866 125.1072 
L 295.964785 125.1072 
L 278.877703 125.1072 
L 261.790622 125.1072 
L 244.703541 125.1072 
L 227.616459 125.1072 
L 210.529378 125.1072 
L 193.442297 125.1072 
L 176.355215 125.1072 
L 159.268134 125.1072 
L 142.181053 125.1072 
L 125.093971 125.1072 
L 108.00689 125.1072 
L 90.919809 125.1072 
L 73.832727 271.08864 
z
" clip-path="url(#p680a705d78)" style="fill: #8c564b"/>
   </g>
   <g id="FillBetweenPolyCollection_37">
    <path d="M 73.832727 270.07488 
L 73.832727 271.08864 
L 90.919809 125.1072 
L 108.00689 125.1072 
L 125.093971 125.1072 
L 142.181053 125.1072 
L 159.268134 125.1072 
L 176.355215 125.1072 
L 193.442297 125.1072 
L 210.529378 125.1072 
L 227.616459 125.1072 
L 244.703541 125.1072 
L 261.790622 125.1072 
L 278.877703 125.1072 
L 295.964785 125.1072 
L 313.051866 125.1072 
L 330.138947 125.1072 
L 347.226029 125.1072 
L 364.31311 125.1072 
L 381.400191 125.1072 
L 398.487273 125.1072 
L 398.487273 120.0384 
L 398.487273 120.0384 
L 381.400191 120.0384 
L 364.31311 120.0384 
L 347.226029 120.0384 
L 330.138947 120.0384 
L 313.051866 120.0384 
L 295.964785 120.0384 
L 278.877703 120.0384 
L 261.790622 120.0384 
L 244.703541 120.0384 
L 227.616459 120.0384 
L 210.529378 120.0384 
L 193.442297 120.0384 
L 176.355215 120.0384 
L 159.268134 120.0384 
L 142.181053 120.0384 
L 125.093971 120.0384 
L 108.00689 120.0384 
L 90.919809 120.0384 
L 73.832727 270.07488 
z
" clip-path="url(#p680a705d78)" style="fill: #e377c2"/>
   </g>
   <g id="FillBetweenPolyCollection_38">
    <path d="M 73.832727 269.06112 
L 73.832727 270.07488 
L 90.919809 120.0384 
L 108.00689 120.0384 
L 125.093971 120.0384 
L 142.181053 120.0384 
L 159.268134 120.0384 
L 176.355215 120.0384 
L 193.442297 120.0384 
L 210.529378 120.0384 
L 227.616459 120.0384 
L 244.703541 120.0384 
L 261.790622 120.0384 
L 278.877703 120.0384 
L 295.964785 120.0384 
L 313.051866 120.0384 
L 330.138947 120.0384 
L 347.226029 120.0384 
L 364.31311 120.0384 
L 381.400191 120.0384 
L 398.487273 120.0384 
L 398.487273 114.9696 
L 398.487273 114.9696 
L 381.400191 114.9696 
L 364.31311 114.9696 
L 347.226029 114.9696 
L 330.138947 114.9696 
L 313.051866 114.9696 
L 295.964785 114.9696 
L 278.877703 114.9696 
L 261.790622 114.9696 
L 244.703541 114.9696 
L 227.616459 114.9696 
L 210.529378 114.9696 
L 193.442297 114.9696 
L 176.355215 114.9696 
L 159.268134 114.9696 
L 142.181053 114.9696 
L 125.093971 114.9696 
L 108.00689 114.9696 
L 90.919809 114.9696 
L 73.832727 269.06112 
z
" clip-path="url(#p680a705d78)" style="fill: #7f7f7f"/>
   </g>
   <g id="FillBetweenPolyCollection_39">
    <path d="M 73.832727 268.04736 
L 73.832727 269.06112 
L 90.919809 114.9696 
L 108.00689 114.9696 
L 125.093971 114.9696 
L 142.181053 114.9696 
L 159.268134 114.9696 
L 176.355215 114.9696 
L 193.442297 114.9696 
L 210.529378 114.9696 
L 227.616459 114.9696 
L 244.703541 114.9696 
L 261.790622 114.9696 
L 278.877703 114.9696 
L 295.964785 114.9696 
L 313.051866 114.9696 
L 330.138947 114.9696 
L 347.226029 114.9696 
L 364.31311 114.9696 
L 381.400191 114.9696 
L 398.487273 114.9696 
L 398.487273 109.9008 
L 398.487273 109.9008 
L 381.400191 109.9008 
L 364.31311 109.9008 
L 347.226029 109.9008 
L 330.138947 109.9008 
L 313.051866 109.9008 
L 295.964785 109.9008 
L 278.877703 109.9008 
L 261.790622 109.9008 
L 244.703541 109.9008 
L 227.616459 109.9008 
L 210.529378 109.9008 
L 193.442297 109.9008 
L 176.355215 109.9008 
L 159.268134 109.9008 
L 142.181053 109.9008 
L 125.093971 109.9008 
L 108.00689 109.9008 
L 90.919809 109.9008 
L 73.832727 268.04736 
z
" clip-path="url(#p680a705d78)" style="fill: #bcbd22"/>
   </g>
   <g id="FillBetweenPolyCollection_40">
    <path d="M 73.832727 267.0336 
L 73.832727 268.04736 
L 90.919809 109.9008 
L 108.00689 109.9008 
L 125.093971 109.9008 
L 142.181053 109.9008 
L 159.268134 109.9008 
L 176.355215 109.9008 
L 193.442297 109.9008 
L 210.529378 109.9008 
L 227.616459 109.9008 
L 244.703541 109.9008 
L 261.790622 109.9008 
L 278.877703 109.9008 
L 295.964785 109.9008 
L 313.051866 109.9008 
L 330.138947 109.9008 
L 347.226029 109.9008 
L 364.31311 109.9008 
L 381.400191 109.9008 
L 398.487273 109.9008 
L 398.487273 104.832 
L 398.487273 104.832 
L 381.400191 104.832 
L 364.31311 104.832 
L 347.226029 104.832 
L 330.138947 104.832 
L 313.051866 104.832 
L 295.964785 104.832 
L 278.877703 104.832 
L 261.790622 104.832 
L 244.703541 104.832 
L 227.616459 104.832 
L 210.529378 104.832 
L 193.442297 104.832 
L 176.355215 104.832 
L 159.268134 104.832 
L 142.181053 104.832 
L 125.093971 104.832 
L 108.00689 104.832 
L 90.919809 104.832 
L 73.832727 267.0336 
z
" clip-path="url(#p680a705d78)" style="fill: #17becf"/>
   </g>
   <g id="FillBetweenPolyCollection_41">
    <path d="M 73.832727 266.01984 
L 73.832727 267.0336 
L 90.919809 104.832 
L 108.00689 104.832 
L 125.093971 104.832 
L 142.181053 104.832 
L 159.268134 104.832 
L 176.355215 104.832 
L 193.442297 104.832 
L 210.529378 104.832 
L 227.616459 104.832 
L 244.703541 104.832 
L 261.790622 104.832 
L 278.877703 104.832 
L 295.964785 104.832 
L 313.051866 104.832 
L 330.138947 104.832 
L 347.226029 104.832 
L 364.31311 104.832 
L 381.400191 104.832 
L 398.487273 104.832 
L 398.487273 99.7632 
L 398.487273 99.7632 
L 381.400191 99.7632 
L 364.31311 99.7632 
L 347.226029 99.7632 
L 330.138947 99.7632 
L 313.051866 99.7632 
L 295.964785 99.7632 
L 278.877703 99.7632 
L 261.790622 99.7632 
L 244.703541 99.7632 
L 227.616459 99.7632 
L 210.529378 99.7632 
L 193.442297 99.7632 
L 176.355215 99.7632 
L 159.268134 99.7632 
L 142.181053 99.7632 
L 125.093971 99.7632 
L 108.00689 99.7632 
L 90.919809 99.7632 
L 73.832727 266.01984 
z
" clip-path="url(#p680a705d78)" style="fill: #1f77b4"/>
   </g>
   <g id="FillBetweenPolyCollection_42">
    <path d="M 73.832727 265.00608 
L 73.832727 266.01984 
L 90.919809 99.7632 
L 108.00689 99.7632 
L 125.093971 99.7632 
L 142.181053 99.7632 
L 159.268134 99.7632 
L 176.355215 99.7632 
L 193.442297 99.7632 
L 210.529378 99.7632 
L 227.616459 99.7632 
L 244.703541 99.7632 
L 261.790622 99.7632 
L 278.877703 99.7632 
L 295.964785 99.7632 
L 313.051866 99.7632 
L 330.138947 99.7632 
L 347.226029 99.7632 
L 364.31311 99.7632 
L 381.400191 99.7632 
L 398.487273 99.7632 
L 398.487273 94.6944 
L 398.487273 94.6944 
L 381.400191 94.6944 
L 364.31311 94.6944 
L 347.226029 94.6944 
L 330.138947 94.6944 
L 313.051866 94.6944 
L 295.964785 94.6944 
L 278.877703 94.6944 
L 261.790622 94.6944 
L 244.703541 94.6944 
L 227.616459 94.6944 
L 210.529378 94.6944 
L 193.442297 94.6944 
L 176.355215 94.6944 
L 159.268134 94.6944 
L 142.181053 94.6944 
L 125.093971 94.6944 
L 108.00689 94.6944 
L 90.919809 94.6944 
L 73.832727 265.00608 
z
" clip-path="url(#p680a705d78)" style="fill: #ff7f0e"/>
   </g>
   <g id="FillBetweenPolyCollection_43">
    <path d="M 73.832727 263.99232 
L 73.832727 265.00608 
L 90.919809 94.6944 
L 108.00689 94.6944 
L 125.093971 94.6944 
L 142.181053 94.6944 
L 159.268134 94.6944 
L 176.355215 94.6944 
L 193.442297 94.6944 
L 210.529378 94.6944 
L 227.616459 94.6944 
L 244.703541 94.6944 
L 261.790622 94.6944 
L 278.877703 94.6944 
L 295.964785 94.6944 
L 313.051866 94.6944 
L 330.138947 94.6944 
L 347.226029 94.6944 
L 364.31311 94.6944 
L 381.400191 94.6944 
L 398.487273 94.6944 
L 398.487273 89.6256 
L 398.487273 89.6256 
L 381.400191 89.6256 
L 364.31311 89.6256 
L 347.226029 89.6256 
L 330.138947 89.6256 
L 313.051866 89.6256 
L 295.964785 89.6256 
L 278.877703 89.6256 
L 261.790622 89.6256 
L 244.703541 89.6256 
L 227.616459 89.6256 
L 210.529378 89.6256 
L 193.442297 89.6256 
L 176.355215 89.6256 
L 159.268134 89.6256 
L 142.181053 89.6256 
L 125.093971 89.6256 
L 108.00689 89.6256 
L 90.919809 89.6256 
L 73.832727 263.99232 
z
" clip-path="url(#p680a705d78)" style="fill: #2ca02c"/>
   </g>
   <g id="FillBetweenPolyCollection_44">
    <path d="M 73.832727 262.97856 
L 73.832727 263.99232 
L 90.919809 89.6256 
L 108.00689 89.6256 
L 125.093971 89.6256 
L 142.181053 89.6256 
L 159.268134 89.6256 
L 176.355215 89.6256 
L 193.442297 89.6256 
L 210.529378 89.6256 
L 227.616459 89.6256 
L 244.703541 89.6256 
L 261.790622 89.6256 
L 278.877703 89.6256 
L 295.964785 89.6256 
L 313.051866 89.6256 
L 330.138947 89.6256 
L 347.226029 89.6256 
L 364.31311 89.6256 
L 381.400191 89.6256 
L 398.487273 89.6256 
L 398.487273 84.5568 
L 398.487273 84.5568 
L 381.400191 84.5568 
L 364.31311 84.5568 
L 347.226029 84.5568 
L 330.138947 84.5568 
L 313.051866 84.5568 
L 295.964785 84.5568 
L 278.877703 84.5568 
L 261.790622 84.5568 
L 244.703541 84.5568 
L 227.616459 84.5568 
L 210.529378 84.5568 
L 193.442297 84.5568 
L 176.355215 84.5568 
L 159.268134 84.5568 
L 142.181053 84.5568 
L 125.093971 84.5568 
L 108.00689 84.5568 
L 90.919809 84.5568 
L 73.832727 262.97856 
z
" clip-path="url(#p680a705d78)" style="fill: #d62728"/>
   </g>
   <g id="FillBetweenPolyCollection_45">
    <path d="M 73.832727 261.9648 
L 73.832727 262.97856 
L 90.919809 84.5568 
L 108.00689 84.5568 
L 125.093971 84.5568 
L 142.181053 84.5568 
L 159.268134 84.5568 
L 176.355215 84.5568 
L 193.442297 84.5568 
L 210.529378 84.5568 
L 227.616459 84.5568 
L 244.703541 84.5568 
L 261.790622 84.5568 
L 278.877703 84.5568 
L 295.964785 84.5568 
L 313.051866 84.5568 
L 330.138947 84.5568 
L 347.226029 84.5568 
L 364.31311 84.5568 
L 381.400191 84.5568 
L 398.487273 84.5568 
L 398.487273 79.488 
L 398.487273 79.488 
L 381.400191 79.488 
L 364.31311 79.488 
L 347.226029 79.488 
L 330.138947 79.488 
L 313.051866 79.488 
L 295.964785 79.488 
L 278.877703 79.488 
L 261.790622 79.488 
L 244.703541 79.488 
L 227.616459 79.488 
L 210.529378 79.488 
L 193.442297 79.488 
L 176.355215 79.488 
L 159.268134 79.488 
L 142.181053 79.488 
L 125.093971 79.488 
L 108.00689 79.488 
L 90.919809 79.488 
L 73.832727 261.9648 
z
" clip-path="url(#p680a705d78)" style="fill: #9467bd"/>
   </g>
   <g id="FillBetweenPolyCollection_46">
    <path d="M 73.832727 260.95104 
L 73.832727 261.9648 
L 90.919809 79.488 
L 108.00689 79.488 
L 125.093971 79.488 
L 142.181053 79.488 
L 159.268134 79.488 
L 176.355215 79.488 
L 193.442297 79.488 
L 210.529378 79.488 
L 227.616459 79.488 
L 244.703541 79.488 
L 261.790622 79.488 
L 278.877703 79.488 
L 295.964785 79.488 
L 313.051866 79.488 
L 330.138947 79.488 
L 347.226029 79.488 
L 364.31311 79.488 
L 381.400191 79.488 
L 398.487273 79.488 
L 398.487273 74.4192 
L 398.487273 74.4192 
L 381.400191 74.4192 
L 364.31311 74.4192 
L 347.226029 74.4192 
L 330.138947 74.4192 
L 313.051866 74.4192 
L 295.964785 74.4192 
L 278.877703 74.4192 
L 261.790622 74.4192 
L 244.703541 74.4192 
L 227.616459 74.4192 
L 210.529378 74.4192 
L 193.442297 74.4192 
L 176.355215 74.4192 
L 159.268134 74.4192 
L 142.181053 74.4192 
L 125.093971 74.4192 
L 108.00689 74.4192 
L 90.919809 74.4192 
L 73.832727 260.95104 
z
" clip-path="url(#p680a705d78)" style="fill: #8c564b"/>
   </g>
   <g id="FillBetweenPolyCollection_47">
    <path d="M 73.832727 259.93728 
L 73.832727 260.95104 
L 90.919809 74.4192 
L 108.00689 74.4192 
L 125.093971 74.4192 
L 142.181053 74.4192 
L 159.268134 74.4192 
L 176.355215 74.4192 
L 193.442297 74.4192 
L 210.529378 74.4192 
L 227.616459 74.4192 
L 244.703541 74.4192 
L 261.790622 74.4192 
L 278.877703 74.4192 
L 295.964785 74.4192 
L 313.051866 74.4192 
L 330.138947 74.4192 
L 347.226029 74.4192 
L 364.31311 74.4192 
L 381.400191 74.4192 
L 398.487273 74.4192 
L 398.487273 69.3504 
L 398.487273 69.3504 
L 381.400191 69.3504 
L 364.31311 69.3504 
L 347.226029 69.3504 
L 330.138947 69.3504 
L 313.051866 69.3504 
L 295.964785 69.3504 
L 278.877703 69.3504 
L 261.790622 69.3504 
L 244.703541 69.3504 
L 227.616459 69.3504 
L 210.529378 69.3504 
L 193.442297 69.3504 
L 176.355215 69.3504 
L 159.268134 69.3504 
L 142.181053 69.3504 
L 125.093971 69.3504 
L 108.00689 69.3504 
L 90.919809 69.3504 
L 73.832727 259.93728 
z
" clip-path="url(#p680a705d78)" style="fill: #e377c2"/>
   </g>
   <g id="FillBetweenPolyCollection_48">
    <path d="M 73.832727 258.92352 
L 73.832727 259.93728 
L 90.919809 69.3504 
L 108.00689 69.3504 
L 125.093971 69.3504 
L 142.181053 69.3504 
L 159.268134 69.3504 
L 176.355215 69.3504 
L 193.442297 69.3504 
L 210.529378 69.3504 
L 227.616459 69.3504 
L 244.703541 69.3504 
L 261.790622 69.3504 
L 278.877703 69.3504 
L 295.964785 69.3504 
L 313.051866 69.3504 
L 330.138947 69.3504 
L 347.226029 69.3504 
L 364.31311 69.3504 
L 381.400191 69.3504 
L 398.487273 69.3504 
L 398.487273 64.2816 
L 398.487273 64.2816 
L 381.400191 64.2816 
L 364.31311 64.2816 
L 347.226029 64.2816 
L 330.138947 64.2816 
L 313.051866 64.2816 
L 295.964785 64.2816 
L 278.877703 64.2816 
L 261.790622 64.2816 
L 244.703541 64.2816 
L 227.616459 64.2816 
L 210.529378 64.2816 
L 193.442297 64.2816 
L 176.355215 64.2816 
L 159.268134 64.2816 
L 142.181053 64.2816 
L 125.093971 64.2816 
L 108.00689 64.2816 
L 90.919809 64.2816 
L 73.832727 258.92352 
z
" clip-path="url(#p680a705d78)" style="fill: #7f7f7f"/>
   </g>
   <g id="FillBetweenPolyCollection_49">
    <path d="M 73.832727 257.90976 
L 73.832727 258.92352 
L 90.919809 64.2816 
L 108.00689 64.2816 
L 125.093971 64.2816 
L 142.181053 64.2816 
L 159.268134 64.2816 
L 176.355215 64.2816 
L 193.442297 64.2816 
L 210.529378 64.2816 
L 227.616459 64.2816 
L 244.703541 64.2816 
L 261.790622 64.2816 
L 278.877703 64.2816 
L 295.964785 64.2816 
L 313.051866 64.2816 
L 330.138947 64.2816 
L 347.226029 64.2816 
L 364.31311 64.2816 
L 381.400191 64.2816 
L 398.487273 64.2816 
L 398.487273 59.2128 
L 398.487273 59.2128 
L 381.400191 59.2128 
L 364.31311 59.2128 
L 347.226029 59.2128 
L 330.138947 59.2128 
L 313.051866 59.2128 
L 295.964785 59.2128 
L 278.877703 59.2128 
L 261.790622 59.2128 
L 244.703541 59.2128 
L 227.616459 59.2128 
L 210.529378 59.2128 
L 193.442297 59.2128 
L 176.355215 59.2128 
L 159.268134 59.2128 
L 142.181053 59.2128 
L 125.093971 59.2128 
L 108.00689 59.2128 
L 90.919809 59.2128 
L 73.832727 257.90976 
z
" clip-path="url(#p680a705d78)" style="fill: #bcbd22"/>
   </g>
   <g id="FillBetweenPolyCollection_50">
    <path d="M 73.832727 256.896 
L 73.832727 257.90976 
L 90.919809 59.2128 
L 108.00689 59.2128 
L 125.093971 59.2128 
L 142.181053 59.2128 
L 159.268134 59.2128 
L 176.355215 59.2128 
L 193.442297 59.2128 
L 210.529378 59.2128 
L 227.616459 59.2128 
L 244.703541 59.2128 
L 261.790622 59.2128 
L 278.877703 59.2128 
L 295.964785 59.2128 
L 313.051866 59.2128 
L 330.138947 59.2128 
L 347.226029 59.2128 
L 364.31311 59.2128 
L 381.400191 59.2128 
L 398.487273 59.2128 
L 398.487273 54.144 
L 398.487273 54.144 
L 381.400191 54.144 
L 364.31311 54.144 
L 347.226029 54.144 
L 330.138947 54.144 
L 313.051866 54.144 
L 295.964785 54.144 
L 278.877703 54.144 
L 261.790622 54.144 
L 244.703541 54.144 
L 227.616459 54.144 
L 210.529378 54.144 
L 193.442297 54.144 
L 176.355215 54.144 
L 159.268134 54.144 
L 142.181053 54.144 
L 125.093971 54.144 
L 108.00689 54.144 
L 90.919809 54.144 
L 73.832727 256.896 
z
" clip-path="url(#p680a705d78)" style="fill: #17becf"/>
   </g>
   <g id="matplotlib.axis_1">
    <g id="xtick_1">
     <g id="line2d_1">
      <defs>
       <path id="m7f609daad1" d="M 0 0 
L 0 3.5 
" style="stroke: #000000; stroke-width: 0.8"/>
      </defs>
      <g>
       <use xlink:href="#m7f609daad1" x="73.832727" y="307.584" style="stroke: #000000; stroke-width: 0.8"/>
      </g>
     </g>
     <g id="text_1">
      <!-- 0.0 -->
      <g transform="translate(65.881165 322.182437) scale(0.1 -0.1)">
       <defs>
        <path id="DejaVuSans-30" d="M 2034 4250 
Q 1547 4250 1301 3770 
Q 1056 3291 1056 2328 
Q 1056 1369 1301 889 
Q 1547 409 2034 409 
Q 2525 409 2770 889 
Q 3016 1369 3016 2328 
Q 3016 3291 2770 3770 
Q 2525 4250 2034 4250 
z
M 2034 4750 
Q 2819 4750 3233 4129 
Q 3647 3509 3647 2328 
Q 3647 1150 3233 529 
Q 2819 -91 2034 -91 
Q 1250 -91 836 529 
Q 422 1150 422 2328 
Q 422 3509 836 4129 
Q 1250 4750 2034 4750 
z
" transform="scale(0.015625)"/>
        <path id="DejaVuSans-2e" d="M 684 794 
L 1344 794 
L 1344 0 
L 684 0 
L 684 794 
z
" transform="scale(0.015625)"/>
       </defs>
       <use xlink:href="#DejaVuSans-30"/>
       <use xlink:href="#DejaVuSans-2e" transform="translate(63.623047 0)"/>
       <use xlink:href="#DejaVuSans-30" transform="translate(95.410156 0)"/>
      </g>
     </g>
    </g>
    <g id="xtick_2">
     <g id="line2d_2">
      <g>
       <use xlink:href="#m7f609daad1" x="116.550431" y="307.584" style="stroke: #000000; stroke-width: 0.8"/>
      </g>
     </g>
     <g id="text_2">
      <!-- 2.5 -->
      <g transform="translate(108.598868 322.182437) scale(0.1 -0.1)">
       <defs>
        <path id="DejaVuSans-32" d="M 1228 531 
L 3431 531 
L 3431 0 
L 469 0 
L 469 531 
Q 828 903 1448 1529 
Q 2069 2156 2228 2338 
Q 2531 2678 2651 2914 
Q 2772 3150 2772 3378 
Q 2772 3750 2511 3984 
Q 2250 4219 1831 4219 
Q 1534 4219 1204 4116 
Q 875 4013 500 3803 
L 500 4441 
Q 881 4594 1212 4672 
Q 1544 4750 1819 4750 
Q 2544 4750 2975 4387 
Q 3406 4025 3406 3419 
Q 3406 3131 3298 2873 
Q 3191 2616 2906 2266 
Q 2828 2175 2409 1742 
Q 1991 1309 1228 531 
z
" transform="scale(0.015625)"/>
        <path id="DejaVuSans-35" d="M 691 4666 
L 3169 4666 
L 3169 4134 
L 1269 4134 
L 1269 2991 
Q 1406 3038 1543 3061 
Q 1681 3084 1819 3084 
Q 2600 3084 3056 2656 
Q 3513 2228 3513 1497 
Q 3513 744 3044 326 
Q 2575 -91 1722 -91 
Q 1428 -91 1123 -41 
Q 819 9 494 109 
L 494 744 
Q 775 591 1075 516 
Q 1375 441 1709 441 
Q 2250 441 2565 725 
Q 2881 1009 2881 1497 
Q 2881 1984 2565 2268 
Q 2250 2553 1709 2553 
Q 1456 2553 1204 2497 
Q 953 2441 691 2322 
L 691 4666 
z
" transform="scale(0.015625)"/>
       </defs>
       <use xlink:href="#DejaVuSans-32"/>
       <use xlink:href="#DejaVuSans-2e" transform="translate(63.623047 0)"/>
       <use xlink:href="#DejaVuSans-35" transform="translate(95.410156 0)"/>
      </g>
     </g>
    </g>
    <g id="xtick_3">
     <g id="line2d_3">
      <g>
       <use xlink:href="#m7f609daad1" x="159.268134" y="307.584" style="stroke: #000000; stroke-width: 0.8"/>
      </g>
     </g>
     <g id="text_3">
      <!-- 5.0 -->
      <g transform="translate(151.316571 322.182437) scale(0.1 -0.1)">
       <use xlink:href="#DejaVuSans-35"/>
       <use xlink:href="#DejaVuSans-2e" transform="translate(63.623047 0)"/>
       <use xlink:href="#DejaVuSans-30" transform="translate(95.410156 0)"/>
      </g>
     </g>
    </g>
    <g id="xtick_4">
     <g id="line2d_4">
      <g>
       <use xlink:href="#m7f609daad1" x="201.985837" y="307.584" style="stroke: #000000; stroke-width: 0.8"/>
      </g>
     </g>
     <g id="text_4">
      <!-- 7.5 -->
      <g transform="translate(194.034275 322.182437) scale(0.1 -0.1)">
       <defs>
        <path id="DejaVuSans-37" d="M 525 4666 
L 3525 4666 
L 3525 4397 
L 1831 0 
L 1172 0 
L 2766 4134 
L 525 4134 
L 525 4666 
z
" transform="scale(0.015625)"/>
       </defs>
       <use xlink:href="#DejaVuSans-37"/>
       <use xlink:href="#DejaVuSans-2e" transform="translate(63.623047 0)"/>
       <use xlink:href="#DejaVuSans-35" transform="translate(95.410156 0)"/>
      </g>
     </g>
    </g>
    <g id="xtick_5">
     <g id="line2d_5">
      <g>
       <use xlink:href="#m7f609daad1" x="244.703541" y="307.584" style="stroke: #000000; stroke-width: 0.8"/>
      </g>
     </g>
     <g id="text_5">
      <!-- 10.0 -->
      <g transform="translate(233.570728 322.182437) scale(0.1 -0.1)">
       <defs>
        <path id="DejaVuSans-31" d="M 794 531 
L 1825 531 
L 1825 4091 
L 703 3866 
L 703 4441 
L 1819 4666 
L 2450 4666 
L 2450 531 
L 3481 531 
L 3481 0 
L 794 0 
L 794 531 
z
" transform="scale(0.015625)"/>
       </defs>
       <use xlink:href="#DejaVuSans-31"/>
       <use xlink:href="#DejaVuSans-30" transform="translate(63.623047 0)"/>
       <use xlink:href="#DejaVuSans-2e" transform="translate(127.246094 0)"/>
       <use xlink:href="#DejaVuSans-30" transform="translate(159.033203 0)"/>
      </g>
     </g>
    </g>
    <g id="xtick_6">
     <g id="line2d_6">
      <g>
       <use xlink:href="#m7f609daad1" x="287.421244" y="307.584" style="stroke: #000000; stroke-width: 0.8"/>
      </g>
     </g>
     <g id="text_6">
      <!-- 12.5 -->
      <g transform="translate(276.288432 322.182437) scale(0.1 -0.1)">
       <use xlink:href="#DejaVuSans-31"/>
       <use xlink:href="#DejaVuSans-32" transform="translate(63.623047 0)"/>
       <use xlink:href="#DejaVuSans-2e" transform="translate(127.246094 0)"/>
       <use xlink:href="#DejaVuSans-35" transform="translate(159.033203 0)"/>
      </g>
     </g>
    </g>
    <g id="xtick_7">
     <g id="line2d_7">
      <g>
       <use xlink:href="#m7f609daad1" x="330.138947" y="307.584" style="stroke: #000000; stroke-width: 0.8"/>
      </g>
     </g>
     <g id="text_7">
      <!-- 15.0 -->
      <g transform="translate(319.006135 322.182437) scale(0.1 -0.1)">
       <use xlink:href="#DejaVuSans-31"/>
       <use xlink:href="#DejaVuSans-35" transform="translate(63.623047 0)"/>
       <use xlink:href="#DejaVuSans-2e" transform="translate(127.246094 0)"/>
       <use xlink:href="#DejaVuSans-30" transform="translate(159.033203 0)"/>
      </g>
     </g>
    </g>
    <g id="xtick_8">
     <g id="line2d_8">
      <g>
       <use xlink:href="#m7f609daad1" x="372.856651" y="307.584" style="stroke: #000000; stroke-width: 0.8"/>
      </g>
     </g>
     <g id="text_8">
      <!-- 17.5 -->
      <g transform="translate(361.723838 322.182437) scale(0.1 -0.1)">
       <use xlink:href="#DejaVuSans-31"/>
       <use xlink:href="#DejaVuSans-37" transform="translate(63.623047 0)"/>
       <use xlink:href="#DejaVuSans-2e" transform="translate(127.246094 0)"/>
       <use xlink:href="#DejaVuSans-35" transform="translate(159.033203 0)"/>
      </g>
     </g>
    </g>
    <g id="text_9">
     <!-- Generations -->
     <g transform="translate(205.662344 335.860562) scale(0.1 -0.1)">
      <defs>
       <path id="DejaVuSans-47" d="M 3809 666 
L 3809 1919 
L 2778 1919 
L 2778 2438 
L 4434 2438 
L 4434 434 
Q 4069 175 3628 42 
Q 3188 -91 2688 -91 
Q 1594 -91 976 548 
Q 359 1188 359 2328 
Q 359 3472 976 4111 
Q 1594 4750 2688 4750 
Q 3144 4750 3555 4637 
Q 3966 4525 4313 4306 
L 4313 3634 
Q 3963 3931 3569 4081 
Q 3175 4231 2741 4231 
Q 1884 4231 1454 3753 
Q 1025 3275 1025 2328 
Q 1025 1384 1454 906 
Q 1884 428 2741 428 
Q 3075 428 3337 486 
Q 3600 544 3809 666 
z
" transform="scale(0.015625)"/>
       <path id="DejaVuSans-65" d="M 3597 1894 
L 3597 1613 
L 953 1613 
Q 991 1019 1311 708 
Q 1631 397 2203 397 
Q 2534 397 2845 478 
Q 3156 559 3463 722 
L 3463 178 
Q 3153 47 2828 -22 
Q 2503 -91 2169 -91 
Q 1331 -91 842 396 
Q 353 884 353 1716 
Q 353 2575 817 3079 
Q 1281 3584 2069 3584 
Q 2775 3584 3186 3129 
Q 3597 2675 3597 1894 
z
M 3022 2063 
Q 3016 2534 2758 2815 
Q 2500 3097 2075 3097 
Q 1594 3097 1305 2825 
Q 1016 2553 972 2059 
L 3022 2063 
z
" transform="scale(0.015625)"/>
       <path id="DejaVuSans-6e" d="M 3513 2113 
L 3513 0 
L 2938 0 
L 2938 2094 
Q 2938 2591 2744 2837 
Q 2550 3084 2163 3084 
Q 1697 3084 1428 2787 
Q 1159 2491 1159 1978 
L 1159 0 
L 581 0 
L 581 3500 
L 1159 3500 
L 1159 2956 
Q 1366 3272 1645 3428 
Q 1925 3584 2291 3584 
Q 2894 3584 3203 3211 
Q 3513 2838 3513 2113 
z
" transform="scale(0.015625)"/>
       <path id="DejaVuSans-72" d="M 2631 2963 
Q 2534 3019 2420 3045 
Q 2306 3072 2169 3072 
Q 1681 3072 1420 2755 
Q 1159 2438 1159 1844 
L 1159 0 
L 581 0 
L 581 3500 
L 1159 3500 
L 1159 2956 
Q 1341 3275 1631 3429 
Q 1922 3584 2338 3584 
Q 2397 3584 2469 3576 
Q 2541 3569 2628 3553 
L 2631 2963 
z
" transform="scale(0.015625)"/>
       <path id="DejaVuSans-61" d="M 2194 1759 
Q 1497 1759 1228 1600 
Q 959 1441 959 1056 
Q 959 750 1161 570 
Q 1363 391 1709 391 
Q 2188 391 2477 730 
Q 2766 1069 2766 1631 
L 2766 1759 
L 2194 1759 
z
M 3341 1997 
L 3341 0 
L 2766 0 
L 2766 531 
Q 2569 213 2275 61 
Q 1981 -91 1556 -91 
Q 1019 -91 701 211 
Q 384 513 384 1019 
Q 384 1609 779 1909 
Q 1175 2209 1959 2209 
L 2766 2209 
L 2766 2266 
Q 2766 2663 2505 2880 
Q 2244 3097 1772 3097 
Q 1472 3097 1187 3025 
Q 903 2953 641 2809 
L 641 3341 
Q 956 3463 1253 3523 
Q 1550 3584 1831 3584 
Q 2591 3584 2966 3190 
Q 3341 2797 3341 1997 
z
" transform="scale(0.015625)"/>
       <path id="DejaVuSans-74" d="M 1172 4494 
L 1172 3500 
L 2356 3500 
L 2356 3053 
L 1172 3053 
L 1172 1153 
Q 1172 725 1289 603 
Q 1406 481 1766 481 
L 2356 481 
L 2356 0 
L 1766 0 
Q 1100 0 847 248 
Q 594 497 594 1153 
L 594 3053 
L 172 3053 
L 172 3500 
L 594 3500 
L 594 4494 
L 1172 4494 
z
" transform="scale(0.015625)"/>
       <path id="DejaVuSans-69" d="M 603 3500 
L 1178 3500 
L 1178 0 
L 603 0 
L 603 3500 
z
M 603 4863 
L 1178 4863 
L 1178 4134 
L 603 4134 
L 603 4863 
z
" transform="scale(0.015625)"/>
       <path id="DejaVuSans-6f" d="M 1959 3097 
Q 1497 3097 1228 2736 
Q 959 2375 959 1747 
Q 959 1119 1226 758 
Q 1494 397 1959 397 
Q 2419 397 2687 759 
Q 2956 1122 2956 1747 
Q 2956 2369 2687 2733 
Q 2419 3097 1959 3097 
z
M 1959 3584 
Q 2709 3584 3137 3096 
Q 3566 2609 3566 1747 
Q 3566 888 3137 398 
Q 2709 -91 1959 -91 
Q 1206 -91 779 398 
Q 353 888 353 1747 
Q 353 2609 779 3096 
Q 1206 3584 1959 3584 
z
" transform="scale(0.015625)"/>
       <path id="DejaVuSans-73" d="M 2834 3397 
L 2834 2853 
Q 2591 2978 2328 3040 
Q 2066 3103 1784 3103 
Q 1356 3103 1142 2972 
Q 928 2841 928 2578 
Q 928 2378 1081 2264 
Q 1234 2150 1697 2047 
L 1894 2003 
Q 2506 1872 2764 1633 
Q 3022 1394 3022 966 
Q 3022 478 2636 193 
Q 2250 -91 1575 -91 
Q 1294 -91 989 -36 
Q 684 19 347 128 
L 347 722 
Q 666 556 975 473 
Q 1284 391 1588 391 
Q 1994 391 2212 530 
Q 2431 669 2431 922 
Q 2431 1156 2273 1281 
Q 2116 1406 1581 1522 
L 1381 1569 
Q 847 1681 609 1914 
Q 372 2147 372 2553 
Q 372 3047 722 3315 
Q 1072 3584 1716 3584 
Q 2034 3584 2315 3537 
Q 2597 3491 2834 3397 
z
" transform="scale(0.015625)"/>
      </defs>
      <use xlink:href="#DejaVuSans-47"/>
      <use xlink:href="#DejaVuSans-65" transform="translate(77.490234 0)"/>
      <use xlink:href="#DejaVuSans-6e" transform="translate(139.013672 0)"/>
      <use xlink:href="#DejaVuSans-65" transform="translate(202.392578 0)"/>
      <use xlink:href="#DejaVuSans-72" transform="translate(263.916016 0)"/>
      <use xlink:href="#DejaVuSans-61" transform="translate(305.029297 0)"/>
      <use xlink:href="#DejaVuSans-74" transform="translate(366.308594 0)"/>
      <use xlink:href="#DejaVuSans-69" transform="translate(405.517578 0)"/>
      <use xlink:href="#DejaVuSans-6f" transform="translate(433.300781 0)"/>
      <use xlink:href="#DejaVuSans-6e" transform="translate(494.482422 0)"/>
      <use xlink:href="#DejaVuSans-73" transform="translate(557.861328 0)"/>
     </g>
    </g>
   </g>
   <g id="matplotlib.axis_2">
    <g id="ytick_1">
     <g id="line2d_9">
      <defs>
       <path id="m418fa325fe" d="M 0 0 
L -3.5 0 
" style="stroke: #000000; stroke-width: 0.8"/>
      </defs>
      <g>
       <use xlink:href="#m418fa325fe" x="57.6" y="307.584" style="stroke: #000000; stroke-width: 0.8"/>
      </g>
     </g>
     <g id="text_10">
      <!-- 0 -->
      <g transform="translate(44.2375 311.383219) scale(0.1 -0.1)">
       <use xlink:href="#DejaVuSans-30"/>
      </g>
     </g>
    </g>
    <g id="ytick_2">
     <g id="line2d_10">
      <g>
       <use xlink:href="#m418fa325fe" x="57.6" y="256.896" style="stroke: #000000; stroke-width: 0.8"/>
      </g>
     </g>
     <g id="text_11">
      <!-- 50 -->
      <g transform="translate(37.875 260.695219) scale(0.1 -0.1)">
       <use xlink:href="#DejaVuSans-35"/>
       <use xlink:href="#DejaVuSans-30" transform="translate(63.623047 0)"/>
      </g>
     </g>
    </g>
    <g id="ytick_3">
     <g id="line2d_11">
      <g>
       <use xlink:href="#m418fa325fe" x="57.6" y="206.208" style="stroke: #000000; stroke-width: 0.8"/>
      </g>
     </g>
     <g id="text_12">
      <!-- 100 -->
      <g transform="translate(31.5125 210.007219) scale(0.1 -0.1)">
       <use xlink:href="#DejaVuSans-31"/>
       <use xlink:href="#DejaVuSans-30" transform="translate(63.623047 0)"/>
       <use xlink:href="#DejaVuSans-30" transform="translate(127.246094 0)"/>
      </g>
     </g>
    </g>
    <g id="ytick_4">
     <g id="line2d_12">
      <g>
       <use xlink:href="#m418fa325fe" x="57.6" y="155.52" style="stroke: #000000; stroke-width: 0.8"/>
      </g>
     </g>
     <g id="text_13">
      <!-- 150 -->
      <g transform="translate(31.5125 159.319219) scale(0.1 -0.1)">
       <use xlink:href="#DejaVuSans-31"/>
       <use xlink:href="#DejaVuSans-35" transform="translate(63.623047 0)"/>
       <use xlink:href="#DejaVuSans-30" transform="translate(127.246094 0)"/>
      </g>
     </g>
    </g>
    <g id="ytick_5">
     <g id="line2d_13">
      <g>
       <use xlink:href="#m418fa325fe" x="57.6" y="104.832" style="stroke: #000000; stroke-width: 0.8"/>
      </g>
     </g>
     <g id="text_14">
      <!-- 200 -->
      <g transform="translate(31.5125 108.631219) scale(0.1 -0.1)">
       <use xlink:href="#DejaVuSans-32"/>
       <use xlink:href="#DejaVuSans-30" transform="translate(63.623047 0)"/>
       <use xlink:href="#DejaVuSans-30" transform="translate(127.246094 0)"/>
      </g>
     </g>
    </g>
    <g id="ytick_6">
     <g id="line2d_14">
      <g>
       <use xlink:href="#m418fa325fe" x="57.6" y="54.144" style="stroke: #000000; stroke-width: 0.8"/>
      </g>
     </g>
     <g id="text_15">
      <!-- 250 -->
      <g transform="translate(31.5125 57.943219) scale(0.1 -0.1)">
       <use xlink:href="#DejaVuSans-32"/>
       <use xlink:href="#DejaVuSans-35" transform="translate(63.623047 0)"/>
       <use xlink:href="#DejaVuSans-30" transform="translate(127.246094 0)"/>
      </g>
     </g>
    </g>
    <g id="text_16">
     <!-- Size per Species -->
     <g transform="translate(25.432812 215.520969) rotate(-90) scale(0.1 -0.1)">
      <defs>
       <path id="DejaVuSans-53" d="M 3425 4513 
L 3425 3897 
Q 3066 4069 2747 4153 
Q 2428 4238 2131 4238 
Q 1616 4238 1336 4038 
Q 1056 3838 1056 3469 
Q 1056 3159 1242 3001 
Q 1428 2844 1947 2747 
L 2328 2669 
Q 3034 2534 3370 2195 
Q 3706 1856 3706 1288 
Q 3706 609 3251 259 
Q 2797 -91 1919 -91 
Q 1588 -91 1214 -16 
Q 841 59 441 206 
L 441 856 
Q 825 641 1194 531 
Q 1563 422 1919 422 
Q 2459 422 2753 634 
Q 3047 847 3047 1241 
Q 3047 1584 2836 1778 
Q 2625 1972 2144 2069 
L 1759 2144 
Q 1053 2284 737 2584 
Q 422 2884 422 3419 
Q 422 4038 858 4394 
Q 1294 4750 2059 4750 
Q 2388 4750 2728 4690 
Q 3069 4631 3425 4513 
z
" transform="scale(0.015625)"/>
       <path id="DejaVuSans-7a" d="M 353 3500 
L 3084 3500 
L 3084 2975 
L 922 459 
L 3084 459 
L 3084 0 
L 275 0 
L 275 525 
L 2438 3041 
L 353 3041 
L 353 3500 
z
" transform="scale(0.015625)"/>
       <path id="DejaVuSans-20" transform="scale(0.015625)"/>
       <path id="DejaVuSans-70" d="M 1159 525 
L 1159 -1331 
L 581 -1331 
L 581 3500 
L 1159 3500 
L 1159 2969 
Q 1341 3281 1617 3432 
Q 1894 3584 2278 3584 
Q 2916 3584 3314 3078 
Q 3713 2572 3713 1747 
Q 3713 922 3314 415 
Q 2916 -91 2278 -91 
Q 1894 -91 1617 61 
Q 1341 213 1159 525 
z
M 3116 1747 
Q 3116 2381 2855 2742 
Q 2594 3103 2138 3103 
Q 1681 3103 1420 2742 
Q 1159 2381 1159 1747 
Q 1159 1113 1420 752 
Q 1681 391 2138 391 
Q 2594 391 2855 752 
Q 3116 1113 3116 1747 
z
" transform="scale(0.015625)"/>
       <path id="DejaVuSans-63" d="M 3122 3366 
L 3122 2828 
Q 2878 2963 2633 3030 
Q 2388 3097 2138 3097 
Q 1578 3097 1268 2742 
Q 959 2388 959 1747 
Q 959 1106 1268 751 
Q 1578 397 2138 397 
Q 2388 397 2633 464 
Q 2878 531 3122 666 
L 3122 134 
Q 2881 22 2623 -34 
Q 2366 -91 2075 -91 
Q 1284 -91 818 406 
Q 353 903 353 1747 
Q 353 2603 823 3093 
Q 1294 3584 2113 3584 
Q 2378 3584 2631 3529 
Q 2884 3475 3122 3366 
z
" transform="scale(0.015625)"/>
      </defs>
      <use xlink:href="#DejaVuSans-53"/>
      <use xlink:href="#DejaVuSans-69" transform="translate(63.476562 0)"/>
      <use xlink:href="#DejaVuSans-7a" transform="translate(91.259766 0)"/>
      <use xlink:href="#DejaVuSans-65" transform="translate(143.75 0)"/>
      <use xlink:href="#DejaVuSans-20" transform="translate(205.273438 0)"/>
      <use xlink:href="#DejaVuSans-70" transform="translate(237.060547 0)"/>
      <use xlink:href="#DejaVuSans-65" transform="translate(300.537109 0)"/>
      <use xlink:href="#DejaVuSans-72" transform="translate(362.060547 0)"/>
      <use xlink:href="#DejaVuSans-20" transform="translate(403.173828 0)"/>
      <use xlink:href="#DejaVuSans-53" transform="translate(434.960938 0)"/>
      <use xlink:href="#DejaVuSans-70" transform="translate(498.4375 0)"/>
      <use xlink:href="#DejaVuSans-65" transform="translate(561.914062 0)"/>
      <use xlink:href="#DejaVuSans-63" transform="translate(623.4375 0)"/>
      <use xlink:href="#DejaVuSans-69" transform="translate(678.417969 0)"/>
      <use xlink:href="#DejaVuSans-65" transform="translate(706.201172 0)"/>
      <use xlink:href="#DejaVuSans-73" transform="translate(767.724609 0)"/>
     </g>
    </g>
   </g>
   <g id="patch_3">
    <path d="M 57.6 307.584 
L 57.6 41.472 
" style="fill: none; stroke: #000000; stroke-width: 0.8; stroke-linejoin: miter; stroke-linecap: square"/>
   </g>
   <g id="patch_4">
    <path d="M 414.72 307.584 
L 414.72 41.472 
" style="fill: none; stroke: #000000; stroke-width: 0.8; stroke-linejoin: miter; stroke-linecap: square"/>
   </g>
   <g id="patch_5">
    <path d="M 57.6 307.584 
L 414.72 307.584 
" style="fill: none; stroke: #000000; stroke-width: 0.8; stroke-linejoin: miter; stroke-linecap: square"/>
   </g>
   <g id="patch_6">
    <path d="M 57.6 41.472 
L 414.72 41.472 
" style="fill: none; stroke: #000000; stroke-width: 0.8; stroke-linejoin: miter; stroke-linecap: square"/>
   </g>
   <g id="text_17">
    <!-- Speciation -->
    <g transform="translate(204.714375 35.472) scale(0.12 -0.12)">
     <use xlink:href="#DejaVuSans-53"/>
     <use xlink:href="#DejaVuSans-70" transform="translate(63.476562 0)"/>
     <use xlink:href="#DejaVuSans-65" transform="translate(126.953125 0)"/>
     <use xlink:href="#DejaVuSans-63" transform="translate(188.476562 0)"/>
     <use xlink:href="#DejaVuSans-69" transform="translate(243.457031 0)"/>
     <use xlink:href="#DejaVuSans-61" transform="translate(271.240234 0)"/>
     <use xlink:href="#DejaVuSans-74" transform="translate(332.519531 0)"/>
     <use xlink:href="#DejaVuSans-69" transform="translate(371.728516 0)"/>
     <use xlink:href="#DejaVuSans-6f" transform="translate(399.511719 0)"/>
     <use xlink:href="#DejaVuSans-6e" transform="translate(460.693359 0)"/>
    </g>
   </g>
  </g>
 </g>
 <defs>
  <clipPath id="p680a705d78">
   <rect x="57.6" y="41.472" width="357.12" height="266.112"/>
  </clipPath>
 </defs>
</svg>
